<svg width="21" height="12" viewBox="0 0 21 12" fill="none" xmlns="http://www.w3.org/2000/svg">
<path d="M0.497773 0.487971C0.179144 0.80122 0 1.22604 0 1.66913C0 2.11222 0.179144 2.53708 0.497773 2.8503L9.30571 11.5119C9.62375 11.8244 10.0552 12 10.5048 12C10.9545 12 11.3859 11.8244 11.704 11.5119L20.5119 2.84731C20.9351 2.4248 21.0985 1.81307 20.9412 1.2403C20.7838 0.667781 20.3294 0.220219 19.7476 0.0647535C19.1656 -0.0907059 18.5435 0.0694122 18.1134 0.485134L10.5051 7.97267L2.89666 0.488115C2.57842 0.175641 2.14713 0 1.69752 0C1.24769 0 0.816422 0.175646 0.498177 0.488115L0.497773 0.487971Z" fill="#104651"/>
</svg>
