<svg width="8" height="15" viewBox="0 0 8 15" fill="none" xmlns="http://www.w3.org/2000/svg">
<path d="M0.325314 0.355552C0.534147 0.12796 0.817361 0 1.11276 0C1.40815 0 1.69139 0.12796 1.9002 0.355552L7.67459 6.64693C7.88291 6.8741 8 7.18231 8 7.50346C8 7.82462 7.8829 8.13282 7.67459 8.35999L1.89821 14.6514C1.61653 14.9537 1.20871 15.0703 0.826868 14.958C0.445187 14.8456 0.146812 14.521 0.043169 14.1054C-0.0604706 13.6897 0.0462747 13.2454 0.323422 12.9382L5.31511 7.50361L0.32541 2.06904C0.117094 1.84173 0 1.53367 0 1.21251C0 0.891209 0.117097 0.583159 0.32541 0.355841L0.325314 0.355552Z" fill="#104651"/>
</svg>
