<svg width="22" height="18" viewBox="0 0 22 18" fill="none" xmlns="http://www.w3.org/2000/svg">
<path d="M12.1307 16.7728C11.9246 17.0042 11.6299 17.1371 11.32 17.1379H1.09549C0.804997 17.1376 0.526553 17.022 0.321145 16.8168C0.115904 16.6114 0.000325514 16.3329 0 16.0424V8.37405C0.000326015 8.08356 0.115904 7.80511 0.321145 7.5997C0.526549 7.39446 0.804993 7.27889 1.09549 7.27856H11.32C11.6299 7.27937 11.9246 7.41223 12.1307 7.64372H9.85934C9.37533 7.64421 8.91122 7.8369 8.56888 8.17907C8.22671 8.5214 8.03404 8.98551 8.03354 9.46952V10.9302C8.0337 11.4086 8.22231 11.8679 8.55879 12.2082C8.22232 12.5486 8.03371 13.0078 8.03354 13.4863V14.9469C8.03403 15.4309 8.22672 15.895 8.56888 16.2374C8.91122 16.5796 9.37533 16.7722 9.85934 16.7727L12.1307 16.7728ZM3.65145 6.54826V4.72246C3.77078 1.34116 8.64309 1.33853 8.76369 4.72246V6.54826H10.9547V4.72246C10.6955 -1.57165 1.72215 -1.57666 1.46049 4.72246V6.54826H3.65145ZM21.9095 13.4863V14.947C21.9091 15.2374 21.7936 15.5159 21.5883 15.7213C21.3829 15.9265 21.1045 16.0421 20.814 16.0424H9.85916C9.56866 16.0421 9.29022 15.9265 9.08481 15.7213C8.87957 15.5159 8.76399 15.2375 8.76367 14.947V13.4863C8.76399 13.1958 8.87957 12.9174 9.08481 12.712C9.29022 12.5067 9.56866 12.3911 9.85916 12.3908H20.814C21.1045 12.3911 21.3829 12.5067 21.5883 12.712C21.7936 12.9174 21.9091 13.1958 21.9095 13.4863ZM11.5022 13.3037C10.2849 13.2871 10.2849 15.1457 11.5022 15.1294C12.7194 15.146 12.7194 13.2874 11.5022 13.3037ZM14.0583 13.3037C12.8411 13.2871 12.8411 15.1457 14.0583 15.1294C15.2756 15.146 15.2756 13.2874 14.0583 13.3037ZM16.6144 13.3037C15.3972 13.2871 15.3972 15.1457 16.6144 15.1294C17.8317 15.146 17.8317 13.2874 16.6144 13.3037ZM19.1706 13.3037C17.9533 13.2871 17.9533 15.1457 19.1706 15.1294C20.3878 15.146 20.3878 13.2874 19.1706 13.3037ZM20.8138 8.37427H9.85896C9.56847 8.3746 9.29002 8.49018 9.08462 8.69542C8.87938 8.90082 8.7638 9.17927 8.76347 9.46977V10.9304C8.7638 11.2209 8.87938 11.4993 9.08462 11.7048C9.29002 11.91 9.56846 12.0256 9.85896 12.0259H20.8138C21.1043 12.0256 21.3827 11.91 21.5881 11.7048C21.7934 11.4994 21.9089 11.2209 21.9093 10.9304V9.46977C21.9089 9.17927 21.7934 8.90083 21.5881 8.69542C21.3827 8.49018 21.1043 8.3746 20.8138 8.37427Z" fill="#104651"/>
</svg>
