<svg width="27" height="27" viewBox="0 0 27 27" fill="none" xmlns="http://www.w3.org/2000/svg">
<path d="M15.7017 13.4988L25.5382 3.67666C25.9345 3.28062 26.089 2.70315 25.9441 2.16202C25.7991 1.62116 25.3764 1.19849 24.8356 1.0534C24.2946 0.908574 23.7172 1.06307 23.3211 1.45937L13.5 11.2969L3.67893 1.45937C3.28293 1.06307 2.70552 0.908574 2.16445 1.0534C1.62364 1.19849 1.20101 1.62119 1.05593 2.16202C0.911123 2.70314 1.06561 3.28062 1.46187 3.67666L11.2984 13.4988L1.46187 23.3208C1.16624 23.6141 1 24.0133 1 24.4295C1 24.8459 1.16624 25.2451 1.46187 25.5381C1.75488 25.8337 2.15403 26 2.57038 26C2.98651 26 3.38567 25.8337 3.67889 25.5381L13.5 15.7006L23.3211 25.5381C23.6144 25.8337 24.0135 26 24.4296 26C24.846 26 25.2452 25.8337 25.5381 25.5381C25.8338 25.245 26 24.8458 26 24.4295C26 24.0133 25.8338 23.6141 25.5381 23.3208L15.7017 13.4988Z" fill="#104651" stroke="#104651" stroke-width="2"/>
</svg>
