<svg width="12" height="12" viewBox="0 0 12 12" fill="none" xmlns="http://www.w3.org/2000/svg">
<path d="M4.94318 5.9994L0.221656 1.2848C0.0314493 1.0947 -0.0426989 0.817513 0.0268097 0.557771C0.0964441 0.298158 0.299321 0.0952728 0.558896 0.0256315C0.818608 -0.0438846 1.09577 0.0302741 1.28585 0.220499L5.99998 4.94249L10.7141 0.220499C10.9042 0.0302731 11.1813 -0.0438846 11.4411 0.0256315C11.7007 0.0952728 11.9035 0.298171 11.9732 0.557771C12.0427 0.817509 11.9685 1.0947 11.7783 1.2848L7.05679 5.9994L11.7783 10.714C11.9202 10.8548 12 11.0464 12 11.2461C12 11.446 11.9202 11.6377 11.7783 11.7783C11.6377 11.9202 11.4461 12 11.2462 12C11.0465 12 10.8549 11.9202 10.7141 11.7783L6 7.05629L1.28587 11.7783C1.1451 11.9202 0.953498 12 0.753781 12C0.553913 12 0.362313 11.9202 0.221695 11.7783C0.079793 11.6376 0 11.446 0 11.2461C0 11.0464 0.0797958 10.8548 0.221695 10.714L4.94318 5.9994Z" fill="white"/>
</svg>
