<svg width="22" height="21" viewBox="0 0 22 21" fill="none" xmlns="http://www.w3.org/2000/svg">
<path d="M19.7125 0H11.2336C10.4789 0 9.85742 0.621497 9.85742 1.37613V7.74647C9.85742 8.50111 10.4789 9.1226 11.2336 9.1226H11.9216V11.0981C11.9216 11.6974 12.6541 11.9858 13.0758 11.5643L15.5396 9.10048H19.7569C20.5116 9.10048 21.1331 8.47899 21.1331 7.72435L21.1332 1.35401C21.0888 0.599221 20.4673 3.96145e-05 19.7127 3.96145e-05L19.7125 0Z" fill="#104651"/>
<path d="M17.1599 16.4695L14.5185 14.383C13.9636 13.9613 13.1867 14.0279 12.7428 14.5606C12.2766 15.1155 11.9437 15.4707 11.855 15.5594C11.056 16.3585 9.36909 15.1821 7.61554 13.4285C5.86211 11.6751 4.66343 9.98804 5.48461 9.18902C5.57333 9.1003 5.95082 8.76725 6.48341 8.30124C7.01616 7.85736 7.08275 7.05829 6.661 6.5255L4.55255 3.83983C4.19737 3.37362 3.55375 3.21833 3.02096 3.46251C2.3106 3.77325 1.02338 4.83864 0.668195 5.17166C-1.24069 7.08054 1.1344 11.4754 5.32942 15.6705C9.52452 19.8656 13.9194 22.2406 15.8283 20.3317C16.1611 19.9989 17.2267 18.7114 17.5374 17.979C17.7814 17.4462 17.6261 16.8247 17.1599 16.4695Z" fill="#104651"/>
</svg>
