<svg width="22" height="22" viewBox="0 0 22 22" fill="none" xmlns="http://www.w3.org/2000/svg">
<path fill-rule="evenodd" clip-rule="evenodd" d="M5.15194 4.64877H15.8806V5.41406H5.15194V4.64877ZM5.15194 7.33939H15.8806V8.10468H5.15194V7.33939ZM5.15194 10.03H15.8806V10.7953H5.15194V10.03ZM18.5837 13.9788V3.63147C18.5837 2.63248 18.1754 1.7244 17.5174 1.06639C16.8593 0.408388 15.9513 0 14.9523 0H2.44873V13.9787L18.5837 13.9788Z" fill="#104651"/>
<path fill-rule="evenodd" clip-rule="evenodd" d="M18.5839 14.3611H0V21.7464H21.0328V14.3611H18.5837H18.5839ZM9.37999 18.4153L10.4552 18.7408C10.383 19.0421 10.2694 19.2938 10.114 19.4963C9.95871 19.6987 9.76557 19.8513 9.5353 19.9541C9.30503 20.0577 9.01189 20.1085 8.65683 20.1085C8.22499 20.1085 7.87172 20.0456 7.59907 19.9208C7.32529 19.7951 7.08865 19.5742 6.88981 19.2578C6.69188 18.9417 6.59212 18.5376 6.59212 18.0447C6.59212 17.3874 6.76682 16.8815 7.11644 16.5292C7.46583 16.1759 7.96056 15.9994 8.59967 15.9994C9.09984 15.9994 9.49295 16.1001 9.77947 16.3028C10.0662 16.5052 10.2787 16.8159 10.4174 17.2348L9.33371 17.4762C9.2959 17.355 9.25604 17.2662 9.21436 17.2099C9.14603 17.1165 9.06176 17.0443 8.96291 16.9936C8.86315 16.9428 8.75199 16.9177 8.629 16.9177C8.35158 16.9177 8.13794 17.0295 7.99012 17.2534C7.87829 17.4199 7.8218 17.6807 7.8218 18.0365C7.8218 18.4775 7.88922 18.779 8.02246 18.9425C8.15662 19.1063 8.34429 19.1876 8.58549 19.1876C8.82032 19.1876 8.99798 19.122 9.11801 18.9897C9.23827 18.8583 9.32505 18.667 9.37971 18.4155L9.37999 18.4153ZM10.8372 18.7241L12.0049 18.651C12.03 18.8405 12.0817 18.9849 12.1594 19.0847C12.2851 19.2455 12.4664 19.3252 12.7012 19.3252C12.8759 19.3252 13.011 19.2844 13.1062 19.2022C13.2005 19.12 13.2476 19.0248 13.2476 18.9166C13.2476 18.8139 13.2032 18.7214 13.1126 18.6401C13.0219 18.5588 12.8131 18.482 12.4837 18.4098C11.9455 18.2887 11.5619 18.1288 11.3326 17.9281C11.1014 17.7274 10.9859 17.4723 10.9859 17.1616C10.9859 16.9573 11.0452 16.764 11.1634 16.5829C11.2818 16.4016 11.4592 16.2592 11.6968 16.1547C11.9344 16.0511 12.2598 15.9994 12.6732 15.9994C13.1809 15.9994 13.5684 16.0936 13.8346 16.2822C14.1008 16.4708 14.2589 16.7715 14.3099 17.1828L13.1531 17.2502C13.1226 17.0719 13.0579 16.9414 12.9588 16.8601C12.8609 16.7797 12.7249 16.7389 12.552 16.7389C12.4088 16.7389 12.3015 16.7685 12.2293 16.8295C12.1571 16.8897 12.1211 16.9637 12.1211 17.0505C12.1211 17.1133 12.1507 17.1698 12.2099 17.2206C12.2682 17.2732 12.4051 17.3213 12.6224 17.3666C13.1588 17.4821 13.5423 17.5996 13.7745 17.7181C14.0066 17.8365 14.1758 17.9825 14.2812 18.1581C14.3867 18.3328 14.4402 18.5289 14.4402 18.7462C14.4402 19.0004 14.3689 19.2354 14.2284 19.4497C14.0879 19.6652 13.8909 19.8278 13.6376 19.939C13.3852 20.0499 13.0661 20.1055 12.6814 20.1055C12.0066 20.1055 11.5385 19.9761 11.2788 19.7153C11.018 19.4554 10.8711 19.1254 10.8368 18.7241L10.8372 18.7241Z" fill="#104651"/>
</svg>
