<svg width="21" height="24" viewBox="0 0 21 24" fill="none" xmlns="http://www.w3.org/2000/svg">
<path fill-rule="evenodd" clip-rule="evenodd" d="M11.3076 6.40168C11.3076 6.84252 11.6641 7.20003 12.1174 7.20003H20.1902C20.6375 7.20003 21 6.84289 21 6.40168V0.797976C21 0.357136 20.6436 0 20.1902 0H12.1174C11.6705 0 11.3076 0.357136 11.3076 0.797976V6.40168ZM11.3076 23.2042C11.3076 23.6436 11.6641 24 12.1174 24H20.1902C20.6375 24 21 23.6391 21 23.2042V9.5959C21 9.15618 20.6436 8.79978 20.1902 8.79978H12.1174C11.6705 8.79978 11.3076 9.16065 11.3076 9.5959V23.2042ZM0 14.4042C0 14.8439 0.35644 15.2003 0.809794 15.2003H8.88255C9.32951 15.2003 9.69235 14.8395 9.69235 14.4042V0.795879C9.69235 0.356526 9.33591 0.000133514 8.88255 0.000133514H0.809794C0.362459 0.000133514 0 0.360992 0 0.795879V14.4042ZM0 23.202C0 23.6429 0.35644 24 0.809794 24H8.88255C9.32951 24 9.69235 23.6429 9.69235 23.202V17.5983C9.69235 17.1575 9.33591 16.8 8.88255 16.8H0.809794C0.362459 16.8 0 17.1571 0 17.5983V23.202Z" fill="#104651"/>
</svg>
