<svg width="12" height="15" viewBox="0 0 12 15" fill="none" xmlns="http://www.w3.org/2000/svg">
<path d="M11.0198 4.87653H0.933321C0.929315 4.9628 0.922125 5.04909 0.922125 5.12818V7.57454C0.922125 9.35221 0.918428 11.1309 0.923871 12.9088V12.9086C0.921612 13.3704 1.07363 13.8195 1.3559 14.1849C1.63826 14.5503 2.03444 14.8107 2.48175 14.925C2.59186 14.9538 2.70402 14.9757 2.81538 15.0001H9.14144C9.17195 14.9879 9.20338 14.9783 9.23553 14.9714C9.73195 14.9053 10.1877 14.6615 10.5182 14.2851C10.8487 13.9088 11.0316 13.4254 11.033 12.9244C11.0372 10.3181 11.0372 7.70961 11.033 5.09956C11.0342 5.02889 11.0249 4.96275 11.0198 4.87646L11.0198 4.87653ZM3.68142 9.1521V12.5718C3.68378 12.6385 3.67854 12.7054 3.66591 12.771C3.60664 13.0244 3.40048 13.1849 3.17235 13.1619C2.94432 13.1389 2.76046 12.9263 2.75449 12.6701C2.74905 12.44 2.75244 12.2099 2.75244 11.9798V9.93959V7.2383C2.75244 6.92194 2.97677 6.69186 3.25257 6.71261C3.49354 6.73068 3.67824 6.95245 3.67966 7.24035C3.68315 7.87832 3.6814 8.51534 3.6814 9.15208L3.68142 9.1521ZM6.4424 9.95421V12.5979C6.44435 12.6505 6.44116 12.7032 6.43295 12.7552C6.3818 13.0108 6.16866 13.184 5.93684 13.1624C5.71025 13.1412 5.51983 12.9298 5.51551 12.6735C5.50894 12.276 5.51325 11.8786 5.51325 11.4811V7.31462L5.51315 7.31472C5.51038 7.25247 5.51325 7.19023 5.52178 7.1286C5.56985 6.8715 5.77836 6.6972 6.01213 6.71385C6.24601 6.73059 6.43808 6.94742 6.44097 7.21027C6.4456 7.68913 6.44303 8.16799 6.44303 8.6483C6.44313 9.08319 6.44313 9.5185 6.44303 9.95432L6.4424 9.95421ZM9.20338 9.93839V12.5958C9.20553 12.653 9.20163 12.7103 9.19157 12.7666C9.13404 13.0254 8.92151 13.1894 8.68796 13.1617C8.45439 13.1341 8.27668 12.9173 8.27587 12.6492C8.2733 11.9115 8.27587 11.1741 8.27587 10.4364V7.33279V7.33289C8.27402 7.27527 8.27546 7.21775 8.28018 7.16033C8.30894 6.89861 8.51663 6.70621 8.75646 6.71373C8.98654 6.72061 9.1856 6.9245 9.20224 7.17789C9.21087 7.31132 9.20543 7.44681 9.20543 7.58052C9.20399 8.36651 9.20399 9.16172 9.20399 9.93824L9.20338 9.93839Z" fill="white"/>
<path d="M11.956 2.72154C11.9582 2.16503 11.6421 1.8455 11.0866 1.84518H8.5899V1.84528C8.6127 1.77359 8.62431 1.69881 8.62441 1.62352V0.735144C8.62431 0.540087 8.54665 0.353156 8.40871 0.215291C8.27076 0.0774258 8.08373 0 7.88878 0H4.06811C3.87315 0 3.68612 0.0774468 3.54817 0.215291C3.41023 0.353135 3.33257 0.540087 3.33247 0.735144V1.62321C3.33247 1.6986 3.34418 1.77348 3.36698 1.84528H0.814524C0.398641 1.84528 0.0805235 2.10412 0.0118145 2.50357C-0.0051334 2.60167 0.00113218 2.70489 0.00113218 2.80441C0.00113218 3.36174 0.315227 3.67615 0.872866 3.67615H6.88234H11.1521C11.5709 3.67615 11.8873 3.40405 11.9477 2.99392C11.9568 2.90343 11.9596 2.81243 11.956 2.72153L11.956 2.72154Z" fill="white"/>
</svg>
