<svg width="20" height="21" viewBox="0 0 20 21" fill="none" xmlns="http://www.w3.org/2000/svg">
<path d="M8.01123 0C9.27115 0 10.412 0.510707 11.2377 1.33649C12.0635 2.16223 12.5742 3.30306 12.5742 4.56298C12.5742 5.82291 12.0635 6.96373 11.2377 7.78948C10.412 8.61523 9.27115 9.12597 8.01123 9.12597C6.7513 9.12597 5.61048 8.61526 4.78473 7.78948C3.95898 6.96373 3.44824 5.82291 3.44824 4.56298C3.44824 3.30306 3.95895 2.16223 4.78473 1.33649C5.61048 0.510737 6.7513 0 8.01123 0Z" fill="#104651"/>
<path d="M0.304534 17.272C0.131129 17.2664 -0.00518384 17.1216 0.000151423 16.9479C0.0414157 15.7014 0.00293265 14.2776 0.345797 13.0869C0.990955 10.8466 3.36227 10.0393 5.37424 9.39814C5.46906 9.36221 5.57963 9.37264 5.66842 9.4357C7.02971 10.4031 8.99112 10.4036 10.3529 9.4357C10.4417 9.37241 10.5523 9.36198 10.6471 9.39814C12.523 9.996 14.7109 10.7381 15.5214 12.6515L14.7663 13.4379L11.6089 16.726L11.2524 17.3726C7.58188 17.4197 3.76459 17.3863 0.304089 17.272L0.304534 17.272Z" fill="#104651"/>
<path d="M17.2033 11.8261L19.0491 13.5984C19.1775 13.7217 19.1815 13.9257 19.0584 14.0539L17.5279 15.6479L15.2173 13.4293L16.7478 11.8354C16.8711 11.7069 17.0751 11.703 17.2033 11.8261ZM17.3046 15.8804L14.1518 19.164L11.8412 16.9454L14.994 13.6619L17.3046 15.8804ZM13.9033 19.3722C13.8954 19.3749 13.8876 19.3773 13.8797 19.3793L11.1899 20.2132C11.0199 20.2654 10.8398 20.1699 10.7876 19.9997C10.7652 19.9264 10.7703 19.8513 10.7967 19.7855L11.644 17.2026L13.9033 19.372L13.9033 19.3722Z" fill="#104651"/>
</svg>
