<svg width="15" height="16" viewBox="0 0 15 16" fill="none" xmlns="http://www.w3.org/2000/svg">
<path d="M4.28843 11.5363C4.44642 11.6943 4.7149 11.6943 4.88864 11.5363L11.1748 5.25014C11.3328 5.09215 11.3328 4.82366 11.1748 4.64993L10.3377 3.81283C10.1797 3.65484 9.9112 3.65484 9.73746 3.81283L3.46712 10.0832C3.30914 10.2412 3.30914 10.5096 3.46712 10.6834L4.28843 11.5363Z" fill="white"/>
<path d="M10.3692 9.62554L12.9595 7.03528C13.1175 6.87729 13.1175 6.6088 12.9595 6.43507L12.2171 5.69273C12.0592 5.53474 11.7907 5.53474 11.6169 5.69273L5.26762 12.042C5.1255 12.1842 5.10963 12.3895 5.20449 12.5475L5.50461 13.0687C5.42562 13.1477 5.31511 13.1951 5.20449 13.2109L3.1512 13.5583C2.85108 12.7686 2.23513 12.1526 1.44542 11.8525L1.79289 9.79925C1.80865 9.68864 1.85602 9.57814 1.93502 9.49913L2.45623 9.79925C2.62997 9.894 2.83532 9.86238 2.9617 9.73612L9.31101 3.38682C9.469 3.22883 9.469 2.96034 9.31101 2.7866L8.56868 2.04427C8.41069 1.88628 8.14221 1.88628 7.96847 2.04427L1.2401 8.77264C1.00323 9.00951 0.845238 9.30962 0.797855 9.64136L0.00814035 14.3954C-0.0234793 14.5692 0.03976 14.7429 0.150264 14.8534V14.8692H0.166018C0.260767 14.9639 0.387133 15.0113 0.513493 15.0113C0.545113 15.0113 0.576622 15.0113 0.608242 14.9955L5.36233 14.2058C5.69406 14.1585 5.99404 14.0005 6.23104 13.7636L10.3692 9.62554Z" fill="white"/>
<path d="M14.9494 4.44467C14.1439 2.45461 12.5486 0.859361 10.5585 0.0538521C10.3058 -0.0567615 10.0057 0.00647772 9.80044 0.21184L8.99496 1.01732C8.83697 1.17531 8.83697 1.4438 8.99496 1.61753L13.3858 6.00835C13.5438 6.16634 13.8122 6.16634 13.986 6.00835L14.7915 5.20287C14.981 5.01326 15.0599 4.71317 14.9494 4.44467Z" fill="white"/>
</svg>
