<svg width="12" height="15" viewBox="0 0 12 15" fill="none" xmlns="http://www.w3.org/2000/svg">
<path d="M9.07476 3.80459C8.60696 3.80459 8.26392 3.43034 8.26392 2.99375L8.26403 0H0.592541C0.28072 0 0 0.249504 0 0.592541V14.4075C0 14.7193 0.249504 15 0.592541 15H11.3825C11.6943 15 11.9751 14.7505 11.9751 14.4075V3.80459H9.07476ZM1.3409 1.43451C1.3409 1.24743 1.46565 1.12268 1.65272 1.12268H6.39283C6.5488 1.12268 6.70465 1.24744 6.70465 1.43451V2.6195C6.70465 2.77547 6.54868 2.93133 6.39283 2.93133L1.65272 2.93143C1.46564 2.93143 1.3409 2.77547 1.3409 2.61961V1.43451ZM0.904309 4.9584C0.904309 4.80243 1.06028 4.64658 1.21613 4.64658H10.5716C10.7276 4.64658 10.8834 4.80255 10.8834 4.9584C10.8834 5.11437 10.7275 5.27022 10.5716 5.27022H1.21613C1.06016 5.27022 0.904309 5.14547 0.904309 4.9584ZM0.904309 6.70473C0.904309 6.51765 1.06028 6.39291 1.21613 6.39291H10.5716C10.7276 6.39291 10.8834 6.51766 10.8834 6.70473C10.8834 6.8607 10.7275 7.01655 10.5716 7.01655H1.21613C1.06016 7.01655 0.904309 6.8918 0.904309 6.70473ZM6.64233 8.48227C6.64233 8.63824 6.51758 8.79409 6.33051 8.79409H1.21619C1.06022 8.79409 0.904365 8.63812 0.904365 8.48227C0.904365 8.29519 1.06033 8.17045 1.21619 8.17045H6.33051C6.51759 8.13923 6.64233 8.2952 6.64233 8.48227ZM10.6028 13.0041L10.291 13.846L9.51126 11.5385C9.23065 11.6008 8.98115 11.6008 8.73164 11.5385L7.95202 13.8773L7.64019 13.0354L6.86057 13.5032L7.73372 10.946C7.45311 10.6342 7.29713 10.2287 7.29713 9.76105C7.29713 8.73192 8.10797 7.92119 9.13699 7.92119C10.1661 7.92119 10.9768 8.73203 10.9768 9.76105C10.9768 10.2288 10.8209 10.6342 10.5403 10.946L11.4134 13.5032L10.6028 13.0041Z" fill="white"/>
</svg>
