<svg width="22" height="24" viewBox="0 0 22 24" fill="none" xmlns="http://www.w3.org/2000/svg">
<path d="M2.2918 8.35986L0.680664 9.90631H2.2918V8.35986Z" fill="#104651"/>
<path d="M15.1247 3.48975C15.1263 2.99233 15.2916 2.50902 15.5949 2.11475H2.74949C2.38487 2.11475 2.03496 2.25961 1.77719 2.51742C1.51942 2.77524 1.37451 3.12515 1.37451 3.48972V4.86472H15.1245L15.1247 3.48975Z" fill="#104651"/>
<path d="M11 0L9.75146 1.198H12.2486L11 0Z" fill="#104651"/>
<path d="M3.20801 5.78139V12.4401L10.9997 18.0501L18.7913 12.4401V3.48973C18.7913 2.99845 18.5292 2.54462 18.1038 2.2989C17.6784 2.05336 17.1542 2.05336 16.7288 2.2989C16.3034 2.54464 16.0413 2.99845 16.0413 3.48973V5.32306C16.0413 5.4446 15.9931 5.56123 15.9071 5.64717C15.8212 5.7331 15.7045 5.78139 15.583 5.78139H3.20801ZM15.1247 12.6564H5.95801V11.7397H15.1247V12.6564ZM15.1247 10.8231H5.95801V9.90639H15.1247V10.8231ZM15.1247 8.98973H5.95801V8.07306H15.1247V8.98973Z" fill="#104651"/>
<path d="M13.1367 17.6409L22.0001 23.2792V11.2588L13.1367 17.6409Z" fill="#104651"/>
<path d="M2.29157 10.8232H0.962402L2.29157 11.7802V10.8232Z" fill="#104651"/>
<path d="M19.7085 10.8232V11.7802L21.0377 10.8232H19.7085Z" fill="#104651"/>
<path d="M11.2676 18.9873C11.1078 19.1023 10.8921 19.1023 10.7323 18.9873L9.66527 18.2188L1.1167 23.6569H20.8837L12.3351 18.2188L11.2676 18.9873Z" fill="#104651"/>
<path d="M0 11.2593V23.2797L8.86338 17.6414L0 11.2593Z" fill="#104651"/>
<path d="M19.7085 8.35986V9.90631H21.3196L19.7085 8.35986Z" fill="#104651"/>
</svg>
