<svg width="23" height="19" viewBox="0 0 23 19" fill="none" xmlns="http://www.w3.org/2000/svg">
<path d="M0 1.93875C0 3.01332 0.864219 3.87749 1.93875 3.87749H20.2517C21.3263 3.87749 22.1905 3.01327 22.1905 1.93875C22.1905 0.864177 21.3263 0 20.2517 0H1.93875C0.864177 0 0 0.864386 0 1.93875Z" fill="#104651"/>
<path d="M1.93875 11.2588H20.2517C21.3263 11.2588 22.1905 10.3946 22.1905 9.32009C22.1905 8.24557 21.3263 7.38135 20.2517 7.38135H1.93875C0.864177 7.38135 0 8.24557 0 9.32009C0 10.3946 0.864219 11.2588 1.93875 11.2588Z" fill="#104651"/>
<path d="M1.93875 18.6402H20.2517C21.3263 18.6402 22.1905 17.776 22.1905 16.7014C22.1905 15.6269 21.3263 14.7627 20.2517 14.7627H1.93875C0.864177 14.7627 0 15.6269 0 16.7014C0 17.7758 0.864219 18.6402 1.93875 18.6402Z" fill="#104651"/>
</svg>
