<svg width="11" height="15" viewBox="0 0 11 15" fill="none" xmlns="http://www.w3.org/2000/svg">
<path d="M6.46911 5.17156C6.46911 5.70698 6.03511 6.14098 5.49969 6.14098C4.96427 6.14098 4.53027 5.70698 4.53027 5.17156C4.53027 4.63615 4.96427 4.20215 5.49969 4.20215C6.03511 4.20215 6.46911 4.63615 6.46911 5.17156Z" fill="white"/>
<path d="M5.49969 8.19336C4.51215 8.19336 3.68478 8.89229 3.48584 9.82106H7.51349C7.31463 8.89227 6.48725 8.19336 5.49971 8.19336H5.49969Z" fill="white"/>
<path d="M0.322998 0.597706V14.4028H9.09492L10.6769 12.8209V0.597656L0.322998 0.597706ZM5.49992 3.33926C6.50989 3.33926 7.33169 4.16106 7.33169 5.17102C7.33169 6.18136 6.50989 7.00326 5.49992 7.00326C4.48995 7.00326 3.66815 6.18146 3.66815 5.17102C3.66815 4.16115 4.48995 3.33926 5.49992 3.33926ZM8.42192 10.6846H2.57816V10.2532C2.57816 8.64183 3.88876 7.33116 5.50017 7.33116C7.11157 7.33116 8.42217 8.64176 8.42217 10.2532L8.42192 10.6846Z" fill="white"/>
</svg>
