<svg width="664" height="462" viewBox="0 0 664 462" fill="none" xmlns="http://www.w3.org/2000/svg">
<path d="M387.347 310.204C387.347 310.905 387.239 311.582 387.048 312.217C386.712 313.321 386.111 314.303 385.317 315.101C384.06 316.354 382.332 317.128 380.42 317.128H340.072C336.848 317.128 334.137 314.928 333.367 311.947C333.221 311.391 333.145 310.805 333.145 310.204C333.145 308.292 333.922 306.56 335.171 305.311C336.428 304.062 338.156 303.284 340.068 303.284H380.416C384.241 303.284 387.343 306.383 387.343 310.204H387.347Z" fill="#ABC7F2"/>
<path d="M403.444 304.127C402.913 304.874 400.737 305.845 400.737 307.178L400.83 312.332L400.844 312.939C400.844 313.894 402.524 314.865 402.805 315.563C403.107 316.302 402.614 317.135 401.875 317.135H377.213C377.175 317.135 377.134 317.135 377.095 317.131C374.951 317.076 373.16 315.427 372.671 313.217C372.58 312.828 372.535 312.415 372.535 311.992V308.424C372.535 305.582 374.631 303.284 377.213 303.284H403.062C403.457 303.284 403.686 303.78 403.444 304.127Z" fill="#ABC7F2"/>
<path d="M401.872 317.135H377.21C377.172 317.135 377.13 317.135 377.092 317.131H340.072C336.848 317.131 334.138 314.931 333.367 311.95C333.367 311.95 336.942 314.077 346.802 314.397C356.571 314.709 368.534 314.813 372.667 313.217C372.705 313.203 372.74 313.185 372.778 313.175C374.423 312.505 380.476 312.266 387.049 312.221C391.87 312.186 396.971 312.255 400.827 312.332L400.841 312.939C400.841 313.893 402.521 314.865 402.802 315.563C403.104 316.302 402.611 317.135 401.872 317.135Z" fill="#94AAE6"/>
<path d="M401.889 307.72V312.693C401.889 313.106 401.948 313.498 402.045 313.862C402.146 314.251 402.292 314.608 402.444 314.928C402.757 315.58 402.239 316.316 401.466 316.316H375.485C372.761 316.316 370.554 314.286 370.554 311.777V308.58C370.585 306.102 372.775 304.103 375.485 304.103H402.711C403.131 304.103 403.367 304.541 403.114 304.846C402.559 305.509 401.889 306.55 401.889 307.723V307.72Z" fill="white"/>
<path opacity="0.2" d="M401.466 316.316H375.485C372.761 316.316 370.554 314.286 370.554 311.777V308.58C372.147 310.166 375.78 312.752 382.957 313.547C389.478 314.265 397.127 314.098 402.045 313.866C402.146 314.255 402.292 314.612 402.444 314.931C402.757 315.584 402.239 316.32 401.466 316.32V316.316Z" fill="#B2D0F6"/>
<path d="M377.498 289.829C377.498 290.301 377.425 290.759 377.296 291.19C377.071 291.936 376.661 292.599 376.127 293.14C375.276 293.987 374.107 294.511 372.816 294.511H345.541C343.362 294.511 341.529 293.022 341.009 291.009C340.911 290.634 340.859 290.239 340.859 289.829C340.859 288.535 341.383 287.365 342.23 286.522C343.08 285.675 344.25 285.151 345.541 285.151H372.816C375.401 285.151 377.498 287.247 377.498 289.829Z" fill="#ABC7F2"/>
<path d="M388.378 285.72C388.021 286.223 386.549 286.883 386.549 287.782L386.612 291.266L386.619 291.675C386.619 292.321 387.754 292.977 387.945 293.449C388.149 293.949 387.816 294.511 387.316 294.511H370.644C370.62 294.511 370.589 294.511 370.564 294.511C369.114 294.473 367.902 293.359 367.573 291.866C367.514 291.603 367.482 291.325 367.482 291.037V288.625C367.482 286.706 368.898 285.151 370.644 285.151H388.118C388.385 285.151 388.538 285.488 388.375 285.72H388.378Z" fill="#ABC7F2"/>
<path d="M387.315 294.511H370.643C370.619 294.511 370.588 294.511 370.563 294.511H345.537C343.358 294.511 341.525 293.022 341.005 291.009C341.005 291.009 343.42 292.449 350.087 292.664C356.692 292.876 364.778 292.946 367.572 291.866C367.596 291.859 367.62 291.845 367.645 291.838C368.759 291.384 372.847 291.224 377.293 291.193C380.551 291.169 384.001 291.217 386.607 291.266L386.614 291.675C386.614 292.321 387.749 292.977 387.94 293.449C388.145 293.949 387.812 294.511 387.312 294.511H387.315Z" fill="#9CBDE8"/>
<path d="M387.326 288.15V291.513C387.326 291.79 387.368 292.057 387.434 292.304C387.503 292.568 387.6 292.807 387.704 293.022C387.916 293.463 387.565 293.959 387.041 293.959H369.481C367.641 293.959 366.146 292.585 366.146 290.891V288.729C366.166 287.056 367.648 285.703 369.481 285.703H387.885C388.169 285.703 388.329 285.998 388.155 286.206C387.781 286.654 387.326 287.358 387.326 288.15Z" fill="white"/>
<path opacity="0.2" d="M387.041 293.959H369.481C367.641 293.959 366.146 292.585 366.146 290.891V288.729C367.225 289.801 369.678 291.551 374.53 292.085C378.938 292.571 384.109 292.456 387.434 292.3C387.503 292.564 387.6 292.803 387.704 293.019C387.916 293.459 387.565 293.956 387.041 293.956V293.959Z" fill="#B2D0F6"/>
<path d="M382.301 298.887C382.301 299.331 382.221 299.762 382.079 300.164C381.829 300.865 381.381 301.487 380.788 301.993C379.851 302.788 378.56 303.281 377.133 303.281H347.044C344.639 303.281 342.619 301.886 342.043 299.994C341.935 299.64 341.88 299.269 341.88 298.887C341.88 297.673 342.459 296.576 343.393 295.781C344.33 294.986 345.621 294.497 347.047 294.497H377.137C379.99 294.497 382.301 296.465 382.301 298.887Z" fill="#94AAE6"/>
<path d="M394.306 295.031C393.91 295.503 392.29 296.121 392.29 296.964L392.359 300.234L392.369 300.619C392.369 301.223 393.622 301.841 393.831 302.285C394.056 302.753 393.688 303.284 393.136 303.284H374.746C374.718 303.284 374.687 303.284 374.656 303.284C373.056 303.25 371.72 302.202 371.356 300.803C371.29 300.556 371.255 300.293 371.255 300.025V297.763C371.255 295.962 372.817 294.504 374.743 294.504H394.021C394.316 294.504 394.486 294.82 394.306 295.038V295.031Z" fill="#94AAE6"/>
<path d="M393.136 303.284H374.746C374.718 303.284 374.687 303.284 374.656 303.284H347.048C344.643 303.284 342.623 301.889 342.047 299.998C342.047 299.998 344.712 301.348 352.066 301.549C359.354 301.747 368.274 301.813 371.355 300.803C371.383 300.796 371.407 300.785 371.439 300.775C372.667 300.352 377.179 300.199 382.083 300.171C385.678 300.15 389.485 300.192 392.359 300.241L392.369 300.626C392.369 301.23 393.622 301.847 393.83 302.292C394.056 302.76 393.688 303.291 393.136 303.291V303.284Z" fill="#7A94D2"/>
<path d="M393.147 297.312V300.466C393.147 300.727 393.192 300.976 393.265 301.209C393.341 301.455 393.449 301.681 393.563 301.886C393.796 302.299 393.411 302.764 392.831 302.764H373.455C371.425 302.764 369.776 301.476 369.776 299.887V297.86C369.797 296.288 371.435 295.018 373.455 295.018H393.761C394.073 295.018 394.25 295.295 394.063 295.49C393.65 295.909 393.15 296.572 393.15 297.315L393.147 297.312Z" fill="white"/>
<path opacity="0.2" d="M392.831 302.764H373.455C371.425 302.764 369.776 301.476 369.776 299.887V297.86C370.967 298.866 373.674 300.508 379.029 301.011C383.894 301.466 389.596 301.362 393.265 301.212C393.341 301.459 393.449 301.684 393.563 301.889C393.796 302.302 393.411 302.767 392.831 302.767V302.764Z" fill="#B2D0F6"/>
<path opacity="0.4" d="M445.444 317.086H327.468V459.474H445.444V317.086Z" fill="#ABC7F2"/>
<path d="M447.363 317.087H324.819V320.776H447.363V317.087Z" fill="#ABC7F2"/>
<path d="M441.206 365.944H330.133V324.406H441.206V365.944ZM330.754 365.313H440.589V325.037H330.754V365.313Z" fill="#ABC7F2"/>
<path d="M441.206 410.797H330.133V369.262H441.206V410.797ZM330.754 410.165H440.589V369.89H330.754V410.165Z" fill="#ABC7F2"/>
<path d="M441.206 455.65H330.133V414.115H441.206V455.65ZM330.754 455.018H440.589V414.743H330.754V455.018Z" fill="#ABC7F2"/>
<path d="M388.899 332.641H382.44C381.413 332.641 380.58 331.794 380.58 330.75C380.58 329.705 381.413 328.858 382.44 328.858H388.899C389.926 328.858 390.759 329.705 390.759 330.75C390.759 331.794 389.926 332.641 388.899 332.641ZM382.44 329.49C381.757 329.49 381.201 330.056 381.201 330.75C381.201 331.444 381.757 332.01 382.44 332.01H388.899C389.583 332.01 390.138 331.444 390.138 330.75C390.138 330.056 389.583 329.49 388.899 329.49H382.44Z" fill="#ABC7F2"/>
<path d="M388.899 376.3H382.44C381.413 376.3 380.58 375.453 380.58 374.409C380.58 373.364 381.413 372.517 382.44 372.517H388.899C389.926 372.517 390.759 373.364 390.759 374.409C390.759 375.453 389.926 376.3 388.899 376.3ZM382.44 373.149C381.757 373.149 381.201 373.715 381.201 374.409C381.201 375.103 381.757 375.669 382.44 375.669H388.899C389.583 375.669 390.138 375.103 390.138 374.409C390.138 373.715 389.583 373.149 388.899 373.149H382.44Z" fill="#ABC7F2"/>
<path d="M388.899 422.715H382.44C381.413 422.715 380.58 421.868 380.58 420.824C380.58 419.779 381.413 418.932 382.44 418.932H388.899C389.926 418.932 390.759 419.779 390.759 420.824C390.759 421.868 389.926 422.715 388.899 422.715ZM382.44 419.564C381.757 419.564 381.201 420.129 381.201 420.824C381.201 421.518 381.757 422.083 382.44 422.083H388.899C389.583 422.083 390.138 421.518 390.138 420.824C390.138 420.129 389.583 419.564 388.899 419.564H382.44Z" fill="#ABC7F2"/>
<g opacity="0.7">
<path d="M44.8739 397.467C44.8739 397.467 65.697 382.759 62.5561 367.325C59.4153 351.892 50.4857 354.894 50.9126 343.403C51.3395 331.912 40.7509 327.015 32.9839 327.12C25.2169 327.22 16.2908 310.964 6.66707 314.889C-2.95665 318.815 11.1926 330.083 8.15245 336.851C5.11575 343.618 5.67103 351.854 15.201 357.788C24.7311 363.723 5.88273 383.654 44.8739 397.467Z" fill="#79A671"/>
<path d="M6.37632 315.427C10.9053 318.794 14.9832 322.778 18.714 327.001C23.8364 332.797 28.3134 339.172 32.0199 345.964C35.886 353.041 38.9054 360.565 40.8454 368.394C42.657 375.693 43.7919 383.182 44.3576 390.678C44.8677 397.435 45.0378 404.425 43.7676 411.113C43.6357 411.814 43.4795 412.508 43.3025 413.198C43.2435 413.431 43.5975 413.552 43.6565 413.32C45.2877 406.986 45.2564 400.208 44.9233 393.722C44.5311 386.076 43.4969 378.438 41.8345 370.966C40.0992 363.178 37.4165 355.678 33.8072 348.557C30.2222 341.484 25.8077 334.824 20.7095 328.75C16.8677 324.169 12.6336 319.859 7.93457 316.153C7.49035 315.802 7.03918 315.458 6.58801 315.122C6.39366 314.98 6.18544 315.288 6.37632 315.431V315.427Z" fill="#288B54"/>
<path d="M60.3836 361.273C58.0272 370.289 50.5031 376.366 43.5135 381.884C43.4545 381.929 43.5308 382.016 43.5864 381.971C50.5933 376.442 58.1313 370.345 60.4912 361.311C60.5086 361.242 60.401 361.203 60.3836 361.273Z" fill="#288B54"/>
<path d="M42.0594 372.837C37.7143 372.722 33.4699 371.414 29.5239 369.651C25.5154 367.86 21.7326 365.552 18.2447 362.89C18.1857 362.845 18.1233 362.939 18.1788 362.984C21.6736 365.653 25.4669 367.964 29.4857 369.758C33.4386 371.525 37.6969 372.833 42.0489 372.948C42.1218 372.948 42.1322 372.837 42.0559 372.833L42.0594 372.837Z" fill="#288B54"/>
<path d="M35.6076 327.178C36.3329 333.495 34.7885 339.964 32.0017 345.624C31.9705 345.69 32.0781 345.728 32.1093 345.662C34.9065 339.985 36.4509 333.495 35.7221 327.158C35.7152 327.085 35.6006 327.106 35.611 327.178H35.6076Z" fill="#288B54"/>
<path d="M39.5055 328.261C39.6964 332.013 39.384 335.778 38.5511 339.443C37.7425 343.018 36.5799 346.652 33.9735 349.345C33.9215 349.397 33.9978 349.484 34.0464 349.431C36.618 346.773 37.7841 343.233 38.6032 339.707C39.4743 335.962 39.8074 332.11 39.6131 328.272C39.6096 328.199 39.4951 328.188 39.4986 328.265L39.5055 328.261Z" fill="#288B54"/>
<path d="M38.0263 358.833C28.59 358.014 19.4626 353.992 12.3133 347.807C10.2622 346.03 8.37776 344.069 6.69803 341.939C6.65292 341.88 6.56615 341.956 6.61127 342.011C12.5389 349.518 21.0174 354.974 30.2142 357.532C32.765 358.243 35.3783 358.715 38.0194 358.944C38.0922 358.951 38.0992 358.836 38.0263 358.829V358.833Z" fill="#288B54"/>
<path d="M36.3996 355.095C27.5567 353.797 19.3247 349.365 12.755 343.393C10.9365 341.741 9.24634 339.953 7.69155 338.052C7.64643 337.996 7.5562 338.069 7.60479 338.124C13.2513 345.031 20.817 350.549 29.2746 353.468C31.5895 354.266 33.9702 354.852 36.3961 355.21C36.469 355.22 36.476 355.106 36.4031 355.095H36.3996Z" fill="#288B54"/>
<path d="M23.9022 322.514C24.2006 325.297 23.3538 328.226 21.9968 330.642C21.9621 330.704 22.0558 330.77 22.0906 330.708C23.4614 328.265 24.3151 325.311 24.0132 322.497C24.0063 322.424 23.8917 322.444 23.9022 322.517V322.514Z" fill="#288B54"/>
<path d="M16.242 323.951C12.2509 325.096 7.92319 324.624 4.27568 322.639C4.21322 322.604 4.14727 322.698 4.20974 322.733C7.88154 324.732 12.2405 325.218 16.2593 324.065C16.3288 324.044 16.3079 323.933 16.2385 323.954L16.242 323.951Z" fill="#288B54"/>
<path d="M52.4988 350.535C50.7219 353.454 49.122 356.473 47.4076 359.426C45.7591 362.265 43.6525 364.927 40.6818 366.451C40.6158 366.485 40.6644 366.59 40.7303 366.555C43.5762 365.094 45.6515 362.595 47.2688 359.888C49.0978 356.824 50.7358 353.648 52.5925 350.597C52.6307 350.535 52.537 350.469 52.4988 350.532V350.535Z" fill="#288B54"/>
<path d="M19.4174 376.779C24.5434 382.124 31.5156 385.58 38.4185 388.02C40.4036 388.721 42.4165 389.332 44.4537 389.859C44.5231 389.877 44.5613 389.769 44.4919 389.752C39.942 388.575 35.4859 386.979 31.2623 384.907C26.9658 382.8 22.8289 380.177 19.5042 376.706C19.4521 376.654 19.3654 376.727 19.4174 376.779Z" fill="#288B54"/>
<path d="M6.20869 358.226C4.5602 356.449 3.72034 356.466 2.936 357.105C2.15167 357.743 1.82544 358.781 2.75207 360.138C4.99749 363.414 9.14474 365.805 9.66879 365.375C10.0505 365.063 8.50269 360.7 6.20522 358.229L6.20869 358.226Z" fill="#84B884"/>
<path d="M10.0817 365.75C7.23239 363.428 5.71578 359.867 2.77626 357.639C2.74849 357.618 2.78666 357.58 2.81443 357.601C5.75395 359.829 7.27403 363.39 10.1198 365.711C10.1476 365.732 10.1094 365.774 10.0817 365.75Z" fill="#288B54"/>
<path d="M6.11911 361.287C6.63274 360.738 6.96939 359.923 6.95898 359.17C6.95898 359.135 7.0145 359.132 7.0145 359.17C7.02145 359.937 6.68134 360.77 6.15729 361.325C6.133 361.349 6.09481 361.311 6.11911 361.287Z" fill="#288B54"/>
<path d="M5.13679 359.992C4.30387 360.19 3.40501 360.107 2.58944 359.86C2.55473 359.85 2.56862 359.798 2.60332 359.808C3.40848 360.051 4.29692 360.138 5.1229 359.94C5.15761 359.933 5.17149 359.985 5.13679 359.992Z" fill="#288B54"/>
<path d="M6.61797 358.725C6.5208 359.513 6.27092 360.235 5.85793 360.912C5.84058 360.943 5.792 360.915 5.80935 360.884C6.21887 360.214 6.46874 359.489 6.56245 358.712C6.56592 358.677 6.62145 358.691 6.61451 358.725H6.61797Z" fill="#288B54"/>
<path d="M56.5941 400.83C56.5941 400.83 43.5173 387.84 47.6125 377.216C51.7077 366.59 57.7151 369.803 58.791 361.561C59.8668 353.318 68.0052 351.101 73.5302 352.107C79.0553 353.114 87.3741 342.598 93.7633 346.551C100.152 350.504 88.7102 356.841 90.0637 362.029C91.4172 367.221 90.029 373.024 82.5223 376.109C75.0156 379.194 86.0553 395.669 56.5976 400.83H56.5941Z" fill="#8CB685"/>
<path d="M93.902 346.971C90.2683 348.828 86.8846 351.177 83.716 353.738C79.3675 357.254 75.4111 361.262 71.951 365.656C68.3451 370.237 65.2876 375.238 62.9624 380.586C60.7933 385.573 59.0823 390.776 57.7774 396.051C56.6009 400.805 55.6396 405.768 55.7403 410.689C55.7507 411.203 55.7784 411.72 55.8235 412.23C55.8374 412.404 55.5702 412.449 55.5563 412.272C55.1537 407.562 55.9901 402.732 57.0104 398.147C58.2112 392.743 59.8632 387.423 61.949 382.297C64.1215 376.953 66.9361 371.931 70.365 367.287C73.773 362.675 77.719 358.458 82.0849 354.741C85.3749 351.937 88.9114 349.372 92.7046 347.297C93.0621 347.099 93.4265 346.908 93.7909 346.724C93.9471 346.645 94.0581 346.891 93.902 346.971Z" fill="#288B54"/>
<path d="M49.8895 373.163C50.4864 379.875 55.1196 385.112 59.4403 389.884C59.475 389.922 59.4126 389.977 59.3779 389.936C55.0467 385.153 50.4066 379.899 49.8097 373.173C49.8062 373.121 49.886 373.107 49.893 373.159L49.8895 373.163Z" fill="#288B54"/>
<path d="M61.5637 383.609C64.6768 384.05 67.8592 383.626 70.882 382.845C73.9569 382.051 76.9277 380.86 79.7353 379.382C79.7839 379.358 79.8186 379.434 79.77 379.458C76.9554 380.94 73.9777 382.134 70.8959 382.929C67.8662 383.713 64.6733 384.133 61.5533 383.692C61.5013 383.685 61.5082 383.602 61.5603 383.609H61.5637Z" fill="#288B54"/>
<path d="M71.6497 351.833C70.3725 356.251 70.6952 361.047 72.0036 365.417C72.0175 365.469 71.9377 365.479 71.9203 365.43C70.6085 361.047 70.2892 356.234 71.5698 351.805C71.5837 351.753 71.6635 351.784 71.6462 351.833H71.6497Z" fill="#288B54"/>
<path d="M68.7444 352.135C68.1579 354.786 67.9289 357.507 68.0781 360.221C68.2273 362.866 68.616 365.597 70.15 367.828C70.1812 367.874 70.1153 367.926 70.0875 367.88C68.5744 365.677 68.1683 363.011 68.0052 360.398C67.8352 357.625 68.0607 354.835 68.6611 352.124C68.6715 352.072 68.7548 352.079 68.7444 352.131V352.135Z" fill="#288B54"/>
<path d="M66.1204 374.11C72.9469 374.662 79.9365 372.892 85.7773 369.342C87.4536 368.321 89.0327 367.148 90.4868 365.833C90.525 365.798 90.5805 365.861 90.5389 365.895C85.4095 370.535 78.7079 373.406 71.8432 374.121C69.9379 374.318 68.0187 374.346 66.11 374.19C66.0579 374.186 66.0649 374.103 66.1169 374.107L66.1204 374.11Z" fill="#288B54"/>
<path d="M67.7312 371.639C74.1932 371.778 80.5929 369.605 85.9964 366.138C87.4922 365.18 88.9117 364.108 90.2513 362.938C90.2929 362.904 90.345 362.966 90.3034 363.001C85.4481 367.245 79.3886 370.272 73.0098 371.334C71.2641 371.625 69.4942 371.757 67.7242 371.719C67.6722 371.719 67.6791 371.635 67.7312 371.635V371.639Z" fill="#288B54"/>
<path d="M80.5576 349.914C80.0093 351.861 80.2626 354.051 80.9393 355.935C80.9567 355.984 80.8838 356.018 80.863 355.97C80.1793 354.065 79.926 351.854 80.4812 349.883C80.4951 349.831 80.5749 349.862 80.5576 349.91V349.914Z" fill="#288B54"/>
<path d="M85.8437 351.857C88.5507 353.152 91.6915 353.336 94.5304 352.36C94.579 352.343 94.6137 352.419 94.5651 352.437C91.7054 353.422 88.5403 353.242 85.8125 351.937C85.7639 351.913 85.7917 351.836 85.8403 351.861L85.8437 351.857Z" fill="#288B54"/>
<path d="M56.8026 366.454C57.7188 368.748 58.4962 371.094 59.3638 373.406C60.1967 375.627 61.3802 377.779 63.3132 379.222C63.3549 379.254 63.3098 379.323 63.2646 379.292C61.4114 377.907 60.2314 375.877 59.4054 373.753C58.4684 371.348 57.6841 368.887 56.7262 366.489C56.7054 366.44 56.7817 366.406 56.8026 366.454Z" fill="#288B54"/>
<path d="M77.2299 389.141C72.9334 392.337 67.5472 393.962 62.331 394.871C60.8317 395.131 59.3221 395.325 57.8055 395.457C57.7534 395.461 57.7395 395.381 57.7916 395.374C61.1788 395.083 64.5452 394.479 67.804 393.51C71.1183 392.525 74.3841 391.15 77.1744 389.079C77.216 389.047 77.2715 389.11 77.2264 389.141H77.2299Z" fill="#288B54"/>
<path d="M33.0922 396.953C33.0922 396.953 38.815 386.705 34.4422 380.919C30.0694 375.134 26.9563 378.157 24.8497 373.298C22.7431 368.439 17.3708 368.512 14.164 370.102C10.9573 371.688 4.01973 366.711 0.802572 370.254C-2.41459 373.798 5.70292 375.665 5.78622 379.08C5.86951 382.495 7.74011 385.806 12.8765 386.375C18.0128 386.944 14.1501 398.969 33.0887 396.953H33.0922Z" fill="#A1C58E"/>
<path d="M0.791595 370.536C3.34242 371.032 5.8273 371.879 8.21501 372.889C11.4946 374.277 14.6216 376.036 17.5125 378.119C20.5249 380.288 23.2735 382.814 25.637 385.677C27.8407 388.35 29.8016 391.234 31.5264 394.232C33.0812 396.936 34.5423 399.806 35.344 402.836C35.4273 403.152 35.5001 403.471 35.5661 403.794C35.5869 403.901 35.757 403.884 35.7361 403.773C35.1531 400.819 33.7927 398.008 32.3663 395.381C30.6831 392.285 28.7361 389.318 26.5601 386.545C24.2904 383.654 21.6875 381.076 18.7723 378.834C15.8779 376.609 12.7197 374.721 9.39498 373.211C6.88927 372.073 4.27251 371.126 1.58633 370.522C1.33299 370.466 1.07618 370.411 0.822828 370.362C0.715242 370.341 0.687476 370.511 0.798532 370.532L0.791595 370.536Z" fill="#288B54"/>
<path d="M32.3356 378.837C33.1477 383.05 31.2354 387.069 29.4273 390.751C29.4134 390.783 29.462 390.803 29.4759 390.772C31.2875 387.083 33.2032 383.05 32.3876 378.83C32.3807 378.795 32.3286 378.802 32.3356 378.837Z" fill="#288B54"/>
<path d="M27.0253 387.284C25.1964 388.1 23.1765 388.402 21.1879 388.454C19.1681 388.506 17.1378 388.301 15.1596 387.888C15.1249 387.881 15.118 387.933 15.1527 387.94C17.1344 388.353 19.1681 388.558 21.1949 388.506C23.1869 388.454 25.2172 388.152 27.0461 387.333C27.0774 387.319 27.0565 387.27 27.0253 387.284Z" fill="#288B54"/>
<path d="M15.2678 369.606C16.8261 372.084 17.4681 375.079 17.4369 377.983C17.4369 378.018 17.4889 378.011 17.4889 377.976C17.5202 375.061 16.8712 372.059 15.3095 369.574C15.2921 369.547 15.2505 369.574 15.2678 369.606Z" fill="#288B54"/>
<path d="M17.0998 369.279C17.9258 370.799 18.5436 372.427 18.9288 374.114C19.3036 375.759 19.5431 377.497 18.9982 379.136C18.9878 379.167 19.0364 379.188 19.0468 379.156C19.5847 377.543 19.3661 375.839 19.0051 374.211C18.6234 372.483 17.9952 370.817 17.1519 369.262C17.1345 369.234 17.0859 369.252 17.1033 369.283L17.0998 369.279Z" fill="#288B54"/>
<path d="M22.5658 382.269C18.4845 383.807 13.893 383.949 9.69373 382.804C8.48946 382.474 7.31643 382.033 6.19545 381.485C6.16422 381.471 6.1434 381.52 6.17463 381.534C10.1275 383.474 14.7364 384.053 19.0641 383.286C20.2649 383.075 21.4449 382.752 22.5867 382.322C22.6179 382.311 22.6006 382.259 22.5658 382.273V382.269Z" fill="#288B54"/>
<path d="M21.146 381.041C17.2139 382.259 12.914 382.054 8.99923 380.881C7.91643 380.555 6.85793 380.149 5.83412 379.67C5.80289 379.656 5.78207 379.705 5.8133 379.719C9.53022 381.464 13.7712 382.252 17.8629 381.78C18.9839 381.652 20.0875 381.423 21.1668 381.086C21.1981 381.076 21.1807 381.027 21.146 381.038V381.041Z" fill="#288B54"/>
<path d="M9.47875 369.994C10.1555 371.091 10.388 372.476 10.3047 373.749C10.3047 373.784 10.3533 373.791 10.3568 373.756C10.4401 372.469 10.2076 371.074 9.5204 369.963C9.50305 369.935 9.4614 369.963 9.47875 369.994Z" fill="#288B54"/>
<path d="M6.58403 372.115C5.15418 373.385 3.26276 374.048 1.35398 373.947C1.31928 373.947 1.31233 373.999 1.34703 373.999C3.26969 374.1 5.17501 373.433 6.61527 372.156C6.63957 372.135 6.60832 372.09 6.58403 372.115Z" fill="#288B54"/>
<path d="M26.9285 375.943C26.7689 377.508 26.7064 379.08 26.5815 380.649C26.4635 382.155 26.1164 383.678 25.1863 384.904C25.1655 384.931 25.2072 384.963 25.228 384.938C26.1199 383.765 26.4843 382.315 26.6162 380.871C26.7654 379.233 26.814 377.591 26.9806 375.953C26.9806 375.918 26.932 375.911 26.9285 375.946V375.943Z" fill="#288B54"/>
<path d="M18.408 393.424C21.6009 394.625 25.1825 394.673 28.535 394.312C29.4998 394.208 30.4576 394.062 31.4086 393.875C31.4433 393.868 31.4363 393.816 31.4016 393.823C29.2777 394.239 27.1086 394.461 24.943 394.441C22.7392 394.42 20.5007 394.153 18.4289 393.372C18.3976 393.361 18.3768 393.406 18.408 393.42V393.424Z" fill="#288B54"/>
<path d="M27.095 459.242H54.6023C60.3355 459.242 65.1908 454.473 65.9855 448.067L71.2642 405.518H11.6582L17.3776 449.757C18.0821 455.202 22.219 459.242 27.095 459.242Z" fill="#ABC7F2"/>
<path d="M12.1649 409.069H71.816C73.1327 409.069 74.2002 408.001 74.2002 406.685V404.665C74.2002 403.348 73.1327 402.281 71.816 402.281H12.1649C10.8481 402.281 9.78062 403.348 9.78062 404.665V406.685C9.78062 408.001 10.8481 409.069 12.1649 409.069Z" fill="#ABC7F2"/>
<path opacity="0.5" d="M69.3446 409.069C69.3446 409.069 61.7338 411.991 41.9866 412.241C22.2429 412.491 15.0693 409.069 15.0693 409.069H69.3411H69.3446Z" fill="#4B83DB"/>
</g>
<path d="M311.76 455.99V459.242H296.26L294.477 452.946L311.76 455.99Z" fill="#29274F"/>
<path d="M318.114 419.879C318.114 419.879 323.896 437.176 332.68 442.316C339.763 446.463 353.305 447.085 356.915 455.324C357.72 457.156 356.397 459.245 354.471 459.245H318.114C318.114 459.245 304.885 455.407 298.641 456.341C292.398 457.274 292.696 441.508 294.48 435.681C296.264 429.854 294.779 419.879 294.779 419.879H318.114Z" fill="#383463"/>
<path d="M140.106 348.255H124.384C119.31 348.255 115.156 344.101 115.156 339.027C115.156 333.953 119.31 329.799 124.384 329.799H140.106C145.18 329.799 149.334 333.953 149.334 339.027C149.334 344.101 145.18 348.255 140.106 348.255Z" fill="#51497A"/>
<path d="M134.935 331.971H128.209V441.57H134.935V331.971Z" fill="#51497A"/>
<path d="M162.581 447.498C162.456 447.498 162.331 447.484 162.206 447.456C134.4 441.122 102.565 447.4 102.246 447.466C101.337 447.65 100.452 447.06 100.268 446.154C100.084 445.245 100.674 444.36 101.58 444.176C101.906 444.11 134.428 437.686 162.949 444.187C163.851 444.391 164.417 445.294 164.212 446.196C164.035 446.974 163.344 447.501 162.577 447.501L162.581 447.498Z" fill="#51497A"/>
<path d="M109.683 459.167C113.336 458.719 115.934 455.395 115.486 451.743C115.038 448.09 111.714 445.492 108.061 445.94C104.408 446.387 101.81 449.712 102.258 453.364C102.706 457.017 106.03 459.615 109.683 459.167Z" fill="#51497A"/>
<path d="M155.791 459.082C159.374 458.244 161.599 454.659 160.761 451.076C159.923 447.493 156.338 445.268 152.755 446.106C149.171 446.945 146.946 450.529 147.785 454.112C148.623 457.696 152.208 459.921 155.791 459.082Z" fill="#51497A"/>
<path d="M91.248 278.192C91.248 278.192 94.3229 303.826 93.6392 314.761H106.73C106.73 314.761 107.31 292.203 101.5 278.192C95.6903 264.182 91.248 278.192 91.248 278.192Z" fill="#383463"/>
<path d="M70.102 339.027H213.25C213.25 339.027 222.246 323.878 199.233 313.828C176.22 303.777 134.695 312.235 120.084 309.16C105.473 306.085 88.3743 304.259 67.1278 315.41C55.342 321.598 48.571 339.027 70.102 339.027Z" fill="#ABC7F2"/>
<path d="M104.599 290.516C118.245 289.572 148.518 285.22 157.233 273.171C167.62 258.81 153.814 157.221 112.46 146.629C71.105 136.033 50.5977 160.983 46.4956 180.466C42.3934 199.946 35.2164 265.57 45.4718 277.873C55.7237 290.176 73.6697 292.654 104.599 290.52V290.516Z" fill="#ABC7F2"/>
<path d="M535.694 348.255H551.415C556.489 348.255 560.643 344.101 560.643 339.027C560.643 333.953 556.489 329.799 551.415 329.799H535.694C530.62 329.799 526.466 333.953 526.466 339.027C526.466 344.101 530.62 348.255 535.694 348.255Z" fill="#51497A"/>
<path d="M540.862 441.573H547.588V331.975H540.862V441.573Z" fill="#51497A"/>
<path d="M513.219 447.498C513.344 447.498 513.469 447.484 513.594 447.456C541.399 441.122 573.234 447.401 573.554 447.467C574.463 447.651 575.348 447.061 575.532 446.155C575.716 445.245 575.126 444.36 574.22 444.177C573.894 444.111 541.372 437.687 512.851 444.187C511.949 444.392 511.383 445.294 511.588 446.196C511.765 446.974 512.455 447.501 513.222 447.501L513.219 447.498Z" fill="#51497A"/>
<path d="M568.483 459.098C572.065 458.253 574.283 454.664 573.438 451.082C572.592 447.501 569.003 445.282 565.422 446.128C561.84 446.973 559.622 450.562 560.467 454.144C561.313 457.725 564.901 459.944 568.483 459.098Z" fill="#51497A"/>
<path d="M526.221 457.288C528.823 454.686 528.823 450.467 526.221 447.865C523.619 445.262 519.4 445.262 516.798 447.865C514.195 450.467 514.195 454.686 516.798 457.288C519.4 459.89 523.619 459.89 526.221 457.288Z" fill="#51497A"/>
<path d="M584.552 278.192C584.552 278.192 581.477 303.826 582.161 314.761H569.07C569.07 314.761 568.49 292.203 574.3 278.192C580.109 264.182 584.552 278.192 584.552 278.192Z" fill="#383463"/>
<path d="M605.694 339.027H462.546C462.546 339.027 453.551 323.878 476.564 313.828C499.577 303.777 541.101 312.235 555.712 309.16C570.323 306.085 587.426 304.259 608.669 315.41C620.454 321.598 627.225 339.027 605.694 339.027Z" fill="#ABC7F2"/>
<path d="M571.201 290.516C557.555 289.572 527.282 285.22 518.567 273.171C508.18 258.81 521.986 157.221 563.34 146.629C604.695 136.033 625.202 160.983 629.304 180.466C633.406 199.946 640.583 265.57 630.328 277.873C620.076 290.176 602.13 292.654 571.201 290.52V290.516Z" fill="#ABC7F2"/>
<path d="M121.196 247.966C121.196 247.966 105.346 270.963 109.784 296.908C114.223 322.852 129.419 318.605 149.295 320.27C177.595 322.639 207.142 319.523 208.049 325.555C209.458 334.908 247.723 322.254 247.723 322.254C247.723 322.254 291.894 300.996 287.722 289.817C277.065 261.259 151.674 242.423 121.192 247.969L121.196 247.966Z" fill="#51497A"/>
<path d="M287.102 288.399C297.396 302.522 320.176 417.323 318.953 419.56C316.81 423.49 313.499 420.805 302.553 425.619C290.67 430.843 283.99 425.841 283.99 425.841C283.99 425.841 276.188 403.214 262.932 364.978C258.175 351.257 253.021 336.408 247.798 321.39C230.44 271.494 277.676 275.472 287.099 288.399H287.102Z" fill="#51497A"/>
<path d="M260.532 304.177C266.215 320.52 264.858 370 264.858 370L239 287C239 287 256.382 292.238 260.535 304.177H260.532Z" fill="#383463"/>
<path d="M330.184 233.329C330.184 233.329 290.853 233.596 277.02 234.027C246.812 234.96 235.304 232.5 235.304 232.5C235.304 232.5 208.717 210.962 193.37 150.911C193.37 150.911 215.467 137.97 221.002 143.137C229.498 151.068 254.413 199.002 259.154 203.188C260.649 204.51 306.779 219.107 326.245 210L330.188 233.332L330.184 233.329Z" fill="#FABBA5"/>
<path d="M314.244 219.162C314.244 219.162 320.922 210.587 327.443 208.949C331.923 207.824 341.429 200.425 342.643 200.883C347.27 202.629 336.65 210.143 338.486 212.131C339.739 213.488 356.085 213.29 360.749 213.533C363.213 213.662 366.725 216.396 358.528 218.08C356.626 218.468 352.871 218.881 350.584 219.679C349.137 220.186 348.116 221.116 351.282 221.567C355.238 222.13 368.235 221.63 367.583 224.632C367.045 227.12 348.588 225.854 348.488 228.72C348.432 230.254 363.911 232.073 363.72 234.169C363.425 237.41 351.025 234.54 345.399 235.588C339.444 236.699 351.396 241.741 350.483 243.459C349.512 245.288 345.857 243.06 339.242 240.128C333.551 237.605 324.93 238.635 320.592 235.956C316.254 233.277 314.237 219.152 314.237 219.152L314.244 219.162Z" fill="#FABBA5"/>
<path d="M144.796 49.2593C144.796 49.2593 141.015 48.2221 138 50.2964C138 50.2964 140.59 49.6881 143.212 50.7435C145.837 51.799 144.796 49.2556 144.796 49.2556V49.2593Z" fill="#752D4B"/>
<path d="M146.387 50C146.387 50 143.335 49.4189 142 47C142 47 143.59 48.2845 145.836 48.4625C148.081 48.6404 146.387 50 146.387 50Z" fill="#752D4B"/>
<path d="M187.01 54C187.01 54 188.714 63.0111 187.651 65.6502C186.587 68.2894 183 55.1284 183 55.1284L187.01 54Z" fill="#752D4B"/>
<path d="M245.197 455.99V459.242H229.697L227.917 452.946L245.197 455.99Z" fill="#29274F"/>
<path d="M251.551 419.879C251.551 419.879 257.333 437.176 266.117 442.316C273.2 446.463 286.742 447.085 290.351 455.324C291.156 457.156 289.834 459.245 287.908 459.245H251.551C251.551 459.245 238.321 455.407 232.078 456.341C225.834 457.274 226.133 441.508 227.917 435.681C229.7 429.854 228.215 419.879 228.215 419.879H251.551Z" fill="#383463"/>
<path d="M256.828 322.579C263.715 384.378 260.368 423.272 258.747 425.243C255.904 428.705 253.131 425.471 241.426 428.193C228.723 431.15 223.051 425.029 223.051 425.029C223.051 425.029 219.539 401.425 213.534 361.535C211.381 347.221 209.042 331.727 206.668 316.053C199.613 269.513 250.705 285.823 252.158 297.979C252.711 302.617 256.223 317.163 256.828 322.579Z" fill="#51497A"/>
<path d="M106.103 141.965C106.372 145.117 107.986 155.218 109.948 167.139C110.272 169.108 110.603 171.13 110.945 173.172C114.242 193.075 118.011 215.464 118.14 218.991C118.53 229.552 111.956 255.999 111.513 262.864C111.402 264.581 116.742 263.714 122.671 263.377C129.2 263.01 141.267 267.937 159.034 267.999C189.552 268.107 200.539 253.8 200.539 253.8C197.293 244.677 198.311 232.309 199.894 222.316C200.678 217.351 213 144.791 213 144.791L204.666 123.47C165.793 113.227 123.086 120.512 123.086 120.512C123.086 120.512 104.455 122.863 106.103 141.968V141.965Z" fill="#FF6576"/>
<path d="M156 113C156 113 156.63 114.248 157.763 116.385C158.372 117.539 159.131 118.955 160.016 120.574C162.134 124.444 164.969 129.469 168.237 134.847C177.791 150.571 191 169.285 200.571 170.894C202.428 171.201 200.927 188.314 202.149 187.996C220.391 183.251 239.598 160.621 234.017 156.173C220.415 145.33 212.916 119.836 191.491 117.85C187.279 117.458 182.821 116.451 178.474 115.836C170.351 114.689 162.754 113.78 158.814 113.329C157.031 113.122 156 113.007 156 113.007V113Z" fill="#FF6576"/>
<path d="M107.598 177.065C113.305 173.886 119.464 171.322 125.49 170.381C135.098 168.882 145.054 149.844 151.79 133.912C153.782 129.196 155.493 124.753 156.829 121.117C157.402 119.555 157.907 118.142 158.331 116.924C158.759 115.706 159.106 114.683 159.381 113.884C159.784 112.68 160 112 160 112C160 112 152.068 113.94 141.931 116.012C138.005 116.813 133.745 117.636 129.485 118.375C114.835 120.908 114.352 129.133 102.664 141.918C90.9798 154.699 95.956 183.541 107.595 177.065H107.598Z" fill="#FF6576"/>
<path d="M145.132 115.205C147.525 114.706 149.383 112.741 149.818 110.245C150.695 105.216 151.773 98.4884 152.488 92.1959C152.678 90.5184 150.986 84.113 150.916 84C151.11 84.0548 177.541 91.679 174.316 99.7277C174.171 100.087 174.04 100.467 173.922 100.861C173.145 103.429 172.876 106.664 172.876 109.93C172.876 111.881 173.007 113.75 173.201 115.452C175.017 115.692 176.903 115.945 178.819 116.212C179.154 117.698 180.539 135.997 164.692 136C151.693 136 142.428 117.595 142 115.856C143.071 115.64 144.117 115.425 145.129 115.212L145.132 115.205Z" fill="#FABBA5"/>
<path d="M152.332 91.027C152.492 92.25 151.993 96.8093 152 98.2111C157.898 110.529 172.749 109.916 172.965 110C172.965 106.66 173.228 103.345 174 100.717C168.122 97.7064 155.667 90.5048 152.332 91.027Z" fill="#ED938B"/>
<path d="M153.863 98.0718C154.887 101.387 166.255 104.063 170.805 104.575C173.803 104.911 178.398 105.634 180.957 103.789C183.125 102.225 189.213 88.8137 187.785 81.9056C187.509 80.5662 187.135 74.9421 187.678 71.1593C188.581 64.8707 184.373 54.4774 184.373 54.4774C167.047 41.651 151.92 59.7554 150.648 66.7361C149.379 73.7169 149.739 84.7055 153.863 98.0718Z" fill="#FABBA5"/>
<path d="M161.865 69.8342C161.06 70.3565 160.715 69.5543 161.275 68.6853C162.606 66.6214 164.361 64.3821 170.142 64.0228C175.576 63.6844 176.212 67.2147 173.238 67.8623C170.635 68.4305 167.216 66.3749 161.865 69.8342Z" fill="#752D4B"/>
<path d="M185.98 69.9499C186.327 70.3039 187.111 68.6868 186.987 68.0431C186.689 66.5225 185.726 64.8892 182.945 65.0059C179.893 65.1346 179.263 67.1943 180.824 67.496C182.193 67.7615 183.69 67.6087 185.98 69.9459V69.9499Z" fill="#752D4B"/>
<path d="M180.405 75.5273C180.965 74.857 182.06 73.7007 183.334 73.6213C183.608 73.6022 183.891 73.6308 184.18 73.7324C184.674 73.9008 185.316 74.498 185.987 74.9174C186.229 75.073 183.139 70.6669 180.634 74.7172C180.549 74.8538 180.461 75.0031 180.379 75.162C180.288 75.3367 180.194 75.5241 180.106 75.7274C179.885 76.2167 180.021 75.9848 180.408 75.5241L180.405 75.5273Z" fill="#752D4B"/>
<path d="M181 74.3578C181 74.4816 181 75.0039 181.124 75.5222C181.208 75.8743 181.413 76.2959 181.756 76.5861C182.179 76.9497 182.982 77.1161 183.475 76.911C183.966 76.7099 184.429 76.443 184.725 75.9246C185.077 75.3017 185.111 74.2727 184.711 73.6963C184.583 73.5145 184.456 73.3288 184.358 73.2012C184.275 73.0812 184.221 73 184.221 73L182.72 73.3327L181.914 73.3907L181.625 73.4874L181.43 73.8665C181.339 74.0329 181.097 74.1605 181.007 74.354L181 74.3578Z" fill="#752D4B"/>
<path d="M165 75.836C165 77.0318 166.118 78 167.5 78C168.882 78 170 77.0318 170 75.836C170 75.4419 169.881 75.075 169.667 74.759C169.465 74.4499 169.174 74.1883 168.824 74.0015C167.882 73.9947 166.953 74.0116 166.086 74.0524C165.588 74.348 165.218 74.7964 165.074 75.323C165.029 75.4861 165.004 75.6593 165.004 75.836H165Z" fill="#752D4B"/>
<path d="M161.036 75.3886C160.684 76.3559 162.933 72.985 168.127 74.0329C169.401 74.2894 170.679 75.0845 171.702 75.9053C172.073 76.2021 172.102 75.7367 171.765 75.3996C170.513 74.1355 169.286 73.2415 167.289 73.0363C163.866 72.6846 161.176 74.9929 161.036 75.3886Z" fill="#752D4B"/>
<path d="M178.454 72.3759C177.091 73.1079 176.448 74.7405 176.451 76.3664C176.457 78.1711 177.314 79.8206 178.243 81.2374C178.877 82.2021 180.45 83.6931 179.877 85.0626C179.622 85.6664 178.995 85.9633 178.482 86.2163C177.76 86.5738 177.005 86.8268 176.228 86.9955C175.999 87.0461 175.9 86.6548 176.133 86.6042C177.005 86.4119 177.852 86.1218 178.651 85.6833C179.323 85.3123 179.819 84.8164 179.514 83.9056C179.354 83.43 179.058 83.0454 178.778 82.6508C177.887 81.4027 177.008 80.1242 176.496 78.6198C175.706 76.3057 176.079 73.199 178.272 72.0217C178.482 71.9104 178.667 72.2578 178.457 72.3725L178.454 72.3759Z" fill="#E58F78"/>
<path d="M178.516 98.957C177.185 98.1586 175.837 98.109 174.489 98.8248C173.999 99.0836 173.79 97.8062 174.277 97.5529C175.747 96.7766 177.279 96.8152 178.728 97.6851C179.208 97.9714 178.999 99.2488 178.516 98.957Z" fill="#E58F78"/>
<path d="M139.253 77.2132C141.702 86.2914 151.107 91 151.107 91C150.228 85.344 149.799 73.6336 151.114 73.6581C152.435 73.6756 156.016 77.8948 155.672 75.8114C155.324 73.735 153.363 70.6763 155.956 66.1984C158.55 61.7205 156.325 56.2183 156.325 56.2183C156.325 56.2183 156.343 56.2253 156.382 56.2393C156.392 56.2428 156.403 56.2463 156.417 56.2533C156.888 56.463 157.418 56.6448 157.998 56.7986C158.002 56.7986 158.009 56.8021 158.016 56.8021C159.569 57.2251 161.456 57.4663 163.484 57.5676C165.273 57.6585 167.174 57.6376 169.044 57.5327C171.047 57.4173 173.019 57.2041 174.786 56.9244C176.463 56.6553 177.96 56.3302 179.133 55.9597C179.857 55.7324 180.494 55.5856 181.056 55.5017C181.506 55.4353 181.906 55.4038 182.265 55.4073C184.792 55.4248 185.101 57.0188 185.101 57.0188C188.928 51.6041 188.179 47.9511 187.252 44.5499C185.596 38.4744 180.778 35.5276 180.778 35.5276C179.513 37.6949 177.035 38.027 177.035 38.027C177.204 37.5166 177.299 37.0342 177.338 36.5973C177.471 35.1221 177.004 34.1154 176.951 34.007C176.948 34.0035 176.948 34 176.948 34C176.948 34 171.827 38.9079 159.45 37.4782C142.574 35.5276 142.813 47.9756 142.813 47.9756C134.554 52.9184 136.8 68.1315 139.249 77.2097L139.253 77.2132Z" fill="#752D4B"/>
<path d="M155.51 77.8713C155.51 77.8713 151.505 71.43 147.754 74.3487C144.002 77.2674 147.848 82.6641 149.295 84.7325C150.843 86.9467 151.738 86.964 154.466 86.2491C157.194 85.5342 155.51 77.8713 155.51 77.8713Z" fill="#FABBA5"/>
<path d="M154.65 85.7147C153.762 87.3459 151.655 87.2383 150.364 86.2249C149.555 85.5898 148.976 84.6944 148.452 83.8059C147.817 82.7336 147.209 81.6334 146.769 80.4604C146.033 78.4995 145.689 75.8168 147.491 74.3592C149.264 72.9224 151.631 73.5957 153.057 75.2026C153.245 75.4143 152.943 75.7301 152.755 75.5184C151.43 74.0226 149.149 73.3632 147.567 74.8694C145.977 76.3825 146.606 79.0305 147.369 80.8178C148.025 82.3587 148.893 84.0489 150.003 85.2844C151.072 86.4748 153.304 87.2834 154.282 85.4926C154.418 85.2427 154.786 85.4683 154.65 85.7182V85.7147Z" fill="#E58F78"/>
<path d="M150.281 75.626C150.916 75.8967 151.533 76.2681 151.894 76.9032C152.314 77.6424 152.162 78.215 151.95 78.975C151.551 80.4118 152.942 80.6999 153.633 81.6126C154.022 82.1297 154.136 82.7648 153.814 83.3444C153.675 83.5908 153.307 83.3687 153.446 83.1188C154.202 81.7653 151.655 80.9879 151.426 79.7386C151.332 79.2215 151.599 78.8675 151.717 78.3885C152.002 77.2433 151.061 76.4381 150.166 76.0563C149.916 75.9488 150.024 75.5184 150.281 75.626Z" fill="#E58F78"/>
<path d="M144.003 48.4529C146.599 54.1775 157.238 56.6072 157.238 56.6072C157.238 56.6072 157.255 56.6141 157.293 56.6279C157.303 56.6314 157.313 56.6349 157.327 56.6418C157.534 56.7179 158.078 56.9187 158.876 57.1817C158.88 57.1817 158.886 57.1852 158.893 57.1852C160.415 57.604 162.263 57.8428 164.249 57.9432C166.001 58.0331 167.863 58.0124 169.694 57.9085C171.656 57.7943 173.587 57.5832 175.318 57.3063C176.96 57.0398 178.392 56.5726 179.576 56.3511C185.004 55.3231 179.621 46.9231 179.621 46.9231C177.814 49.91 175.043 50.27 175.043 50.27C176.95 47.1585 173.993 43.469 173.993 43.469C171.136 48.9478 165.729 45.6045 165.729 45.6045C165.729 45.6045 168.548 44.9365 170.052 42.6764C172.444 39.0838 170.627 36 170.627 36C170.627 36 167.922 39.3642 160.294 38.0524C144 35.2524 144 48.446 144 48.446L144.003 48.4529Z" fill="#7E3254"/>
<path d="M169 36C169 36 166.483 39.152 161.256 38.9943L161 38.0828C161 38.0828 165.388 38.1033 169 36Z" fill="#7E3254"/>
<path d="M179 35.0033C179 35.0033 178.75 38.2805 177 39V37.9835C177 37.9835 178.214 37.3597 179 35V35.0033Z" fill="#752D4B"/>
<path d="M182.525 47C182.525 47 184.295 55.2506 181 56L181.308 53.0058C181.308 53.0058 182.875 51.101 182.525 47Z" fill="#7E3254"/>
<path d="M175.864 45C175.864 45 176.598 49.3854 174.657 50.6013C172.715 51.8203 173.017 49.8549 173.017 49.8549C173.017 49.8549 175.518 48.6118 175.864 45Z" fill="#7E3254"/>
<path d="M147.634 278C147.634 278 119.606 266.665 106.608 259.452C90.0761 250.278 85.7261 244.998 80.0497 240.38C74.3244 235.727 72.4521 232.355 72.4521 232.355C72.4521 232.355 64.8474 183.237 112.019 130L138.721 156.962C138.721 156.962 104.624 212.582 108.568 217.55C126.916 240.661 143.76 259.174 158 262.3L147.638 277.997L147.634 278Z" fill="#FABBA5"/>
<path d="M202.234 322.831C209.067 324.712 216.189 324.32 222.779 321.677C223.169 321.519 223.001 320.867 222.604 321.024C216.121 323.623 209.135 324.03 202.41 322.179C201.998 322.065 201.823 322.718 202.234 322.831Z" fill="#383463"/>
<path d="M212.782 326.364C210.47 325.676 208.36 324.572 206.445 323.064C206.125 322.812 205.816 323.371 206.132 323.619C208.088 325.163 210.255 326.284 212.617 326.986C213.001 327.101 213.165 326.479 212.782 326.364Z" fill="#383463"/>
<path d="M211.72 265.152C210.813 266.921 210.246 268.765 210.002 270.712C209.974 270.947 210.287 271.062 210.479 270.966C212.469 269.974 214.558 269.287 216.771 268.886C217.173 268.813 217.001 268.247 216.602 268.32C214.335 268.73 212.19 269.446 210.156 270.457C210.314 270.543 210.476 270.626 210.634 270.712C210.861 268.873 211.407 267.121 212.263 265.448C212.438 265.108 211.892 264.809 211.716 265.152H211.72Z" fill="#383463"/>
<path d="M259.745 353.993C259.609 353.993 259.494 353.885 259.487 353.749C259.466 353.384 257.445 317.081 251.921 297.71C249.217 288.225 219.009 277.215 206.145 272.925C202.277 271.634 200.165 269.525 200.074 269.435C199.973 269.334 199.977 269.171 200.074 269.073C200.176 268.976 200.339 268.976 200.437 269.073C200.458 269.094 202.559 271.189 206.306 272.438C213.481 274.832 223.982 278.611 233.269 283.009C244.77 288.455 251.21 293.354 252.413 297.575C257.954 317.001 259.979 353.363 260 353.729C260.007 353.871 259.899 353.993 259.756 354C259.752 354 259.745 354 259.742 354L259.745 353.993Z" fill="#383463"/>
<path d="M268.092 357.576C272.351 362.316 276.108 367.412 279.354 372.839C279.575 373.209 280.175 372.875 279.95 372.505C276.677 367.028 272.88 361.888 268.579 357.109C268.287 356.785 267.8 357.256 268.088 357.579L268.092 357.576Z" fill="#383463"/>
<path d="M272.021 367.392C272.974 369.464 273.626 371.56 273.966 373.7C274.028 374.098 275.059 374.102 274.997 373.7C274.646 371.502 273.989 369.348 273.013 367.222C272.835 366.833 271.843 366.997 272.021 367.389V367.392Z" fill="#383463"/>
<path d="M189.693 271C182.548 271.242 175.415 271.707 168.304 272.393C167.9 272.432 167.897 273.037 168.304 272.998C175.419 272.311 182.548 271.847 189.693 271.605C190.1 271.592 190.104 270.987 189.693 271Z" fill="#383463"/>
<path d="M188.622 272.014C182.489 273.473 176.639 275.64 171.149 278.487C170.806 278.666 171.116 279.139 171.459 278.96C176.902 276.135 182.702 273.988 188.782 272.541C189.165 272.448 189.001 271.918 188.618 272.011L188.622 272.014Z" fill="#383463"/>
<path d="M128 280.309V282.691C128 283.103 129 283.103 129 282.691V280.309C129 279.897 128 279.897 128 280.309Z" fill="#383463"/>
<path d="M129.013 289.42C129.423 290.867 129.833 292.313 130.242 293.759C130.364 294.182 131.108 294.002 130.987 293.58C130.577 292.133 130.167 290.687 129.758 289.241C129.636 288.818 128.892 288.998 129.013 289.42Z" fill="#383463"/>
<path d="M134.156 297.714C135.606 298.789 137.056 299.865 138.502 300.936C138.866 301.206 139.209 300.552 138.844 300.286C137.394 299.211 135.944 298.135 134.498 297.064C134.134 296.794 133.791 297.448 134.156 297.714Z" fill="#383463"/>
<path d="M145.189 302.71C146.05 302.921 146.853 303.327 147.61 303.947C147.902 304.186 148.164 303.55 147.873 303.315C147.079 302.666 146.231 302.225 145.327 302.006C144.999 301.927 144.858 302.635 145.189 302.714V302.71Z" fill="#383463"/>
<path d="M155.35 304.612C156.782 304.741 158.218 304.869 159.65 304.998C160.119 305.041 160.115 304.431 159.65 304.388C158.218 304.259 156.782 304.131 155.35 304.002C154.881 303.959 154.885 304.569 155.35 304.612Z" fill="#383463"/>
<path d="M168.309 305H170.691C171.103 305 171.103 304 170.691 304H168.309C167.897 304 167.897 305 168.309 305Z" fill="#383463"/>
<path d="M198.399 304.989C198.855 304.873 199.312 304.753 199.772 304.637C200.172 304.535 200.002 303.909 199.601 304.011L198.228 304.363C197.828 304.465 197.998 305.091 198.399 304.989Z" fill="#383463"/>
<path d="M204.266 305H205.734C206.089 305 206.089 304 205.734 304H204.266C203.911 304 203.911 305 204.266 305Z" fill="#383463"/>
<path d="M211.341 305.682C211.786 305.558 212.216 305.655 212.598 305.947C212.895 306.171 213.168 305.624 212.874 305.4C212.373 305.018 211.777 304.911 211.195 305.073C210.854 305.169 210.997 305.782 211.341 305.686V305.682Z" fill="#383463"/>
<path d="M218.408 306.645C219.512 306.747 220.52 307.19 221.188 307.864C221.514 308.189 222.246 307.871 221.917 307.539C221.046 306.663 219.837 306.135 218.404 306.003C217.863 305.954 217.868 306.6 218.404 306.649L218.408 306.645Z" fill="#383463"/>
<path d="M225.056 311.659C225.26 312.067 225.467 312.479 225.671 312.887C225.846 313.237 226.119 312.695 225.944 312.341C225.74 311.933 225.533 311.521 225.329 311.113C225.154 310.763 224.881 311.305 225.056 311.659Z" fill="#383463"/>
<path d="M227.041 317.54C227.344 318.168 227.429 318.862 227.291 319.556C227.203 320.003 227.83 320.192 227.918 319.745C228.094 318.858 227.985 317.983 227.601 317.178C227.408 316.773 226.844 317.131 227.041 317.536V317.54Z" fill="#383463"/>
<path d="M228 324.312V325.688C228 326.104 229 326.104 229 325.688V324.312C229 323.896 228 323.896 228 324.312Z" fill="#383463"/>
<path d="M226.378 332.35C226.253 333.785 226.126 335.215 226.002 336.65C225.962 337.119 226.582 337.115 226.622 336.65C226.747 335.215 226.874 333.785 226.998 332.35C227.038 331.881 226.418 331.885 226.378 332.35Z" fill="#383463"/>
<path d="M226 343.262V346.738C226 347.087 227 347.087 227 346.738V343.262C227 342.913 226 342.913 226 343.262Z" fill="#383463"/>
<path d="M227.004 353.394C227.152 354.521 227.3 355.649 227.448 356.773C227.5 357.171 228.049 357.001 227.996 356.606L227.552 353.227C227.5 352.829 226.951 352.999 227.004 353.394Z" fill="#383463"/>
<path d="M229.036 365.483C229.452 366.268 229.873 367.053 230.289 367.835C230.488 368.207 231.163 367.886 230.964 367.517C230.548 366.732 230.127 365.947 229.711 365.165C229.512 364.793 228.837 365.114 229.036 365.483Z" fill="#383463"/>
<path d="M231 375.312V376.688C231 377.104 232 377.104 232 376.688V375.312C232 374.896 231 374.896 231 375.312Z" fill="#383463"/>
<path d="M234.053 385.228C233.92 386.136 234.036 386.992 234.411 387.834C234.577 388.207 235.135 387.885 234.97 387.516C234.671 386.848 234.573 386.119 234.678 385.396C234.738 384.999 234.113 384.828 234.053 385.228Z" fill="#383463"/>
<path d="M234 395.377V396.623C234 397.126 235 397.126 235 396.623V395.377C235 394.874 234 394.874 234 395.377Z" fill="#383463"/>
<path d="M237.007 417.342C237.125 417.828 237.239 418.314 237.357 418.804C237.439 419.147 238.075 419.002 237.993 418.658C237.875 418.172 237.761 417.686 237.643 417.196C237.561 416.853 236.925 416.998 237.007 417.342Z" fill="#383463"/>
<path d="M237 425.323V425.677C237 426.108 238 426.108 238 425.677V425.323C238 424.892 237 424.892 237 425.323Z" fill="#383463"/>
<path d="M130.265 118C130.265 118 116.5 119.831 108.144 128.607C102.939 134.073 92.0111 153.378 87 163.34C87 163.34 101.245 186.94 131.018 183.693C143.847 182.292 146 158.548 146 158.548L130.265 118Z" fill="#FF6576"/>
<path d="M212.568 160.135C209.738 166.276 207.866 172.835 207.003 179.672C206.962 180 207.412 180.144 207.453 179.81C208.31 173.015 210.16 166.497 212.971 160.395C213.11 160.096 212.707 159.832 212.568 160.132V160.135Z" fill="#E84261"/>
<path d="M161.036 200.381C165.224 207.526 171.793 213.01 179.684 215.981C179.999 216.101 180.137 215.607 179.822 215.491C172.058 212.567 165.605 207.148 161.488 200.124C161.322 199.839 160.87 200.096 161.036 200.381Z" fill="#E84261"/>
<path d="M163.018 210.312C165.954 217.011 169.817 223.238 174.553 228.912C174.772 229.171 175.151 228.803 174.936 228.544C170.262 222.944 166.44 216.784 163.544 210.172C163.413 209.868 162.887 210.001 163.022 210.309L163.018 210.312Z" fill="#E84261"/>
<path d="M121.183 183.129C122.063 183.305 122.944 183.485 123.828 183.661C124.316 183.761 125.337 184.151 125.866 183.937C126.603 183.643 126.961 182.701 127.376 182.073C129.645 178.656 132.183 175.453 134.931 172.44C135.149 172.202 134.801 171.84 134.58 172.078C132.615 174.232 130.753 176.478 129.023 178.839C128.196 179.968 127.51 181.441 126.546 182.422C126.231 183.233 125.585 183.526 124.614 183.298C124.393 183.253 124.172 183.209 123.955 183.167C123.074 183.067 122.181 182.812 121.31 182.636C120.999 182.574 120.865 183.067 121.18 183.129H121.183Z" fill="#E84261"/>
<path d="M199.648 267.878C198.691 264.453 177.337 259.743 173.144 259.608C168.57 259.462 150.166 263.193 150.166 263.193L147.428 278.154C147.428 278.154 167.088 283.964 175.112 282.093C176.202 281.84 178.999 289.132 180.762 288.552C181.751 288.226 179.776 281.517 179.096 278.075C179.013 277.651 179.502 277.342 179.821 277.609C183.483 280.681 187.536 289.243 190.098 288.274C190.639 288.07 189.136 282.781 188.283 279.435C187.824 277.641 185.846 275.02 184.108 272.973C183.972 272.813 184.167 272.574 184.347 272.681C186.436 273.896 188.706 275.898 189.827 277.249C191.757 279.57 196.074 286.206 199.437 285.894C200.839 285.762 195.678 277.179 194.016 273.486C193.749 272.89 193.242 272.244 192.593 271.585C192.471 271.46 192.628 271.251 192.777 271.338C194.116 272.109 195.22 272.81 195.595 273.209C199.069 276.922 202.904 282.246 206.333 281.274C207.225 281.021 200.037 269.277 199.645 267.875L199.648 267.878Z" fill="#FABBA5"/>
<path d="M155.671 261.735C153.061 262.422 150.756 263.825 148.948 265.827C148.726 266.073 149.097 266.431 149.32 266.184C151.072 264.244 153.29 262.894 155.82 262.228C156.139 262.145 155.993 261.652 155.674 261.735H155.671Z" fill="#E58F78"/>
<path d="M181.816 270.325C182.878 271.529 184.01 272.657 185.214 273.716C185.464 273.934 185.821 273.563 185.571 273.344C184.364 272.286 183.232 271.158 182.174 269.954C181.955 269.704 181.598 270.078 181.816 270.325Z" fill="#E58F78"/>
<path d="M190.82 269.87C191.521 270.467 192.222 271.064 192.923 271.661C193.173 271.876 193.534 271.505 193.28 271.29L191.177 269.499C190.927 269.284 190.566 269.655 190.82 269.87Z" fill="#E58F78"/>
<path d="M178.041 275.954C178.583 276.811 179.228 277.582 179.978 278.262C180.224 278.484 180.582 278.113 180.335 277.891C179.617 277.238 178.999 276.506 178.482 275.687C178.305 275.406 177.864 275.673 178.041 275.954Z" fill="#E58F78"/>
<path d="M495.488 87.904L494.93 120.985L554.102 184.401C554.102 184.401 567.172 170.808 587.197 175C592.753 176.163 597.296 175.534 600.957 174.014C604.882 155.756 597.15 141.298 597.15 141.298C604.803 149.714 606.028 163.36 606.125 170.939C611.802 166.379 614.044 160.118 614.044 160.118C616.054 140.309 598.403 102.168 560.81 98.6105C523.218 95.0567 522.739 68.9897 522.739 68.9897L495.492 87.904H495.488Z" fill="#752D4B"/>
<path d="M608.231 167.577C611.639 149.666 605.569 131.046 592.024 118.788C585.458 112.844 577.451 108.592 568.799 106.652C563.701 105.507 558.478 104.993 553.446 103.539C548.965 102.245 544.589 100.388 540.629 97.9099C533.74 93.5961 527.774 87.0993 526.619 78.7909C526.58 78.5132 527.011 78.4785 527.049 78.7527C528.257 87.422 534.819 94.0958 542.132 98.309C546.664 100.919 551.634 102.789 556.732 103.935C561.723 105.052 566.838 105.552 571.766 106.958C587.592 111.469 600.822 123.887 606.437 139.337C609.723 148.375 610.449 158.217 608.651 167.653C608.599 167.927 608.172 167.851 608.224 167.577H608.231Z" fill="#954067"/>
<path d="M529.582 82.5422C529.165 91.1317 538.508 96.6568 545.095 100.054C552.987 104.129 561.507 106.742 569.753 109.97C584.777 115.849 598.989 125.191 605.874 140.357C609.598 148.562 610.823 157.856 608.709 166.657C608.644 166.928 608.22 166.837 608.286 166.567C612.399 149.422 603.767 132.417 590.482 121.825C583.691 116.411 575.882 112.76 567.813 109.685C559.55 106.537 551.043 103.855 543.266 99.5754C537.005 96.1292 528.749 90.7222 529.145 82.5665C529.158 82.2888 529.592 82.2645 529.578 82.5422H529.582Z" fill="#954067"/>
<path d="M529.829 83.2921C524.696 92.1801 534.865 100.096 541.389 104.271C548.594 108.884 556.493 112.229 564.177 115.932C576.771 121.999 590.323 130.154 595.425 143.964C598.434 152.109 597.657 161.288 593.558 168.91C593.426 169.156 593.041 168.955 593.173 168.708C597.306 161.021 598 151.776 594.828 143.613C592.132 136.672 587.002 131.005 581.189 126.486C568.084 116.293 551.478 112.198 538.051 102.529C532.168 98.2916 524.956 90.8648 529.444 83.0908C529.583 82.8514 529.968 83.0492 529.829 83.2921Z" fill="#954067"/>
<path d="M477.795 222.456C477.65 222.838 477.393 223.171 477.063 223.414C473.94 225.715 465.215 229.217 439.838 232.031C421.858 234.027 402.694 233.329 402.694 233.329L399.91 213.117C399.91 213.117 406.723 214.859 434.445 208.782C447.703 205.874 454.751 206.728 454.751 206.728C454.751 206.728 488.55 194.543 477.799 222.456H477.795Z" fill="#FABBA5"/>
<path d="M489.509 257.21L490.807 218.42C490.338 221.054 489.241 223.591 487.822 225.822C484.855 230.497 480.468 233.825 477.431 233.825H412.935C406.664 230.299 409.368 213.03 409.368 213.03C409.368 213.03 458.59 203.379 462.977 198.773C468.654 192.808 469.869 168.809 475.169 146.775C479.999 126.698 494.93 120.985 494.93 120.985L521.58 165.786L528.389 255.37L489.509 257.21Z" fill="#75ACF2"/>
<path d="M563.85 320.244C542.35 309.437 488.297 314.022 465.79 306.984C464.503 306.581 463.264 306.185 462.07 305.807C464.593 314.588 467.099 326.405 465.422 338.301C464.551 344.472 462.889 355.158 461.102 366.378C457.846 386.833 454.185 409.079 454.185 409.079C444.28 414.507 430.839 413.049 430.839 413.049C430.839 413.049 427.986 346.353 421.895 292.092C421.548 288.965 423.075 267.208 448.209 263.797C475.168 260.142 497.313 256.463 515.498 252.934C581.577 240.103 585.516 331.138 563.85 320.248V320.244Z" fill="#FABBA5"/>
<path opacity="0.4" d="M465.424 338.301C464.553 344.472 462.89 355.158 461.103 366.378C446.582 363.636 456.237 322.587 446.18 301.556C435.782 279.813 460.815 270.901 460.815 270.901L465.792 306.987C464.504 306.584 463.265 306.189 462.071 305.81C464.594 314.591 467.1 326.408 465.424 338.305V338.301Z" fill="#ED938B"/>
<path d="M591.073 274.656C592.298 255.398 577.253 239.753 561.403 243.834C547.004 247.541 523.634 256.234 468.418 271.911C424.023 284.512 461.987 312.991 467.915 309.087C479.787 301.264 526.021 326.96 571.284 311.523C590.746 304.884 586.658 286.317 591.073 274.659V274.656Z" fill="#FABBA5"/>
<path opacity="0.5" d="M499.316 204.423C499.316 204.423 502.777 234.946 499.931 247.891C497.085 260.833 523.246 235.21 523.246 235.21L520.917 217.795L499.32 204.423H499.316Z" fill="#4B83DB"/>
<path d="M448.55 295.236C474.599 369.078 483.192 418.168 483.192 418.168C483.192 418.168 497.682 420.514 505.917 412.789C505.917 412.789 506.771 375.471 509.117 358.028C512.48 332.995 498.626 314.39 494.36 307.435C490.893 301.785 444.295 283.172 448.55 295.236Z" fill="#FABBA5"/>
<path d="M591.218 317.218C580.008 320.286 562.427 319.245 545.873 317.704C536.554 316.833 527.562 315.809 520.222 315.271C505.563 314.195 500.461 317.412 500.461 317.412C500.461 317.412 497.341 312.165 493.225 305.606C484.854 292.255 470.143 272.653 457.999 276.696C456.451 277.213 454.973 277.599 453.564 277.869C453.557 277.869 453.55 277.873 453.547 277.873C447.432 279.06 442.653 278.137 439.137 276.617C434.011 274.409 431.564 270.942 431.564 270.942C436.572 265.591 450.85 257.553 480.912 251.341C494.821 248.467 503.775 245.285 509.38 242.692C514.569 240.298 517.994 235.224 518.268 229.515L518.476 225.18L574.824 208.782C574.824 208.782 573.713 219.589 590.347 245.455C606.981 271.321 621.339 308.976 591.218 317.218Z" fill="#51497A"/>
<path d="M452.922 443.743C445.599 444.895 442.396 453.234 439.807 453.425C437.218 453.62 411.161 455.129 408.919 453.425C406.677 451.721 416.447 446.3 416.447 446.3C417.415 446.002 425.428 435.097 428.417 429.42C431.866 422.864 430.832 413.049 430.832 413.049L454.178 409.079C454.178 409.079 453.887 411.137 453.658 414.018C453.144 420.518 454.584 428.854 455.677 432.325C455.677 432.325 460.241 442.59 452.915 443.743H452.922Z" fill="#FABBA5"/>
<path d="M452.45 446.408C444.575 447.82 440.633 459.238 437.849 459.474L404.189 459.245C401.777 457.159 405.869 450.423 413.663 447.675C414.708 447.307 415.628 446.845 416.447 446.3C416.395 446.463 415.288 450.35 421.83 449.757C428.51 449.153 437.603 448.73 443.357 440.491C449.111 432.252 455.445 431.502 455.445 431.502C459.87 436.319 460.328 444.992 452.453 446.404L452.45 446.408Z" fill="#2D2B4E"/>
<path d="M457.999 442.521L453.765 458.52C453.616 459.082 453.106 459.474 452.526 459.474H449.562C448.622 459.474 447.865 458.7 447.886 457.76L448.16 444.929L458.003 442.521H457.999Z" fill="#2D2B4E"/>
<path d="M505.074 443.742C497.751 444.895 494.548 453.234 491.959 453.425C489.37 453.62 463.314 455.129 461.072 453.425C458.83 451.721 468.599 446.3 468.599 446.3C469.567 446.002 477.581 435.097 480.569 429.42C484.019 422.864 482.984 413.049 482.984 413.049L506.074 407.167C506.074 407.167 506.039 411.137 505.813 414.018C505.3 420.518 506.74 428.854 507.833 432.324C507.833 432.324 512.397 442.59 505.071 443.742H505.074Z" fill="#FABBA5"/>
<path d="M504.602 446.408C496.727 447.82 492.732 459.238 489.949 459.474L456.761 459.245C454.349 457.159 458.02 450.423 465.815 447.675C466.86 447.307 467.779 446.845 468.599 446.3C468.546 446.463 467.439 450.35 473.981 449.757C480.662 449.153 489.755 448.73 495.509 440.491C501.263 432.252 507.597 431.502 507.597 431.502C512.022 436.319 512.48 444.992 504.605 446.404L504.602 446.408Z" fill="#51497A"/>
<path d="M510.151 442.521L505.712 458.638C505.577 459.134 505.126 459.474 504.612 459.474H501.325C500.763 459.474 500.309 459.02 500.309 458.457V444.929L510.151 442.521Z" fill="#51497A"/>
<path d="M545.873 317.704C536.555 316.833 527.563 315.809 520.223 315.271C505.563 314.195 500.462 317.413 500.462 317.413C500.462 317.413 497.342 312.165 493.226 305.606C502.94 304.62 542.115 298.901 543.551 270.897C544.773 247.121 545.554 292.748 545.87 317.701L545.873 317.704Z" fill="#383463"/>
<path d="M406.376 216.365C406.376 216.365 392.404 206.936 392.716 212.409C393.205 220.971 376.273 217.906 375.488 220.742C374.704 223.577 383.186 229.355 387.045 231.951C390.904 234.547 400.709 234.974 404.422 231.681C407.778 228.699 406.379 216.365 406.379 216.365H406.376Z" fill="#FABBA5"/>
<path d="M547.649 195.851C545.196 164.453 552.914 122.224 544.724 119.462C536.533 116.699 532.365 117.22 525.223 114.992C516.398 112.236 515.752 111.212 502.012 118.955C488.283 126.691 490.171 126.628 490.171 126.628C490.171 126.628 482.584 160.827 482.654 169.017C482.765 181.618 489.845 184.11 489.845 184.11C489.845 184.11 505.205 200.946 507.794 210.104C508.551 212.773 514.954 212.974 514.954 212.974L562.097 213.342C562.097 213.342 548.316 204.437 547.646 195.854L547.649 195.851Z" fill="#FABBA5"/>
<path d="M553.092 160.33C553.092 160.33 549.271 190.26 548.982 194.924C548.948 195.445 549.118 196.014 549.441 196.621C551.984 201.442 564.183 208.647 562.104 213.339C561.494 214.717 557.28 216.303 551.391 217.889C551.391 217.889 551.391 217.889 551.381 217.892H551.356C551.332 217.903 551.301 217.91 551.259 217.923C550.267 218.191 520.163 227.023 520.167 227.016C520.198 226.877 516.224 230.407 516.283 228.217C516.384 224.431 504.466 213.197 500.624 206.703V206.696C494.534 196.389 489.991 184.478 489.852 184.11C489.848 184.103 489.848 184.1 489.848 184.1C489.848 184.1 489.848 184.1 489.835 184.096C489.644 184.055 487.457 183.517 485.299 181.681C482.366 179.193 479.486 174.32 481.717 165.05C484.094 155.18 484.469 134.454 489.387 125.726C490.275 124.154 502.096 118.809 502.096 118.809C502.096 118.809 497.484 141.232 502.096 145.82C506.635 150.339 516.37 144.567 523.228 130.304C524.061 128.568 530.204 118.247 532.418 116.522C532.529 116.435 539.466 117.362 547.494 119.646C550.961 120.631 557.433 127.232 553.092 160.327V160.33Z" fill="#FF6576"/>
<path d="M570.816 195.639C570.816 195.639 555.469 165.609 545.314 160.247C535.16 154.885 557.191 143.783 566.967 146.153C576.743 148.524 596.737 186.519 589.779 208.841L570.816 195.639Z" fill="#FABBA5"/>
<path d="M486.225 78.8358C486.225 78.8358 480.648 71.6484 486.624 62.3509C492.6 53.0499 497.105 50.0723 505.674 49.982C514.242 49.8953 524.699 47.8025 531.244 53.2616C541.385 61.7158 544.356 77.5136 537.758 91.111C531.161 104.712 519.84 101.023 515.072 104.42C510.303 107.818 486.221 78.8358 486.221 78.8358H486.225Z" fill="#752D4B"/>
<path d="M527.234 120.575C527.234 120.575 519.775 130.848 506.275 128.932C506.275 128.932 505.897 122.339 504.328 116.171C503.641 113.478 502.728 110.868 501.521 108.922C501.337 108.623 501.142 108.338 500.944 108.075C496.481 102.144 517.527 90.0663 517.683 89.9795C517.648 90.0871 516.503 93.5333 517.055 98.4788C517.166 99.4991 517.353 100.582 517.634 101.717C517.943 102.945 518.363 104.233 518.929 105.552C522.587 114.079 527.237 120.579 527.237 120.579L527.234 120.575Z" fill="#FABBA5"/>
<path d="M517.05 98.479C517.161 99.4993 517.349 100.582 517.63 101.717C514.718 109.137 504.497 116.061 504.327 116.175C503.64 113.482 502.727 110.872 501.52 108.925C505.99 105.198 514.055 98.7948 517.05 98.479Z" fill="#ED938B"/>
<path d="M502.092 118.816C495.7 119.503 489.383 125.733 489.383 125.733L482.657 135.731L477.774 171.727C477.774 171.727 489.935 220.196 490.046 241.131C490.06 243.824 500.36 243.966 500.812 241.131C504.935 215.216 496.338 155.048 496.338 155.048L502.096 118.819L502.092 118.816Z" fill="#75ACF2"/>
<path d="M518.265 103.362C507.218 112.184 496.269 111.805 493.6 111.049C490.928 110.285 490.827 107.894 486.874 101.724C484.15 97.4722 483.438 93.4429 483.754 90.3993C483.893 89.0215 484.247 87.852 484.715 86.9531C484.865 86.672 484.986 86.4152 485.08 86.1757C485.087 86.1583 485.094 86.141 485.101 86.1236C485.972 83.9372 484.886 83.2292 484.643 79.4186C484.587 78.5197 484.872 77.3641 485.358 76.0939C485.576 75.5282 485.829 74.9417 486.114 74.3482C488.21 69.9372 491.795 65.0507 491.795 65.0507C509.953 51.9599 524.036 66.6298 525.445 73.6367C526.861 80.6472 529.311 94.5396 518.265 103.362Z" fill="#FABBA5"/>
<path d="M511.05 212.031C511.05 212.031 491.699 222.636 492.372 224.136C493.566 226.808 498.921 223.511 498.921 223.511C498.921 223.511 491.643 228.811 491.858 229.63C492.601 232.458 501.534 227.742 501.534 227.742C501.534 227.742 495.78 231.688 496.273 232.576C497.814 235.377 506.59 230.574 506.59 230.574C506.59 230.574 504.349 232.427 503.241 233.749C502.79 234.287 504.855 235.762 506.289 234.926C509.908 232.809 515.801 230.48 519.74 229.099C520.226 228.929 521.049 229.418 522.215 229.904C526.359 231.625 533.82 224.885 535.798 221.075C537.773 217.264 530.877 215.914 529.315 214.887C525.46 212.343 516.124 210.465 511.054 212.031H511.05Z" fill="#FABBA5"/>
<path d="M506.039 230.816C507.774 229.55 510.148 228.609 511.356 226.759C511.446 226.621 511.679 226.739 511.588 226.877C510.346 228.779 507.965 229.734 506.181 231.032C506.046 231.129 505.904 230.914 506.039 230.813V230.816Z" fill="#E38472"/>
<path d="M499.979 228.724C501.541 227.478 503.207 226.378 504.869 225.27C506.001 224.517 507.85 223.632 508.531 222.4C508.61 222.255 508.843 222.373 508.763 222.518C508.17 223.594 506.736 224.327 505.768 224.982C503.863 226.27 501.923 227.506 500.125 228.942C499.993 229.046 499.854 228.828 499.983 228.724H499.979Z" fill="#E38472"/>
<path d="M497.695 224.115C500.624 221.89 504.504 220.519 507.041 217.833C507.155 217.712 507.35 217.885 507.232 218.007C504.674 220.714 500.783 222.088 497.834 224.33C497.702 224.431 497.559 224.212 497.691 224.111L497.695 224.115Z" fill="#E38472"/>
<path d="M519.917 229.199C520.75 228.287 521.826 226.836 521.67 225.521C521.649 225.354 521.909 225.34 521.93 225.503C522.093 226.902 521 228.398 520.108 229.373C519.994 229.498 519.803 229.321 519.917 229.199Z" fill="#E38472"/>
<path d="M519.918 229.258C520.3 228.404 520.387 227.499 520.164 226.589C520.126 226.426 520.373 226.346 520.411 226.506C520.65 227.485 520.564 228.456 520.151 229.376C520.081 229.529 519.852 229.411 519.918 229.258Z" fill="#E38472"/>
<path d="M520.355 228.793C521.198 229.213 522.142 229.873 523.114 229.869C523.281 229.869 523.298 230.129 523.131 230.129C522.094 230.129 521.139 229.477 520.237 229.026C520.088 228.949 520.206 228.72 520.355 228.793Z" fill="#E38472"/>
<path d="M511.31 76.0942C511.31 76.0942 509.179 71.3153 500.309 73.9494C495.033 75.5146 495.925 77.9787 498.952 77.4963C501.978 77.0139 502.794 74.0778 511.31 76.0942Z" fill="#752D4B"/>
<path d="M488.151 77.9615C486.95 77.7498 485.826 76.3581 484.882 75.8306C485.097 75.2684 485.354 74.6784 485.635 74.085C486.013 74.085 486.45 74.1752 486.954 74.38C490.428 75.7959 490.15 78.319 488.148 77.965L488.151 77.9615Z" fill="#752D4B"/>
<path d="M503.744 82.5389C503.754 83.7639 502.772 84.7634 501.547 84.7773C500.322 84.7912 499.322 83.809 499.309 82.584C499.309 82.5007 499.309 82.4174 499.322 82.3376C499.329 82.2612 499.34 82.1883 499.354 82.1154C499.381 81.9732 499.423 81.8343 499.482 81.7059C501.252 81.5359 502.349 81.2929 503.109 81.0049C503.369 81.2721 503.563 81.5949 503.664 81.9627C503.671 81.9766 503.674 81.994 503.678 82.0079C503.685 82.0356 503.692 82.0634 503.695 82.0912C503.727 82.2369 503.744 82.3861 503.747 82.5354L503.744 82.5389Z" fill="#752D4B"/>
<path d="M489.793 82.7644C489.793 82.8997 489.782 83.0351 489.755 83.16C489.581 84.0727 488.783 84.7599 487.818 84.7738C486.78 84.7877 485.92 83.9999 485.816 82.9899C485.805 82.9275 485.802 82.8615 485.802 82.7991C485.802 82.6568 485.816 82.5145 485.843 82.3826C485.882 82.1952 485.948 82.0147 486.038 81.8481C486.26 81.9696 486.513 82.1015 486.815 82.2334C487.447 82.518 488.908 82.6186 489.789 82.7054C489.789 82.7227 489.789 82.7435 489.789 82.7609L489.793 82.7644Z" fill="#752D4B"/>
<g opacity="0.2">
<path d="M510.231 85.7594C508.957 84.8953 507.167 84.6524 505.581 85.1313C504.709 85.395 503.842 85.6553 502.971 85.9191C501.26 86.4362 499.445 87.0123 498.48 88.2582C498.202 88.6157 498.036 89.0252 498.056 89.4416C498.108 90.4759 499.177 90.8611 500.191 91.0901C502.912 91.6975 505.907 91.5482 508.52 90.6702C508.936 90.5314 509.349 90.3648 509.742 90.1774C511.779 89.2022 512.025 86.9741 510.234 85.7629L510.231 85.7594Z" fill="#ED4C62"/>
</g>
<g opacity="0.2">
<path d="M488.331 89.2336C488.318 90.0318 487.839 90.3442 487.384 90.535C486.211 91.014 484.91 90.9689 483.754 90.3997C483.893 89.0219 484.247 87.8523 484.715 86.9535C484.864 86.6724 484.986 86.4155 485.08 86.1761C485.087 86.1587 485.094 86.1414 485.1 86.124C485.416 86.2767 485.736 86.4294 486.051 86.5787C486.836 86.9535 487.665 87.3769 488.123 88.3243C488.255 88.5985 488.335 88.9108 488.331 89.2336Z" fill="#ED4C62"/>
</g>
<path d="M490.196 78.815C491.889 79.6479 492.649 81.515 492.517 83.3405C492.358 85.5755 490.917 87.4808 489.599 89.1849C488.977 89.9831 488.127 91.0936 488.811 92.107C489.574 93.2419 491.681 93.6445 492.903 93.8839C493.166 93.936 493.274 93.5299 493.01 93.4813C491.99 93.2835 490.702 93.0198 489.838 92.4194C488.058 91.1804 489.744 89.7193 490.55 88.64C491.452 87.4322 492.285 86.1378 492.698 84.6732C493.354 82.3584 492.691 79.5785 490.404 78.454C490.164 78.336 489.956 78.697 490.196 78.8185V78.815Z" fill="#ED938B"/>
<path d="M489.353 97.566C489.353 97.566 489.353 97.566 489.353 97.573C489.353 97.573 489.353 97.5868 489.353 97.6146C489.353 97.6563 489.353 97.7291 489.363 97.8298C489.366 97.8818 489.37 97.9374 489.377 97.9998C489.502 99.329 490.237 103.272 494.61 102.581C498.837 101.911 500.045 98.6662 500.354 97.4411C500.375 97.3543 500.392 97.2814 500.406 97.219V97.2086C500.364 97.153 500.319 97.1114 500.271 97.0628C500.205 97.094 500.139 97.1183 500.069 97.1461C498.758 97.5973 496.779 97.0142 495.658 96.2403C494.419 95.3831 492.934 96.5665 492.934 96.5665C492.934 96.5665 492.934 96.5665 492.927 96.5596C492.507 96.1327 492.042 96.0182 491.598 96.0772C490.463 96.2229 489.422 97.4897 489.356 97.573L489.353 97.566Z" fill="#FF676D"/>
<path d="M489.293 97.8057C489.317 97.8126 489.338 97.8265 489.362 97.83C492.94 99.2633 496.893 99.0377 500.228 97.3094C500.287 97.2816 500.346 97.2504 500.402 97.2192V97.2088C500.36 97.1532 500.315 97.1116 500.267 97.063C500.204 97.1012 500.145 97.1324 500.083 97.1602C496.786 98.8503 492.881 99.0481 489.359 97.6148C489.359 97.6148 489.356 97.6148 489.352 97.6148C489.237 97.5732 489.182 97.7571 489.293 97.8057Z" fill="#F13A56"/>
<path d="M489.242 96.9834C489.412 97.3616 489.297 97.792 488.982 98.0557C488.884 98.1356 488.77 97.9759 488.867 97.8926C489.117 97.6844 489.186 97.3443 489.054 97.0528C489.002 96.9348 489.19 96.8688 489.238 96.9834H489.242Z" fill="#F13A56"/>
<path d="M499.902 97.0007C499.958 97.0458 500.013 97.0944 500.065 97.1464C500.072 97.1499 500.079 97.1534 500.086 97.1603C500.135 97.2089 500.183 97.2575 500.232 97.3096C500.274 97.3512 500.315 97.3929 500.357 97.4414C500.475 97.5837 500.582 97.7399 500.683 97.8995C500.746 98.0071 500.926 97.9169 500.857 97.8093C500.725 97.5907 500.579 97.3859 500.406 97.2089C500.364 97.1534 500.319 97.1117 500.27 97.0631C500.187 96.9833 500.104 96.9035 500.017 96.8341C499.916 96.7543 499.812 96.9209 499.906 97.0007H499.902Z" fill="#F13A56"/>
<path d="M495.683 99.548L495.52 99.4647C494.617 99.4855 493.701 99.5029 492.83 99.2704C492.5 99.1836 492.171 99.0552 491.831 99.083C491.49 99.1107 491.136 99.3502 491.123 99.6938C491.109 100.023 491.407 100.277 491.695 100.436C492.629 100.957 493.743 101.065 494.808 100.971C495.204 100.936 495.648 100.846 495.863 100.513C496.061 100.211 495.974 99.7597 495.683 99.5515V99.548Z" fill="#FF8091"/>
<path d="M491.709 105.476C493.253 104.854 494.871 104.754 496.474 105.208C496.991 105.354 496.759 106.156 496.238 106.01C494.86 105.618 493.444 105.673 492.108 106.208C491.615 106.406 491.209 105.673 491.705 105.476H491.709Z" fill="#ED938B"/>
<g opacity="0.2">
<path d="M490.321 91.1871C491.574 91.3675 492.764 91.7458 493.892 92.3254C494.368 92.5718 494.017 93.3284 493.535 93.082C492.469 92.5371 491.359 92.1831 490.175 92.0131C489.641 91.9367 489.787 91.1142 490.318 91.1905L490.321 91.1871Z" fill="#FF6576"/>
</g>
<path d="M527.455 115.627C527.455 115.627 517.383 146.49 516.328 167.338C515.273 188.188 540.265 195.299 536.534 274.149C534.531 316.51 538.842 339.1 541.274 346.225C541.274 346.225 573.262 356.775 586.44 343.865C599.617 330.955 605.496 322.15 616.272 319.891C616.272 319.891 612.225 286.112 598.253 251.504C580.078 206.478 566.963 146.154 566.963 146.154L527.451 115.627H527.455Z" fill="#75ACF2"/>
<path d="M500.09 62.2123C500.09 62.2123 506.531 61.4939 509.995 67.7616C513.458 74.0294 520.656 82.3239 522.377 83.0666C524.099 83.8093 521.572 91.9303 521.572 91.9303C521.572 91.9303 515.086 99.5133 518.667 104.927C518.667 104.927 527.514 98.6422 530.176 93.3011C532.838 87.96 527.75 68.775 522.797 62.6322C517.845 56.4894 506.611 54.8652 503.699 56.0903C500.787 57.3154 500.09 62.2123 500.09 62.2123Z" fill="#752D4B"/>
<path d="M516.825 83.3898C516.825 83.3898 520.973 76.8826 524.946 79.7701C528.92 82.6576 524.932 88.1097 523.433 90.2025C521.83 92.4409 520.886 92.4687 518.009 91.7815C515.132 91.0944 516.825 83.3898 516.825 83.3898Z" fill="#FABBA5"/>
<path d="M518.179 91.0071C519.647 93.1796 522.108 91.6248 523.249 90.0874C524.155 88.8658 524.974 87.3873 525.54 85.9748C526.338 83.9793 526.817 81.0571 524.495 79.832C522.795 78.9366 520.935 79.6793 519.703 80.9773C519.512 81.1786 519.179 80.9009 519.373 80.6962C520.688 79.308 522.614 78.5167 524.468 79.3427C526.675 80.3283 526.918 82.7854 526.363 84.892C525.769 87.134 524.343 90.0041 522.528 91.5346C521.115 92.7284 518.939 92.9054 517.825 91.2535C517.669 91.0209 518.023 90.7711 518.179 91.0036V91.0071Z" fill="#ED938B"/>
<path d="M522.438 81.4978C521.785 81.7234 521.278 82.1398 520.917 82.7506C520.813 83.4482 520.883 84.1145 521.136 84.7462C521.122 84.9266 521.153 85.121 521.112 85.3084C520.858 86.4502 518.405 87.2866 519.057 88.6713C519.175 88.9247 518.769 89.0739 518.651 88.824C518.367 88.2236 518.436 87.71 518.814 87.1686C519.637 85.9886 520.761 86.1379 520.487 84.2291C520.258 82.6535 520.761 81.772 522.281 81.0952C522.538 80.9807 522.687 81.3902 522.434 81.5013L522.438 81.4978Z" fill="#ED938B"/>
<path opacity="0.5" d="M533.837 230.865C533.837 230.865 565.627 239.638 591.066 232.246L585.214 214.498L535.329 226.725L533.837 230.865Z" fill="#4B83DB"/>
<path d="M500.09 62.2119C500.09 62.2119 493.163 62.7185 488.193 69.6561C487.718 70.3224 487.232 70.9367 486.927 71.6135C484.48 77.024 487.291 53.6501 503.7 56.0864C520.112 58.5262 500.09 62.2084 500.09 62.2084V62.2119Z" fill="#752D4B"/>
<path d="M532.414 116.529C532.414 116.529 548.968 118.365 556.364 121.998C563.76 125.635 570.142 138.934 579.044 151.015C587.942 163.096 600.866 192.484 593.21 212.808C585.558 233.134 534.482 235.279 528.385 228.533C528.385 228.533 531.428 222.352 530.103 215.765C530.103 215.765 529.634 211.367 535.503 207.408C538.408 205.447 536.558 198.894 537.255 197.076C539.386 191.506 545.782 174.792 545.782 174.792L532.414 116.529Z" fill="#75ACF2"/>
<path d="M530.027 215.782C529.385 208.393 538.654 205.763 545.103 203.76C553.498 201.15 561.428 195.5 570.948 196.961C571.267 197.01 571.239 197.444 570.916 197.395C562.122 196.049 554.865 200.897 547.209 203.542C540.709 205.79 529.836 207.803 530.52 215.702C530.544 215.976 530.051 216.063 530.027 215.785V215.782Z" fill="#4B83DB"/>
<path d="M562.958 197.17C564.544 194.598 566.408 192.249 568.539 190.111C568.736 189.913 569.021 190.239 568.823 190.437C566.713 192.551 564.884 194.876 563.316 197.413C563.17 197.649 562.812 197.406 562.958 197.17Z" fill="#4B83DB"/>
<path d="M562.84 197.229C562.826 194.549 561.303 192.245 559.949 190.041C558.61 187.865 557.35 185.641 556.198 183.36C553.956 178.936 552.102 174.337 550.6 169.614C550.516 169.347 550.94 169.263 551.023 169.527C552.703 174.802 554.834 179.925 557.44 184.811C558.655 187.091 560.039 189.26 561.337 191.488C562.382 193.286 563.264 195.143 563.277 197.26C563.277 197.537 562.847 197.506 562.844 197.229H562.84Z" fill="#4B83DB"/>
<path d="M501.055 60.1507C514.992 59.2692 520.163 77.7184 533.809 77.6595C534.087 77.6595 534.129 78.0898 533.851 78.0898C520.139 78.1488 514.94 59.7065 501.096 60.5811C500.819 60.5984 500.777 60.1681 501.055 60.1507Z" fill="#954067"/>
<path d="M501.079 60.0014C507.069 56.7495 513.184 61.1328 517.748 64.7976C520.972 67.3866 524.251 69.6563 528.319 70.6697C532.351 71.6762 536.575 71.4818 540.518 70.1977C540.781 70.111 540.934 70.517 540.67 70.6038C534.413 72.6444 527.458 71.9052 521.864 68.3861C515.991 64.6935 509.106 56.1318 501.329 60.3554C501.086 60.4872 500.836 60.1333 501.079 60.0014Z" fill="#954067"/>
<path opacity="0.5" d="M553.297 176.697C551.527 172.921 558.141 187.109 553.192 193.373C548.244 199.637 540.834 205.128 540.834 205.128C540.834 205.128 554.577 200.56 562.958 197.17C564.694 196.469 556.326 183.159 553.297 176.697Z" fill="#4B83DB"/>
<path d="M558.752 124.445C554.941 125.764 550.835 127.208 548.021 130.383C544.946 133.85 544.141 139.15 543.853 143.7C543.277 152.824 545.775 161.993 550.818 169.402C550.7 169.489 550.582 169.576 550.468 169.663C549.975 168.354 549.482 167.046 548.993 165.737C548.892 165.467 549.274 165.252 549.378 165.522C549.871 166.831 550.363 168.139 550.853 169.447C550.936 169.666 550.655 169.937 550.502 169.708C545.172 161.878 542.624 152.13 543.513 142.502C543.915 138.157 544.797 133.347 547.729 130.047C550.603 126.812 554.771 125.344 558.658 123.998C558.925 123.904 559.019 124.352 558.755 124.442L558.752 124.445Z" fill="#4B83DB"/>
<path d="M550.461 126.646C545.411 122.429 539.459 119.552 533.015 118.237C532.744 118.181 532.772 117.747 533.046 117.803C539.57 119.135 545.595 122.019 550.707 126.288C550.919 126.465 550.679 126.826 550.464 126.646H550.461Z" fill="#4B83DB"/>
<path d="M508.659 51.1656C504.467 49.236 499.015 49.8052 495.062 52.1235C490.668 54.6986 490.082 59.5122 489.867 64.1557C489.853 64.4334 489.426 64.357 489.44 64.0828C489.669 59.0679 490.436 54.0982 495.26 51.5196C499.31 49.354 504.63 48.8369 508.843 50.7769C509.097 50.8949 508.913 51.2871 508.659 51.1691V51.1656Z" fill="#752D4B"/>
<path d="M405.689 216.323C405.689 216.323 399.605 210.503 396.641 210.191C393.674 209.879 386.997 212.86 384.161 212.075C381.326 211.291 381.937 214.13 384.803 215.497C387.666 216.865 394.875 213.96 400.004 218.25C401.156 219.211 405.689 216.327 405.689 216.327V216.323Z" fill="#FABBA5"/>
<path d="M394.139 215.89C395.419 217.465 396.582 219.1 398.484 219.968C400.226 220.762 402.149 220.971 404.037 221.162C404.311 221.189 404.307 221.623 404.03 221.595C402.097 221.397 400.098 221.193 398.31 220.377C396.356 219.485 395.152 217.819 393.83 216.195C393.656 215.98 393.962 215.671 394.135 215.89H394.139Z" fill="#DC826F"/>
<path d="M404.342 214.925C404.991 215.754 405.442 216.671 405.692 217.694C405.758 217.965 405.338 218.073 405.272 217.799C405.043 216.855 404.637 215.994 404.036 215.227C403.866 215.008 404.172 214.703 404.342 214.922V214.925Z" fill="#DC826F"/>
<path d="M405.841 228.672C405.748 229.897 405.335 231.045 404.609 232.038C404.446 232.26 404.071 232.045 404.235 231.819C404.918 230.886 405.321 229.817 405.408 228.665C405.428 228.387 405.862 228.39 405.841 228.672Z" fill="#DC826F"/>
<path d="M506.58 80.8142C505.646 81.366 504.664 81.7338 503.661 81.9664C502.256 82.2995 500.798 82.3724 499.32 82.3377C498.886 82.3238 498.448 82.303 498.011 82.2787C496.908 82.2128 496.838 81.897 497.945 81.8275C498.507 81.7928 499.014 81.7547 499.476 81.7061C501.246 81.536 502.342 81.2931 503.102 81.005C504.393 80.5157 504.716 79.9049 505.709 79.3218C506.667 78.7561 507.534 80.245 506.58 80.8142Z" fill="#752D4B"/>
<path d="M490.417 82.8926C490.4 83.0245 490.143 83.1112 489.754 83.1633C488.737 83.3021 486.797 83.2049 485.815 82.9932C485.239 82.8683 484.66 82.6531 484.073 82.3026C483.348 81.8757 483.611 80.3001 484.34 80.7305C484.85 81.0324 485.225 81.4003 486.037 81.8514C486.259 81.9729 486.513 82.1048 486.815 82.2367C487.446 82.5213 488.907 82.6219 489.789 82.7087C490.358 82.7642 490.691 82.8093 490.417 82.8926Z" fill="#752D4B"/>
<path d="M527.455 115.626C527.455 115.626 515.434 149.776 516.329 167.337C516.329 167.337 524.918 157.987 526.709 151.432C526.709 151.432 523.648 147.555 523.745 145.827C523.745 145.827 527.552 144.355 530.315 145.39C530.315 145.39 536.666 131.039 538.28 117.337C538.28 117.337 533.428 114.62 527.455 115.626Z" fill="#DDEFFF"/>
<path d="M504.643 117.49C504.643 117.49 495.294 146.91 498.705 174.25C498.705 174.25 489.848 156.041 490.192 147.496C490.192 147.496 493.413 146.424 493.989 145.393C493.989 145.393 491.226 141.912 489.387 141.641C489.387 141.641 493.253 126.218 497.761 120.853C502.269 115.488 504.64 117.494 504.64 117.494L504.643 117.49Z" fill="#DDEFFF"/>
<path opacity="0.5" d="M488.547 224.597C485.736 229.945 480.464 233.825 477.427 233.825H441.646C444.232 231.792 449.566 228.467 456.764 228.46C467.117 228.453 476.695 220.807 477.775 214.852C478.85 208.897 470.025 181.23 477.775 167.341C477.775 167.341 475.89 180.685 481.28 191.572C485.33 199.752 487.888 216.285 488.547 224.601V224.597Z" fill="#4B83DB"/>
<path d="M456.396 202.136C459.537 200.814 462.955 199.634 466.36 200.671C469.386 201.591 471.725 203.889 473.259 206.589C473.398 206.832 473.769 206.613 473.63 206.37C472.124 203.715 469.865 201.466 466.953 200.415C463.344 199.113 459.658 200.297 456.278 201.719C456.025 201.827 456.136 202.244 456.392 202.136H456.396Z" fill="#4B83DB"/>
<path d="M466.954 198.391C464.587 197.989 461.724 199.301 459.673 200.373C459.426 200.501 459.645 200.873 459.891 200.744C461.772 199.762 464.646 198.433 466.839 198.804C467.11 198.849 467.228 198.436 466.954 198.388V198.391Z" fill="#4B83DB"/>
<path d="M563.587 294.757C560.949 294.757 559.318 294.323 558.721 293.466C555.806 289.267 552.058 269.138 551.901 268.284C551.891 268.232 551.908 268.176 551.947 268.135C551.985 268.093 552.033 268.076 552.092 268.079C570.056 270.12 586.197 260.607 586.357 260.51C586.402 260.482 586.457 260.479 586.509 260.496C586.558 260.517 586.596 260.555 586.613 260.607C586.631 260.67 588.494 266.896 590.209 273.295C593.69 286.299 593.18 287.32 593.013 287.653C592.152 289.371 575.241 293.994 565.87 294.667C565.044 294.726 564.284 294.757 563.597 294.757H563.587ZM552.283 268.447C552.714 270.734 556.295 289.364 559.006 293.268C559.672 294.23 562.035 294.594 565.839 294.323C576.094 293.587 592.034 288.826 592.697 287.5C593.513 285.869 588.446 267.961 586.339 260.916C584.465 261.982 569.212 270.28 552.283 268.447Z" fill="#4B83DB"/>
<path d="M544.981 238.923C545.193 241.537 547.081 243.64 548.719 245.556C550.673 247.843 552.866 249.922 555.244 251.764C559.755 255.259 564.902 257.831 570.386 259.396C570.653 259.472 570.767 259.056 570.5 258.98C565.423 257.532 560.637 255.211 556.379 252.084C554.192 250.477 552.148 248.665 550.298 246.68C548.348 244.591 545.651 241.908 545.412 238.923C545.391 238.649 544.957 238.646 544.981 238.923Z" fill="#4B83DB"/>
<path d="M560.601 250.209C562.34 251.455 564.079 252.705 565.817 253.951C566.043 254.114 566.258 253.739 566.036 253.579C564.297 252.333 562.559 251.084 560.82 249.838C560.594 249.675 560.379 250.05 560.601 250.209Z" fill="#4B83DB"/>
<path d="M495.183 260.659C489.297 266.545 454.651 277.529 453.565 277.869C453.558 277.869 453.551 277.873 453.547 277.873C447.432 279.06 442.653 278.137 439.138 276.617C440.901 269.974 471.542 267.562 480.912 264.831C490.29 262.099 501.159 254.676 495.179 260.659H495.183Z" fill="#383463"/>
<path d="M477.463 159.657C478.105 167.112 476.588 174.598 477.764 182.028C478.754 188.285 481.926 195.133 487.912 198.034C488.162 198.155 488.381 197.784 488.131 197.663C481.665 194.532 478.684 186.942 477.955 180.216C477.216 173.373 478.483 166.508 477.893 159.657C477.869 159.383 477.438 159.379 477.463 159.657Z" fill="#4B83DB"/>
<path d="M545.017 459.02C544.507 459.02 544.07 458.642 544.004 458.124L516.833 240.76C516.764 240.197 517.159 239.687 517.722 239.618C518.28 239.548 518.794 239.944 518.863 240.506L546.034 457.871C546.103 458.433 545.708 458.943 545.146 459.013C545.104 459.016 545.059 459.02 545.017 459.02Z" fill="#383463"/>
<path d="M196.258 459.176C196.217 459.176 196.175 459.176 196.13 459.169C195.568 459.1 195.172 458.586 195.241 458.027L222.412 240.51C222.481 239.951 222.991 239.552 223.554 239.621C224.116 239.691 224.512 240.204 224.442 240.763L197.272 458.281C197.206 458.798 196.765 459.176 196.258 459.176Z" fill="#383463"/>
<path d="M550.909 240.634H218.827C216.81 240.634 215.176 239 215.176 236.984C215.176 234.967 216.81 233.333 218.827 233.333H550.909C552.926 233.333 554.56 234.967 554.56 236.984C554.56 239 552.926 240.634 550.909 240.634Z" fill="#2D2B4E"/>
<path d="M563.035 240.634H298.961C296.944 240.634 295.31 239 295.31 236.984C295.31 234.967 296.944 233.333 298.961 233.333H563.035C565.051 233.333 566.686 234.967 566.686 236.984C566.686 239 565.051 240.634 563.035 240.634Z" fill="#666294"/>
<path d="M288.946 459.242C288.904 459.242 288.859 459.242 288.817 459.235C288.255 459.166 287.859 458.655 287.929 458.093L315.099 240.506C315.169 239.944 315.679 239.545 316.241 239.618C316.803 239.687 317.199 240.197 317.13 240.76L289.959 458.346C289.893 458.864 289.452 459.242 288.946 459.242Z" fill="#383463"/>
<path opacity="0.2" d="M430.075 0H331.925C327.548 0 324 3.51441 324 7.84965V118.15C324 122.486 327.548 126 331.925 126H430.075C434.452 126 438 122.486 438 118.15V7.84965C438 3.51441 434.452 0 430.075 0Z" fill="#ABC7F2"/>
<path d="M404.527 225.515L362.044 210.207C361.733 210.095 361.422 210.031 361.115 210.005H361.018C360.887 209.998 360.756 209.998 360.624 210.005H335L337.532 221.521H357.167V230.175C357.167 232.289 358.815 234 360.842 234H403.325C405.356 234 407 232.285 407 230.175V229.132C407 227.5 406.005 226.051 404.527 225.515Z" fill="#2D2B4E"/>
<path d="M378.31 234H335.687C333.649 234 332 232.286 332 230.176V213.829C332 211.198 334.498 209.354 336.896 210.213L379.519 225.518C381.005 226.05 382 227.502 382 229.133V230.176C382 232.289 380.347 234 378.313 234H378.31Z" fill="#51497A"/>
<path d="M208 192.877C208 192.877 230.772 185.837 240.992 172L252 190.766C252 190.766 246.441 206.59 217.404 211L208 192.881V192.877Z" fill="#51497A"/>
<path d="M237.404 200.697C240.7 202.863 243.573 205.663 245.794 209.01C248.112 212.506 249.316 216.418 250.722 220.363C253.106 227.043 257.381 232.748 264.89 231.734C268.745 231.212 272.306 229.437 276.098 228.622C280.145 227.749 284.343 228.036 288.396 228.68C295.868 229.868 303.269 232.317 310.903 231.966C319.863 231.553 328.105 225.92 337.179 227.101C338.279 227.246 338.269 225.442 337.179 225.301C329.389 224.286 322.275 228.275 314.79 229.709C306.854 231.227 298.959 228.818 291.193 227.354C287.664 226.692 284.08 226.177 280.485 226.3C276.678 226.431 273.177 227.543 269.568 228.713C265.754 229.948 261.482 231.057 257.908 228.521C254.73 226.264 253.206 222.319 251.971 218.69C250.579 214.603 249.146 210.68 246.641 207.174C244.351 203.964 241.516 201.273 238.275 199.143C237.331 198.523 236.467 200.081 237.404 200.697Z" fill="#51497A"/>
<path d="M169.096 88.5279C171.992 91.0775 175.407 91.2075 178.793 90.858C179.067 90.8311 179.071 90.271 178.793 90.3024C175.479 90.6429 172.156 90.5533 169.314 88.0485C169.085 87.8469 168.87 88.3263 169.096 88.5279Z" fill="#752D4B"/>
<path d="M169.591 88.0932C169.234 88.6046 169.038 89.1804 169.001 89.7968C168.983 90.0677 169.409 90.0677 169.426 89.7968C169.464 89.2515 169.646 88.7537 169.962 88.3066C170.12 88.0831 169.749 87.8731 169.594 88.0932H169.591Z" fill="#752D4B"/>
<path d="M500 60.8056C500 60.8056 508.344 62.3946 509.204 69.1623C510.065 75.9299 515.644 79.54 520 78.9343V74.8581C520 74.8581 513.258 75.4025 511.767 70.8261C510.277 66.2497 510.194 62.626 505.742 60.809C501.289 58.9887 500.004 60.809 500.004 60.809L500 60.8056Z" fill="#752D4B"/>
<path d="M89.2612 214.886C95.9195 213.671 102.755 214.761 108.687 217.972C108.921 218.101 109.132 217.745 108.898 217.62C102.862 214.353 95.9228 213.259 89.1506 214.494C88.886 214.544 88.9999 214.936 89.2612 214.89V214.886Z" fill="#E58F78"/>
<path opacity="0.4" d="M125.416 225.035C125.416 225.035 147.134 243.752 163.139 243.542C179.143 243.331 179.026 244.014 177.14 246.419C175.253 248.824 158.794 254.313 153.766 252.712C148.738 251.111 121.302 223.893 125.419 225.035H125.416Z" fill="#E84261"/>
<path opacity="0.4" d="M168.28 256.862C168.28 256.862 183.587 254.687 185.394 251.96C187.201 249.234 191.605 241.605 192.65 243.223C193.696 244.841 192.311 254.547 189.644 256.859C186.978 259.171 165.32 257.333 168.277 256.859L168.28 256.862Z" fill="#E84261"/>
<path d="M412.363 16.9186C398.422 10.6613 383.745 22.2632 381.257 31.9077C378.519 21.0555 363.953 10.7966 350.317 16.9186C329.053 26.459 343.567 58.9326 381.299 77.1076C419.03 58.9326 433.627 26.459 412.363 16.9186Z" fill="#FF6576"/>
<path d="M365.688 59.5853C365.664 59.5853 365.636 59.5853 365.612 59.5853C365.185 59.5506 364.845 59.2209 364.79 58.7975L361.517 33.5356L356.825 44.2699C356.679 44.5996 356.353 44.8148 355.992 44.8148H338.212C337.713 44.8148 337.307 44.4087 337.307 43.909C337.307 43.4092 337.713 43.0032 338.212 43.0032H355.398L361.163 29.8152C361.326 29.4404 361.718 29.2218 362.121 29.2808C362.523 29.3398 362.839 29.6591 362.891 30.0616L366.049 54.4211L369.208 44.1623C369.326 43.7806 369.676 43.5203 370.075 43.5203H376.444L378.713 32.9769C378.807 32.5465 379.192 32.2481 379.633 32.2619C380.074 32.2758 380.438 32.6055 380.501 33.0393L383.315 52.8074L384.769 44.2769C384.842 43.8396 385.22 43.5203 385.665 43.5203H394.622L397.416 29.9922C397.506 29.5584 397.898 29.2461 398.339 29.2704C398.783 29.2877 399.148 29.6209 399.203 30.0616L402.104 52.8108L403.819 43.5654C403.899 43.1351 404.274 42.8227 404.711 42.8227H424.455C424.954 42.8227 425.36 43.2288 425.36 43.7285C425.36 44.2283 424.954 44.6343 424.455 44.6343H405.467L402.833 58.8426C402.75 59.2833 402.358 59.5957 401.917 59.5853C401.469 59.5714 401.098 59.2382 401.042 58.794L398.093 35.6839L396.25 44.61C396.163 45.03 395.792 45.3354 395.361 45.3354H386.428L384.131 58.8322C384.058 59.2695 383.68 59.5887 383.235 59.5887H383.221C382.774 59.5818 382.399 59.2521 382.336 58.8079L379.418 38.3215L378.061 44.617C377.971 45.0334 377.603 45.3319 377.172 45.3319H370.742L366.553 58.9432C366.435 59.325 366.081 59.5853 365.685 59.5853H365.688Z" fill="white"/>
<path d="M339.826 91.0037C349.478 90.438 359.143 90.2402 368.805 90.4103C369.916 90.4311 369.916 88.7028 368.805 88.6854C359.14 88.5154 349.474 88.7132 339.826 89.2789C338.723 89.3448 338.716 91.0697 339.826 91.0037Z" fill="white"/>
<path d="M376.413 91.0452C392.215 90.8717 408.016 90.9203 423.814 91.184C424.924 91.2014 424.924 89.4765 423.814 89.4592C408.016 89.192 392.215 89.1468 376.413 89.3204C375.303 89.3308 375.299 91.0591 376.413 91.0452Z" fill="white"/>
<path d="M339.729 98.5696C353.306 98.5696 366.879 98.573 380.456 98.5765C381.566 98.5765 381.566 96.8517 380.456 96.8517C366.879 96.8517 353.306 96.8482 339.729 96.8447C338.619 96.8447 338.619 98.5696 339.729 98.5696Z" fill="white"/>
<path d="M387.592 98.8785C397.177 99.2186 406.773 99.1596 416.355 98.7084C417.462 98.6564 417.466 96.9315 416.355 96.9836C406.773 97.4347 397.181 97.4937 387.592 97.1536C386.481 97.1155 386.481 98.8403 387.592 98.8785Z" fill="white"/>
<path d="M340.09 106.108C345.47 105.886 350.846 106.024 356.204 106.514C357.311 106.614 357.304 104.889 356.204 104.789C350.842 104.296 345.47 104.161 340.09 104.383C338.983 104.428 338.98 106.153 340.09 106.108Z" fill="white"/>
<path d="M362.187 106.586C371.925 106.44 381.663 106.298 391.405 106.152C392.516 106.135 392.519 104.41 391.405 104.427C381.667 104.573 371.928 104.715 362.187 104.861C361.076 104.879 361.073 106.603 362.187 106.586Z" fill="white"/>
<path d="M583.674 329.042C576.289 334.319 567.963 337.887 559.161 339.547C558.878 339.599 559 340.048 559.279 339.996C568.117 338.328 576.486 334.741 583.899 329.442C584.135 329.274 583.913 328.87 583.674 329.042Z" fill="#4B83DB"/>
<path d="M549.156 330.376C556.884 332.292 564.985 332.515 572.842 331.034C573.119 330.982 573.002 330.614 572.724 330.666C564.943 332.132 556.927 331.906 549.273 330.008C548.999 329.941 548.882 330.308 549.156 330.376Z" fill="#4B83DB"/>
<path d="M610.157 447.113C609.987 446.228 610.549 445.391 610.99 444.607C611.427 443.819 611.736 442.764 611.153 442.08C610.837 441.709 610.337 441.56 609.869 441.428C607.783 440.841 605.701 440.251 603.615 439.665L602.456 439.287C600.828 440.668 598.913 441.712 596.868 442.334C597.278 443.843 597.524 445.395 597.601 446.956C596.57 447.314 595.539 447.671 594.508 448.029C594.182 448.143 593.814 448.296 593.717 448.629C593.662 448.82 593.714 449.025 593.766 449.216C594.314 451.253 594.859 453.29 595.407 455.324C595.525 455.758 595.654 456.216 595.987 456.518C596.226 456.736 596.546 456.847 596.851 456.951C597.712 457.243 598.569 457.535 599.43 457.826C599.947 458 600.558 458.163 600.998 457.843C601.738 457.312 601.526 455.772 602.432 455.674C602.727 455.643 603.004 455.813 603.254 455.976C604.247 456.625 605.416 457.295 606.548 456.945C606.971 456.813 607.339 456.549 607.689 456.278C609.827 454.644 611.708 452.672 613.239 450.462C612.59 449.056 610.452 448.64 610.16 447.12L610.157 447.113Z" fill="white"/>
<path d="M641.111 449.875C641.236 448.983 642.038 448.372 642.704 447.768C643.371 447.165 644.002 446.262 643.669 445.426C643.489 444.971 643.065 444.669 642.663 444.395C640.879 443.17 639.092 441.941 637.308 440.716L636.329 439.984C634.344 440.768 632.196 441.143 630.061 441.077C629.964 442.636 629.697 444.187 629.27 445.69C628.18 445.697 627.087 445.704 625.997 445.71C625.654 445.71 625.255 445.742 625.057 446.023C624.942 446.186 624.925 446.394 624.915 446.592C624.779 448.695 624.644 450.802 624.505 452.905C624.477 453.353 624.453 453.828 624.672 454.224C624.828 454.508 625.095 454.713 625.352 454.911C626.074 455.463 626.792 456.014 627.514 456.566C627.948 456.896 628.475 457.246 628.996 457.087C629.867 456.82 630.162 455.293 631.047 455.49C631.338 455.556 631.543 455.806 631.727 456.039C632.456 456.972 633.351 457.982 634.538 458.013C634.982 458.024 635.416 457.892 635.836 457.75C638.387 456.889 640.799 455.626 642.961 454.022C642.798 452.485 640.907 451.402 641.118 449.868L641.111 449.875Z" fill="white"/>
<path d="M629.866 440.154C629.991 439.262 630.793 438.652 631.459 438.048C632.126 437.444 632.757 436.542 632.424 435.705C632.244 435.251 631.82 434.949 631.418 434.674C629.634 433.449 627.847 432.221 626.063 430.996L625.084 430.263C623.099 431.048 620.951 431.423 618.816 431.357C618.719 432.915 618.452 434.466 618.025 435.969C616.935 435.976 615.842 435.983 614.752 435.99C614.409 435.99 614.01 436.021 613.812 436.302C613.697 436.465 613.68 436.673 613.669 436.875C613.534 438.978 613.399 441.084 613.26 443.188C613.232 443.635 613.208 444.111 613.427 444.506C613.583 444.791 613.85 444.996 614.107 445.194C614.829 445.745 615.547 446.297 616.269 446.849C616.703 447.179 617.23 447.529 617.751 447.37C618.622 447.102 618.917 445.575 619.802 445.773C620.093 445.839 620.298 446.089 620.482 446.321C621.211 447.255 622.106 448.265 623.293 448.296C623.737 448.307 624.171 448.175 624.591 448.032C627.142 447.172 629.554 445.908 631.716 444.305C631.553 442.768 629.662 441.685 629.873 440.151L629.866 440.154Z" fill="white"/>
<g opacity="0.7">
<path d="M649.863 459.474H592.551C591.41 459.474 590.434 458.621 590.285 457.489L577.288 358.264H662.163L661.986 360.041L652.421 457.16C652.293 458.478 651.193 459.474 649.863 459.474ZM578.079 358.958L578.211 359.961L590.972 457.399C591.076 458.187 591.757 458.78 592.551 458.78H649.863C650.832 458.78 651.633 458.055 651.73 457.09L661.396 358.958H578.079Z" fill="#ABC7F2"/>
<path d="M661.944 360.006H577.489C576.785 360.006 576.216 359.437 576.216 358.733C576.216 358.028 576.785 357.459 577.489 357.459H661.944C662.649 357.459 663.218 358.028 663.218 358.733C663.218 359.437 662.649 360.006 661.944 360.006Z" fill="#ABC7F2"/>
<path d="M608.748 358.672L608.055 358.705L612.919 458.888L613.613 458.855L608.748 358.672Z" fill="#ABC7F2"/>
<path d="M597.816 358.768L597.125 358.829L605.996 459.013L606.687 458.952L597.816 358.768Z" fill="#ABC7F2"/>
<path d="M586.621 358.742L585.932 358.826L598.055 459.01L598.744 458.927L586.621 358.742Z" fill="#ABC7F2"/>
<path d="M644.084 358.67L636.322 458.852L637.014 458.905L644.776 358.724L644.084 358.67Z" fill="#ABC7F2"/>
<path d="M653.591 358.425L644.099 458.844L644.79 458.91L654.282 358.49L653.591 358.425Z" fill="#ABC7F2"/>
<path d="M633.305 358.106L629.285 459.081L629.979 459.108L633.999 358.134L633.305 358.106Z" fill="#ABC7F2"/>
<path d="M621.319 360.006H620.625V458.916H621.319V360.006Z" fill="#ABC7F2"/>
</g>
</svg>
