<svg width="15" height="16" viewBox="0 0 15 16" fill="none" xmlns="http://www.w3.org/2000/svg">
<path d="M10.8251 4.2645C10.8251 3.38258 10.4749 2.53685 9.85134 1.91325C9.22766 1.28969 8.3819 0.939453 7.50009 0.939453C6.61828 0.939453 5.77253 1.28969 5.14885 1.91325C4.52528 2.53682 4.17505 3.38258 4.17505 4.2645C4.17505 5.14631 4.52528 5.99206 5.14885 6.61563C5.77253 7.23919 6.61828 7.58954 7.50009 7.58954C8.3819 7.58954 9.22766 7.23919 9.85134 6.61563C10.4749 5.99206 10.8251 5.14631 10.8251 4.2645ZM9.29777 4.74181H7.97738V6.07817H7.02275V4.74181H5.70227V3.78719H7.02275V2.4667H7.97738V3.78719H9.29786L9.29777 4.74181Z" fill="white"/>
<path d="M14.6115 6.0303C14.5834 5.79093 14.4629 5.57208 14.2756 5.42049C14.0883 5.26879 13.8491 5.19643 13.6092 5.21885H13.5933C13.3468 5.24304 13.12 5.36367 12.9621 5.55434C12.8041 5.7451 12.7279 5.99048 12.7501 6.23705L12.9887 8.78262L11.9228 10.294H11.8592L12.2411 9.10078H12.2409C12.3295 8.8846 12.3328 8.6429 12.2502 8.42437C12.1675 8.20584 12.005 8.02686 11.7955 7.92354H11.7796C11.5728 7.82854 11.3382 7.81345 11.1209 7.88103C10.9036 7.9485 10.7189 8.09399 10.6023 8.28942L9.12274 10.7394C9.00178 10.9233 8.94063 11.1401 8.94773 11.3599L8.86816 15.035H12.3046L12.3842 13.2373L14.7706 10.1827C14.9446 9.96228 15.0246 9.68218 14.9933 9.40308L14.6115 6.0303Z" fill="white"/>
<path d="M5.87727 10.7394L4.39775 8.27346C4.28112 8.07803 4.09647 7.93265 3.87916 7.86507C3.66187 7.79759 3.42728 7.81269 3.2204 7.90757H3.20453C2.99878 8.01078 2.83909 8.18712 2.75662 8.40196C2.67428 8.61681 2.67505 8.85475 2.75906 9.06893L3.14092 10.2621H3.07733L2.01131 8.78262L2.2499 6.23705C2.2721 5.99046 2.19597 5.74511 2.03794 5.55434C1.88002 5.36368 1.65319 5.24305 1.40671 5.21885C1.16678 5.19643 0.927634 5.26879 0.740301 5.42049C0.552973 5.57208 0.432453 5.79092 0.404384 6.0303L0.00664842 9.40311C-0.0246477 9.68221 0.0553653 9.96232 0.229375 10.1827L2.61579 13.2373L2.69536 15.0191H6.1318L6.05223 11.3441C6.05711 11.1294 5.99607 10.9184 5.87722 10.7395L5.87727 10.7394Z" fill="white"/>
</svg>
