<svg width="26" height="24" viewBox="0 0 26 24" fill="none" xmlns="http://www.w3.org/2000/svg">
<path d="M0 6.56283V2.2047C0 1.56047 0.441066 1.01611 0.96311 1.01611C1.48513 1.01611 1.92622 1.56046 1.92622 2.2047L1.92599 6.56283H0Z" fill="#E87B70"/>
<path d="M18.4994 0.00751651C18.4994 0.00751651 1.37948 -0.00939564 1.00195 0.00751651C2.0408 0.0517131 2.87449 1.02564 2.87449 2.20967V23.7474C2.87449 23.8144 2.9011 23.8787 2.94845 23.926C2.9958 23.9734 3.06007 24 3.12704 24H17.2158C15.8746 23.0752 14.9942 21.6199 14.7976 20.0029C14.6009 18.3856 15.1069 16.7617 16.1875 15.5426C17.2681 14.3234 18.8195 13.6259 20.4484 13.6268C20.5305 13.6268 20.6121 13.6295 20.6933 13.6331V2.20092C20.6929 1.61938 20.4617 1.06151 20.0502 0.650438C19.6389 0.239137 19.0812 0.00774742 18.4994 0.00751651ZM13.0696 19.2772H6.72427C6.44534 19.2772 6.21916 19.051 6.21916 18.7721C6.21916 18.4932 6.44534 18.267 6.72427 18.267H13.0696C13.3485 18.267 13.5747 18.4932 13.5747 18.7721C13.5747 19.051 13.3485 19.2772 13.0696 19.2772ZM14.3323 15.9568H6.72456C6.44563 15.9568 6.21945 15.7306 6.21945 15.4517C6.21945 15.1727 6.44563 14.9466 6.72456 14.9466H14.3323C14.6113 14.9466 14.8374 15.1727 14.8374 15.4517C14.8374 15.7306 14.6113 15.9568 14.3323 15.9568ZM16.8579 12.635H6.72456C6.44563 12.635 6.21945 12.4089 6.21945 12.1299C6.21945 11.851 6.44563 11.6248 6.72456 11.6248H16.8579C17.1368 11.6248 17.363 11.851 17.363 12.1299C17.363 12.4089 17.1368 12.635 16.8579 12.635ZM6.21945 8.80931C6.21945 8.53038 6.44563 8.30421 6.72456 8.30421H12.817C13.096 8.30421 13.3221 8.53038 13.3221 8.80931C13.3221 9.08825 13.096 9.31442 12.817 9.31442H6.72456C6.44563 9.31442 6.21945 9.08825 6.21945 8.80931ZM16.8579 9.31442H15.359C15.0798 9.31442 14.8539 9.08825 14.8539 8.80931C14.8539 8.53038 15.0798 8.30421 15.359 8.30421H16.8583C17.1373 8.30421 17.3634 8.53038 17.3634 8.80931C17.3634 9.08825 17.1373 9.31442 16.8583 9.31442H16.8579ZM16.8579 5.06794L6.72456 5.06817C6.44563 5.06817 6.21945 4.84199 6.21945 4.56306C6.21945 4.2839 6.44563 4.05795 6.72456 4.05795H16.8579C17.1368 4.05795 17.363 4.2839 17.363 4.56306C17.363 4.84199 17.1368 5.06817 16.8579 5.06817V5.06794Z" fill="#E87B70"/>
<path d="M20.4479 14.6367C19.206 14.6367 18.0154 15.1299 17.1373 16.008C16.2593 16.8858 15.7661 18.0766 15.7661 19.3182C15.7661 20.56 16.2593 21.7507 17.1373 22.6287C18.0154 23.5068 19.206 24 20.4479 24C21.6894 24 22.8803 23.5068 23.7581 22.6287C24.6362 21.7507 25.1294 20.56 25.1294 19.3182C25.128 18.0771 24.6344 16.8872 23.7568 16.0093C22.8789 15.1317 21.689 14.6381 20.4479 14.6368L20.4479 14.6367ZM20.3856 18.8149C20.6724 18.8704 20.9514 18.9604 21.2164 19.0832C21.5424 19.2758 21.776 19.5931 21.8631 19.9618C21.9497 20.3165 21.9052 20.6906 21.7384 21.0153C21.5713 21.3402 21.2928 21.5937 20.9539 21.7297V22.1362C20.9539 22.4154 20.7277 22.6413 20.4488 22.6413C20.1698 22.6413 19.9437 22.4154 19.9437 22.1362V21.7687V21.7689C19.4776 21.6246 19.1089 21.266 18.9519 20.804C18.9093 20.677 18.919 20.5384 18.9787 20.4184C19.0383 20.2984 19.1434 20.2071 19.2703 20.1647C19.5348 20.0759 19.8212 20.2186 19.9098 20.4831C19.9811 20.6969 20.1854 20.8376 20.4106 20.8279C20.5626 20.8189 20.7026 20.7431 20.7935 20.6209C20.8844 20.4989 20.9164 20.3429 20.8815 20.1947C20.8014 19.8592 20.3624 19.8614 20.0986 19.783C19.7563 19.6937 19.455 19.4894 19.2455 19.2041C19.0363 18.9191 18.9314 18.5705 18.9486 18.2171C18.9684 17.9238 19.0728 17.6424 19.2494 17.4072C19.4262 17.172 19.6672 16.9932 19.9437 16.8926V16.4993C19.9437 16.2204 20.1698 15.9942 20.4488 15.9942C20.7277 15.9942 20.9539 16.2204 20.9539 16.4993V16.8811C21.2236 16.9715 21.4619 17.1368 21.6416 17.3573C21.8211 17.5779 21.9343 17.8449 21.9681 18.1274C22.0024 18.4041 21.8058 18.6564 21.5289 18.6907C21.252 18.725 20.9999 18.5283 20.9656 18.2517C20.9333 17.993 20.7108 17.8009 20.4503 17.8072C20.1901 17.8133 19.9768 18.0158 19.9569 18.2756C19.9551 18.5338 20.1335 18.7585 20.3856 18.8149Z" fill="#E87B70"/>
</svg>
