<svg width="31" height="24" viewBox="0 0 31 24" fill="none" xmlns="http://www.w3.org/2000/svg">
<path d="M15.5012 13.8917C17.999 13.8917 19.6958 11.8663 19.6958 9.36823C19.6958 6.87068 17.999 4.84521 15.5012 4.84521C13.0029 4.84521 11.3052 6.87019 11.3052 9.36823C11.3052 11.866 13.0029 13.8917 15.5012 13.8917Z" fill="#AE79F0"/>
<path d="M21.5236 23.0416C22.1649 22.3023 22.5579 21.0095 22.613 19.8554C22.613 17.2043 21.1632 14.903 19.019 13.6714C18.0943 14.5157 16.8744 15.0155 15.5001 15.0155C14.1265 15.0155 12.9064 14.5157 11.9811 13.6714C9.83653 14.9028 8.38721 17.2041 8.38721 19.8554C8.44175 21.0095 8.83579 22.3023 9.47633 23.0416C10.0914 23.7888 21.2915 23.7341 21.5234 23.0416H21.5236Z" fill="#AE79F0"/>
<path d="M23.8889 9.04677C26.3865 9.04677 28.0842 7.02105 28.0842 4.52326C28.0842 2.02571 26.3865 0 23.8889 0C21.3904 0 19.6924 2.02547 19.6924 4.52326C19.6926 7.02105 21.3903 9.04677 23.8889 9.04677Z" fill="#AE79F0"/>
<path d="M7.11303 9.04677C9.61082 9.04677 11.3088 7.02105 11.3088 4.52326C11.3088 2.02571 9.61106 0 7.11303 0C4.61474 0 2.91699 2.02547 2.91699 4.52326C2.91747 7.02105 4.61474 9.04677 7.11303 9.04677Z" fill="#AE79F0"/>
<path d="M27.4066 8.82576C26.4821 9.67027 25.2628 10.17 23.8884 10.17C22.6856 10.17 21.6004 9.78703 20.7284 9.12463C20.7311 9.20512 20.7339 9.28585 20.7339 9.36706C20.7339 10.7034 20.3327 11.9009 19.647 12.8399C21.7933 14.1188 23.2306 16.304 23.5715 18.7351C26.6277 18.7481 29.7894 18.5604 29.9112 18.1959C30.5525 17.4566 30.946 16.1637 31.0003 15.0097C31.0003 12.3588 29.5508 10.0576 27.4064 8.82568L27.4066 8.82576Z" fill="#AE79F0"/>
<path d="M7.42904 18.7355C7.76999 16.304 9.207 14.1192 11.3543 12.8403C10.6686 11.9015 10.2673 10.7048 10.2673 9.36796C10.2673 9.28675 10.2697 9.20602 10.2728 9.12553C9.40112 9.78748 8.31611 10.1709 7.11356 10.1709C5.73946 10.1709 4.51963 9.67117 3.59461 8.82666C1.45 10.0582 0 12.3591 0 15.0107C0.055021 16.1647 0.44858 17.4576 1.08987 18.1969C1.40293 18.578 4.46901 18.75 7.42891 18.7356L7.42904 18.7355Z" fill="#AE79F0"/>
</svg>
