<svg width="21" height="22" viewBox="0 0 21 22" fill="none" xmlns="http://www.w3.org/2000/svg">
<path d="M10.4963 0C7.1636 0 4.44971 2.69629 4.44971 6.01141C4.44971 6.91845 4.64531 7.78623 5.02594 8.57586C6.81854 12.6841 10.1905 16.7036 10.2261 16.7427L10.4964 17.0663L10.7666 16.7427C10.8022 16.7036 14.1635 12.6842 15.9526 8.5866C16.3438 7.76846 16.543 6.90067 16.543 6.00789C16.543 2.69646 13.8291 0.000343615 10.4963 0.000343615V0ZM10.4963 8.4335C9.11974 8.4335 8.00652 7.32028 8.00652 5.94369C8.00652 4.56709 9.11974 3.45388 10.4963 3.45388C11.8729 3.45388 12.9861 4.56709 12.9861 5.94369C12.9861 7.32028 11.8729 8.4335 10.4963 8.4335Z" fill="#104651"/>
<path d="M18.2612 11.1048L15.9135 10.3223C14.0213 13.9823 11.3429 17.1694 11.3145 17.2012L11.0441 17.5248L10.4999 18.1721L9.95572 17.5285L9.68547 17.2047C9.65343 17.1691 6.97157 13.9716 5.07921 10.3258L2.73889 11.1049L0 21.2703L5.16454 18.8872L10.5 21.377L15.8355 18.8872L21 21.2703L18.2612 11.1048Z" fill="#104651"/>
</svg>
