<svg width="23" height="24" viewBox="0 0 23 24" fill="none" xmlns="http://www.w3.org/2000/svg">
<path fill-rule="evenodd" clip-rule="evenodd" d="M20.8775 15.1848H20.3995C21.7163 15.1848 22.7765 16.2466 22.7765 17.5567V18.0327C22.7765 18.5603 22.3515 18.981 21.8268 18.981H0.949634C0.42467 18.981 0 18.5563 0 18.0327V17.5567C0 16.2473 1.0642 15.1848 2.37692 15.1848H1.89896C2.42061 15.1848 2.84699 14.7595 2.84699 14.2348V8.54137C2.84699 3.82201 6.67103 0 11.3884 0C16.1068 0 19.9297 3.82404 19.9297 8.54137V14.2348C19.9297 14.7628 20.3541 15.1848 20.8777 15.1848H20.8775ZM8.0663 19.93H14.7094C14.7094 21.7644 13.2222 23.2516 11.3879 23.2516C9.5535 23.2516 8.0663 21.7644 8.0663 19.93Z" fill="#104651"/>
</svg>
