<svg width="17" height="21" viewBox="0 0 17 21" fill="none" xmlns="http://www.w3.org/2000/svg">
<path d="M17 2.51993C17 1.11991 15.9033 0 14.5323 0H5.20963C3.83864 0 2.74195 1.11991 2.74195 2.51993V2.80001H2.46768C1.09669 2.80001 0 3.91992 0 5.31994V18.4801C0 19.8801 1.09669 21 2.46768 21H11.7904C13.1614 21 14.258 19.8801 14.258 18.4801V18.2H14.5323C15.9033 18.2 17 17.0801 17 15.6801V2.51993ZM8.2257 4.90005H11.7903C12.2564 4.90005 12.6129 5.26411 12.6129 5.74011C12.6129 6.2161 12.2564 6.58017 11.7903 6.58017H8.2257C7.75958 6.58017 7.40306 6.2161 7.40306 5.74011C7.40325 5.26413 7.75957 4.90005 8.2257 4.90005ZM12.6129 18.4802C12.6129 18.9562 12.2564 19.3203 11.7903 19.3203L2.46761 19.3201C2.0015 19.3201 1.64497 18.956 1.64497 18.48V5.31986C1.64497 4.84388 2.00148 4.4798 2.46761 4.4798H2.74188V15.6799C2.74188 17.0799 3.83857 18.1998 5.20956 18.1998H12.6129L12.6129 18.4802ZM13.4356 13.5801H6.58066C6.11455 13.5801 5.75802 13.2161 5.75802 12.7401C5.75802 12.2641 6.11454 11.9 6.58066 11.9H13.4356C13.9017 11.9 14.2582 12.2641 14.2582 12.7401C14.2582 13.2161 13.9017 13.5801 13.4356 13.5801ZM13.4356 10.22H6.58066C6.11455 10.22 5.75802 9.85589 5.75802 9.3799C5.75802 8.90392 6.11454 8.53984 6.58066 8.53984H13.4356C13.9017 8.53984 14.2582 8.9039 14.2582 9.3799C14.2582 9.85607 13.9017 10.22 13.4356 10.22Z" fill="#104651"/>
</svg>
