<svg width="25" height="25" viewBox="0 0 25 25" fill="none" xmlns="http://www.w3.org/2000/svg">
<rect width="24.7303" height="24.7303" rx="5" fill="#488DF4"/>
<g opacity="0.5">
<path d="M15.2171 8.91906H16.9337L15.0678 7.05322V8.76982C15.0429 8.84435 15.1175 8.91906 15.2171 8.91906Z" fill="white"/>
<path d="M15.217 9.41696C14.8438 9.41696 14.5701 9.1184 14.5701 8.77011L14.5702 6.38184H8.45024C8.20148 6.38184 7.97754 6.58088 7.97754 6.85454V17.8754C7.97754 18.1242 8.17658 18.3481 8.45024 18.3481H17.058C17.3067 18.3481 17.5307 18.1491 17.5307 17.8754V9.41696H15.217ZM9.04724 7.52622C9.04724 7.37698 9.14677 7.27746 9.296 7.27746H13.0774C13.2019 7.27746 13.3262 7.37698 13.3262 7.52622V8.47155C13.3262 8.59598 13.2018 8.72031 13.0774 8.72031L9.296 8.7204C9.14676 8.7204 9.04724 8.59597 9.04724 8.47164V7.52622ZM8.69895 10.3374C8.69895 10.213 8.82338 10.0887 8.94771 10.0887H16.4111C16.5355 10.0887 16.6598 10.2131 16.6598 10.3374C16.6598 10.4618 16.5354 10.5862 16.4111 10.5862H8.94771C8.82329 10.5862 8.69895 10.4866 8.69895 10.3374ZM8.69895 11.7306C8.69895 11.5813 8.82338 11.4818 8.94771 11.4818H16.4111C16.5355 11.4818 16.6598 11.5813 16.6598 11.7306C16.6598 11.855 16.5354 11.9793 16.4111 11.9793H8.94771C8.82329 11.9793 8.69895 11.8798 8.69895 11.7306ZM13.2765 13.1486C13.2765 13.273 13.177 13.3973 13.0277 13.3973H8.94776C8.82333 13.3973 8.699 13.2729 8.699 13.1486C8.699 12.9993 8.82342 12.8998 8.94776 12.8998H13.0277C13.177 12.8749 13.2765 12.9994 13.2765 13.1486ZM16.436 16.7559L16.1872 17.4275L15.5652 15.5867C15.3413 15.6364 15.1423 15.6364 14.9432 15.5867L14.3213 17.4525L14.0725 16.7809L13.4506 17.1541L14.1471 15.1141C13.9233 14.8653 13.7988 14.5418 13.7988 14.1687C13.7988 13.3477 14.4457 12.701 15.2666 12.701C16.0876 12.701 16.7343 13.3478 16.7343 14.1687C16.7343 14.5419 16.6099 14.8653 16.3861 15.1141L17.0826 17.1541L16.436 16.7559Z" fill="white"/>
<path d="M15.2418 13.0239C14.6198 13.0239 14.1223 13.5214 14.1223 14.1434C14.1223 14.7653 14.6198 15.2628 15.2418 15.2628C15.8637 15.2628 16.3612 14.7653 16.3612 14.1434C16.3861 13.5215 15.8637 13.0239 15.2418 13.0239ZM15.2418 14.9893C14.7691 14.9893 14.396 14.6161 14.396 14.1435C14.396 13.6957 14.7692 13.2977 15.2418 13.2977C15.7145 13.2977 16.0876 13.6709 16.0876 14.1435C16.0876 14.6162 15.7145 14.9893 15.2418 14.9893Z" fill="white"/>
</g>
<path d="M13.4433 18.5756C13.4433 19.3311 12.8307 19.9436 12.0752 19.9436C11.3197 19.9436 10.7073 19.3311 10.7073 18.5756C10.7073 17.82 11.3197 17.2075 12.0752 17.2075C12.8307 17.2075 13.4433 17.82 13.4433 18.5756Z" fill="#104651"/>
<path d="M13.6997 14.8309C15.4611 14.1298 16.5725 12.3684 16.4529 10.4703C16.3161 8.26443 14.5547 6.50303 12.3488 6.36623C11.1176 6.29788 9.9548 6.7082 9.06552 7.54618C8.19343 8.36697 7.68042 9.54692 7.68042 10.7439C7.68042 11.4109 8.2105 11.9409 8.87741 11.9409C9.54433 11.9409 10.0744 11.4109 10.0744 10.7439C10.0744 10.1796 10.2968 9.6666 10.7071 9.29036C11.1175 8.91415 11.6476 8.72604 12.212 8.76028C13.2038 8.82863 14.0075 9.63236 14.0759 10.6242C14.1272 11.4792 13.6141 12.2829 12.8104 12.6079C11.6305 13.0696 10.878 14.164 10.878 15.4123C10.878 16.0792 11.4081 16.6093 12.075 16.6093C12.7419 16.6093 13.272 16.0792 13.272 15.4123C13.2721 15.1559 13.4431 14.9335 13.6997 14.8309L13.6997 14.8309Z" fill="#104651"/>
</svg>
