<svg width="24" height="20" viewBox="0 0 24 20" fill="none" xmlns="http://www.w3.org/2000/svg">
<path d="M13.6843 19.9998V16.6534C12.3685 16.45 11.3216 15.2813 11.3216 13.8873L11.2996 12.8944H10.5635C10.2771 12.8944 10.0165 12.7437 9.86612 12.5001C9.71542 12.2567 9.70183 11.9556 9.83014 11.6995L11.1059 8.85024C11.1283 7.88397 11.2952 7.03571 11.6019 6.32969C11.6153 6.29701 11.7429 5.99762 11.858 5.82597C12.0909 5.4225 12.398 5.05774 12.7664 4.74824C13.933 3.62977 15.477 3.01172 17.1085 3.01172C20.5892 3.01172 23.422 5.84341 23.422 9.32425C23.422 11.3033 22.6313 13.4001 21.3156 14.5625L21.3157 19.9996L13.6843 19.9998Z" fill="#F0985B"/>
<path d="M8.15785 12.6315C8.15785 12.7767 8.04 12.8947 7.89461 12.8947L3.42095 12.8945C3.27575 12.8945 3.15771 12.7767 3.15771 12.6313V12.105C3.15771 11.9598 3.27556 11.8418 3.42095 11.8418H7.89461C8.03981 11.8418 8.15785 11.9596 8.15785 12.105V12.6315Z" fill="#F0985B"/>
<path d="M8.15785 14.737C8.15785 14.8822 8.04 15.0002 7.89461 15.0002L3.42095 15C3.27575 15 3.15771 14.8822 3.15771 14.7368V14.2105C3.15771 14.0653 3.27556 13.9473 3.42095 13.9473H7.89461C8.03981 13.9473 8.15785 14.0651 8.15785 14.2105V14.737Z" fill="#F0985B"/>
<path d="M12.6315 17.6302C12.3683 17.3866 11.5452 17.3684 11.1562 16.5789H2.21345C1.84705 16.5789 1.57905 16.298 1.57905 15.9318V2.33822C1.57905 1.97182 1.84705 1.579 2.21345 1.579H12.1599C12.526 1.579 12.8946 1.97183 12.8946 2.33822V3.35721C13.6841 3.0088 13.9471 2.72887 14.4736 2.51905V2.00673C14.4736 0.9079 13.5901 0 12.4915 0H1.88192C0.783087 0 0 0.907899 0 2.00654V17.9211C0 19.0199 0.783087 20 1.88192 20H12.6315V17.6302ZM7.09388 19.0449C6.6513 19.0449 6.29261 18.6862 6.29261 18.2436C6.29261 17.801 6.65129 17.4423 7.09388 17.4423C7.53646 17.4423 7.89515 17.801 7.89515 18.2436C7.89515 18.6862 7.53647 19.0449 7.09388 19.0449Z" fill="#F0985B"/>
<path d="M5.5798 3.43311C3.96772 3.43311 2.66113 4.73993 2.66113 6.35178C2.66113 7.96386 3.96795 9.27045 5.5798 9.27045C7.19189 9.27045 8.49848 7.96363 8.49848 6.35178C8.49884 4.73988 7.19184 3.43311 5.5798 3.43311ZM7.3683 6.84191H6.0525V8.15771H4.99996V6.84191H3.68416V5.78937H4.99996V4.47357H6.0525V5.78937H7.3683V6.84191Z" fill="#F0985B"/>
</svg>
