<svg width="22" height="24" viewBox="0 0 22 24" fill="none" xmlns="http://www.w3.org/2000/svg">
<path d="M20.5866 15.7012C20.497 15.3428 20.497 14.8948 20.5866 14.5364L21.8409 9.69833C22.1993 8.26482 21.1242 6.9209 19.6907 6.9209H2.21973C0.786216 6.9209 -0.288919 8.26482 0.069459 9.69833L1.32378 14.5364C1.41338 14.8948 1.41338 15.3428 1.32378 15.7012L0.069459 20.5393C-0.288919 21.9728 0.786216 23.3167 2.21973 23.3167H19.7803C21.2138 23.3167 22.2889 21.9728 21.9305 20.5393L20.5866 15.7012ZM14.4942 16.3283H12.1647V18.6578H9.83527V16.3283H7.50581V13.9989H9.83527V11.6694H12.1647V13.9989H14.4942V16.3283Z" fill="#104651"/>
<path d="M16.8237 3.15821L18.0781 4.50213L16.7341 5.84605H18.3468L19.9595 4.32294L21.1243 3.15821C21.3931 2.88943 21.3931 2.53105 21.1243 2.35186L18.974 0.201588C18.7052 -0.0671959 18.3468 -0.0671959 18.1676 0.201588L16.3758 1.90389L12.4336 5.84605H14.0463L16.8237 3.15821Z" fill="#104651"/>
</svg>
