<svg width="15" height="12" viewBox="0 0 15 12" fill="none" xmlns="http://www.w3.org/2000/svg">
<path d="M14.5184 0.413086H0.481701C0.215675 0.413086 0 0.628746 0 0.894786V10.5279C0 10.7939 0.215661 11.0096 0.481701 11.0096H14.5184C14.7844 11.0096 15.0001 10.794 15.0001 10.5279V0.894786C14.9999 0.628761 14.7843 0.413086 14.5183 0.413086H14.5184ZM4.16552 1.79838C5.15201 1.79838 5.95456 2.60093 5.95456 3.58742C5.95456 4.57391 5.15201 5.37646 4.16552 5.37646C3.17902 5.37646 2.37647 4.57391 2.37647 3.58742C2.37659 2.60093 3.17914 1.79838 4.16552 1.79838ZM6.63931 8.62652C6.63931 9.13867 6.22263 9.55543 5.7104 9.55543H2.63699C2.12484 9.55543 1.70808 9.13875 1.70808 8.62652V7.16888C1.70808 6.65673 2.12475 6.23997 2.63699 6.23997H5.7104C6.22254 6.23997 6.63931 6.65664 6.63931 7.16888V8.62652ZM13.3951 9.39256H7.81938V8.49811H13.3951V9.39256ZM13.3951 7.23654H7.81938V6.34209H13.3951V7.23654ZM13.3951 5.08064H7.81938V4.18619H13.3951V5.08064ZM13.3951 2.92462H7.81938V2.03017H13.3951V2.92462Z" fill="white"/>
</svg>
