<svg width="23" height="23" viewBox="0 0 23 23" fill="none" xmlns="http://www.w3.org/2000/svg">
<path opacity="0.6" d="M22.682 21.0025L18.4256 16.7506C21.6822 12.6985 21.368 6.70591 17.6543 3.02476C15.7118 1.08442 13.1122 0 10.3412 0C7.57011 0 4.99915 1.08442 3.02804 3.02476C1.08559 4.96511 0 7.56194 0 10.33C0 13.098 1.08559 15.6662 3.02804 17.6352C4.97048 19.5755 7.57011 20.66 10.3412 20.66C12.6837 20.66 14.9689 19.8609 16.7973 18.4057L21.0538 22.6576C21.2823 22.8859 21.5679 23 21.8536 23C22.1679 23 22.4537 22.8859 22.6535 22.6576C23.1106 22.1725 23.1106 21.4591 22.682 21.0025L22.682 21.0025ZM18.397 10.3015C18.397 12.4417 17.5686 14.4678 16.0544 15.9802C14.5403 17.4926 12.512 18.3202 10.3696 18.3202C8.2271 18.3202 6.1987 17.4928 4.68476 15.9802C3.17072 14.4677 2.34218 12.4416 2.34218 10.3015C2.34218 8.16135 3.17051 6.13514 4.68476 4.62283C6.1988 3.11042 8.2271 2.28278 10.3696 2.28278C12.512 2.28278 14.5404 3.11022 16.0544 4.62283C17.5686 6.13524 18.397 8.16135 18.397 10.3015Z" fill="#104651"/>
</svg>
