<svg width="30" height="20" viewBox="0 0 30 20" fill="none" xmlns="http://www.w3.org/2000/svg">
<g opacity="0.5">
<path d="M29.7696 8.93548C29.4933 8.56707 23.1371 0 15 0C6.86288 0 0.506717 8.567 0.230362 8.93548C-0.0767872 9.36535 -0.0767872 9.94878 0.230362 10.3787C0.506667 10.7473 6.86288 19.3448 15 19.3448C23.1371 19.3448 29.4933 10.7778 29.7696 10.4094C30.0768 9.97971 30.0768 9.36542 29.7696 8.93553V8.93548ZM15 16.8884C9.38078 16.8884 4.4371 11.6375 2.77897 9.67242C4.43699 7.70723 9.35008 2.45649 15 2.45649C20.6499 2.45649 25.5629 7.70734 27.221 9.67242C25.563 11.6376 20.6192 16.8884 15 16.8884Z" fill="#104651"/>
<path d="M14.9998 3.10132C11.3766 3.10132 8.42871 6.04921 8.42871 9.67243C8.42871 13.2956 11.3766 16.2435 14.9998 16.2435C18.623 16.2435 21.5709 13.2956 21.5709 9.67243C21.5709 6.04921 18.623 3.10132 14.9998 3.10132Z" fill="#104651"/>
</g>
</svg>
