<svg width="21" height="20" viewBox="0 0 21 20" fill="none" xmlns="http://www.w3.org/2000/svg">
<path d="M20.4536 8.72636L15.42 12.3647C15.3646 12.4049 15.3412 12.4739 15.3613 12.5377L17.2048 18.3199C17.2573 18.4747 17.2566 18.6417 17.2029 18.7962C17.1491 18.9506 17.0449 19.0844 16.9058 19.1777C16.7701 19.2753 16.6054 19.3286 16.4358 19.3301C16.2661 19.3315 16.1005 19.2809 15.963 19.1856L10.8015 15.7167C10.7448 15.6784 10.669 15.6784 10.6123 15.7167L5.45119 19.1856C5.31368 19.2809 5.14805 19.3315 4.9784 19.3301C4.80874 19.3286 4.64411 19.2753 4.50833 19.1777C4.36924 19.0844 4.26504 18.9506 4.21121 18.7962C4.15753 18.6417 4.15681 18.4747 4.20935 18.3199L6.05245 12.5377C6.07269 12.4739 6.04915 12.4048 5.99374 12.3647L0.961226 8.72636C0.780231 8.59537 0.664544 8.39757 0.642152 8.18118C0.619761 7.96465 0.692819 7.74894 0.84353 7.58641C0.994241 7.42389 1.20896 7.32925 1.43559 7.3254L7.73579 7.2214C7.80512 7.22003 7.86612 7.17746 7.88894 7.11452L9.93961 1.39576C10.0135 1.19011 10.1736 1.02332 10.3813 0.93598C10.589 0.848651 10.8252 0.848651 11.0329 0.93598C11.2406 1.02331 11.4006 1.19011 11.4746 1.39576L13.5254 7.11346H13.5252C13.548 7.17641 13.609 7.21897 13.6784 7.22034L19.9786 7.32434C20.2052 7.3282 20.4199 7.42282 20.5706 7.58536C20.7213 7.74789 20.7944 7.96361 20.772 8.18012C20.7496 8.39651 20.6339 8.5943 20.4529 8.7253L20.4536 8.72636Z" fill="#C8C8C8"/>
</svg>
