<svg width="25" height="25" viewBox="0 0 25 25" fill="none" xmlns="http://www.w3.org/2000/svg">
<rect x="0.134766" width="24.7303" height="24.7303" rx="5" fill="#FE5253"/>
<g opacity="0.5">
<path d="M15.3518 8.91955H17.0684L15.2026 7.05371V8.77031C15.1777 8.84484 15.2523 8.91955 15.3518 8.91955Z" fill="white"/>
<path d="M15.3517 9.41696C14.9785 9.41696 14.7049 9.1184 14.7049 8.77011L14.705 6.38184H8.58501C8.33625 6.38184 8.1123 6.58088 8.1123 6.85454V17.8754C8.1123 18.1242 8.31135 18.3481 8.58501 18.3481H17.1927C17.4415 18.3481 17.6654 18.1491 17.6654 17.8754V9.41696H15.3517ZM9.18201 7.52622C9.18201 7.37698 9.28153 7.27746 9.43077 7.27746H13.2122C13.3366 7.27746 13.461 7.37698 13.461 7.52622V8.47155C13.461 8.59598 13.3365 8.72031 13.2122 8.72031L9.43077 8.7204C9.28153 8.7204 9.18201 8.59597 9.18201 8.47164V7.52622ZM8.83372 10.3374C8.83372 10.213 8.95814 10.0887 9.08248 10.0887H16.5458C16.6703 10.0887 16.7946 10.2131 16.7946 10.3374C16.7946 10.4618 16.6702 10.5862 16.5458 10.5862H9.08248C8.95805 10.5862 8.83372 10.4866 8.83372 10.3374ZM8.83372 11.7306C8.83372 11.5813 8.95814 11.4818 9.08248 11.4818H16.5458C16.6703 11.4818 16.7946 11.5813 16.7946 11.7306C16.7946 11.855 16.6702 11.9793 16.5458 11.9793H9.08248C8.95805 11.9793 8.83372 11.8798 8.83372 11.7306ZM13.4112 13.1486C13.4112 13.273 13.3117 13.3973 13.1625 13.3973H9.08252C8.9581 13.3973 8.83376 13.2729 8.83376 13.1486C8.83376 12.9993 8.95819 12.8998 9.08252 12.8998H13.1625C13.3117 12.8749 13.4112 12.9994 13.4112 13.1486ZM16.5707 16.7559L16.322 17.4275L15.6999 15.5867C15.4761 15.6364 15.277 15.6364 15.078 15.5867L14.456 17.4525L14.2073 16.7809L13.5853 17.1541L14.2819 15.1141C14.058 14.8653 13.9336 14.5418 13.9336 14.1687C13.9336 13.3477 14.5805 12.701 15.4014 12.701C16.2224 12.701 16.8691 13.3478 16.8691 14.1687C16.8691 14.5419 16.7447 14.8653 16.5208 15.1141L17.2174 17.1541L16.5707 16.7559Z" fill="white"/>
<path d="M15.3765 13.0244C14.7546 13.0244 14.2571 13.5219 14.2571 14.1439C14.2571 14.7658 14.7546 15.2633 15.3765 15.2633C15.9985 15.2633 16.496 14.7658 16.496 14.1439C16.5209 13.522 15.9985 13.0244 15.3765 13.0244ZM15.3765 14.9898C14.9038 14.9898 14.5307 14.6166 14.5307 14.144C14.5307 13.6962 14.9039 13.2982 15.3765 13.2982C15.8492 13.2982 16.2223 13.6713 16.2223 14.144C16.2223 14.6167 15.8492 14.9898 15.3765 14.9898Z" fill="white"/>
</g>
<path d="M13.578 18.5756C13.578 19.3311 12.9655 19.9436 12.21 19.9436C11.4544 19.9436 10.842 19.3311 10.842 18.5756C10.842 17.82 11.4544 17.2075 12.21 17.2075C12.9655 17.2075 13.578 17.82 13.578 18.5756Z" fill="#104651"/>
<path d="M13.8345 14.8309C15.5958 14.1298 16.7073 12.3684 16.5876 10.4703C16.4508 8.26443 14.6895 6.50303 12.4836 6.36623C11.2523 6.29788 10.0896 6.7082 9.20028 7.54618C8.3282 8.36697 7.81519 9.54692 7.81519 10.7439C7.81519 11.4109 8.34527 11.9409 9.01218 11.9409C9.67909 11.9409 10.2092 11.4109 10.2092 10.7439C10.2092 10.1796 10.4315 9.6666 10.8419 9.29036C11.2523 8.91415 11.7824 8.72604 12.3467 8.76028C13.3385 8.82863 14.1423 9.63236 14.2106 10.6242C14.2619 11.4792 13.7489 12.2829 12.9452 12.6079C11.7652 13.0696 11.0128 14.164 11.0128 15.4123C11.0128 16.0792 11.5429 16.6093 12.2098 16.6093C12.8767 16.6093 13.4068 16.0792 13.4068 15.4123C13.4069 15.1559 13.5778 14.9335 13.8344 14.8309L13.8345 14.8309Z" fill="#104651"/>
</svg>
