<svg width="21" height="17" viewBox="0 0 21 17" fill="none" xmlns="http://www.w3.org/2000/svg">
<path d="M6.73056 0L5.65373 2.65626H1.88458C0.840389 2.65626 0 3.48559 0 4.5156V15.1407C0 16.1709 0.840581 17 1.88458 17H19.1154C20.1596 17 21 16.1707 21 15.1407V4.5156C21 3.4854 20.1594 2.65626 19.1154 2.65626H15.3463L14.2694 0H6.73056ZM10.4997 4.78128C13.3152 4.78128 15.6151 7.0503 15.6151 9.82818C15.6151 12.6061 13.3153 14.8751 10.4997 14.8751C7.68412 14.8751 5.3843 12.6061 5.3843 9.82818C5.3843 7.0503 7.68412 4.78128 10.4997 4.78128ZM10.4997 6.37513C8.5573 6.37513 6.99965 7.91173 6.99965 9.82832C6.99965 11.7449 8.55711 13.2815 10.4997 13.2815C12.4423 13.2815 13.9998 11.7449 13.9998 9.82832C13.9998 7.91173 12.4423 6.37513 10.4997 6.37513Z" fill="white"/>
</svg>
