<svg width="27" height="20" viewBox="0 0 27 20" fill="none" xmlns="http://www.w3.org/2000/svg">
<path d="M13.1471 11.7818C15.2655 11.7818 16.7045 10.064 16.7045 7.94539C16.7045 5.8272 15.2655 4.10938 13.1471 4.10938C11.0283 4.10938 9.58838 5.82678 9.58838 7.94539C9.58838 10.0638 11.0283 11.7818 13.1471 11.7818Z" fill="#104651"/>
<path d="M18.2544 19.5422C18.7983 18.9152 19.1316 17.8187 19.1783 16.84C19.1783 14.5915 17.9488 12.6398 16.1303 11.5952C15.3459 12.3113 14.3114 12.7351 13.1458 12.7351C11.9808 12.7351 10.9461 12.3113 10.1613 11.5952C8.34247 12.6396 7.11328 14.5913 7.11328 16.84C7.15954 17.8187 7.49373 18.9152 8.03698 19.5422C8.55864 20.1759 18.0575 20.1295 18.2542 19.5422H18.2544Z" fill="#104651"/>
<path d="M20.2603 7.67266C22.3785 7.67266 23.8184 5.95463 23.8184 3.83623C23.8184 1.71803 22.3785 0 20.2603 0C18.1413 0 16.7012 1.71782 16.7012 3.83623C16.7014 5.95463 18.1412 7.67266 20.2603 7.67266Z" fill="#104651"/>
<path d="M6.03234 7.67266C8.15074 7.67266 9.59083 5.95463 9.59083 3.83623C9.59083 1.71803 8.15095 0 6.03234 0C3.91352 0 2.47363 1.71782 2.47363 3.83623C2.47404 5.95463 3.91352 7.67266 6.03234 7.67266Z" fill="#104651"/>
<path d="M23.2436 7.48541C22.4595 8.20165 21.4254 8.6255 20.2598 8.6255C19.2397 8.6255 18.3193 8.30068 17.5798 7.73889C17.582 7.80715 17.5845 7.87562 17.5845 7.94449C17.5845 9.0779 17.2442 10.0935 16.6626 10.8898C18.4829 11.9745 19.7019 13.8278 19.991 15.8896C22.5831 15.9006 25.2645 15.7415 25.3678 15.4324C25.9117 14.8053 26.2454 13.7088 26.2915 12.7301C26.2915 10.4819 25.0621 8.53013 23.2434 7.48535L23.2436 7.48541Z" fill="#104651"/>
<path d="M6.30065 15.8896C6.58981 13.8275 7.80856 11.9745 9.62967 10.8898C9.04813 10.0937 8.7078 9.07869 8.7078 7.94492C8.7078 7.87605 8.70984 7.80758 8.71248 7.73931C7.97319 8.30072 7.05298 8.62592 6.03309 8.62592C4.8677 8.62592 3.83315 8.20208 3.04863 7.48584C1.22976 8.53036 0 10.4817 0 12.7306C0.0466639 13.7093 0.380446 14.8058 0.924327 15.4328C1.18984 15.756 3.79022 15.9019 6.30054 15.8897L6.30065 15.8896Z" fill="#104651"/>
</svg>
