<svg width="25" height="25" viewBox="0 0 25 25" fill="none" xmlns="http://www.w3.org/2000/svg">
<path d="M24.5986 21.0694L19.3576 15.8284C18.8836 15.3545 18.0934 15.328 17.593 15.7494L16.0917 14.2481C17.1979 12.7733 17.8563 10.9298 17.8563 8.92813C17.8563 4.00317 13.853 0 8.92813 0C4.00322 0 0 4.00322 0 8.92813C0 13.853 4.00322 17.8563 8.92813 17.8563C10.9034 17.8563 12.7469 17.1979 14.2481 16.0917L15.7494 17.593C15.328 18.1197 15.3545 18.8835 15.8284 19.3576L21.0694 24.5986C21.5961 25.1252 22.439 25.1252 22.9394 24.5986L24.625 22.913C25.1252 22.4126 25.1252 21.5699 24.5985 21.0695L24.5986 21.0694ZM8.90189 15.2227C5.42536 15.2227 2.60743 12.4046 2.60743 8.92821C2.60743 5.45168 5.42554 2.63375 8.90189 2.63375C12.3784 2.63375 15.1964 5.45187 15.1964 8.92821C15.1964 12.4047 12.3784 15.2227 8.90189 15.2227Z" fill="#E1478C"/>
<path d="M11.0877 6.63712C11.0877 7.84428 10.1091 8.82306 8.90176 8.82306C7.69446 8.82306 6.71582 7.84428 6.71582 6.63712C6.71582 5.42977 7.69446 4.45117 8.90176 4.45117C10.1091 4.45117 11.0877 5.42981 11.0877 6.63712Z" fill="#E1478C"/>
<path d="M12.5626 11.2457C12.4836 10.8508 12.2991 10.4556 12.0621 10.1133C11.8251 9.77091 11.4827 9.48122 11.114 9.27048C10.9296 9.16521 10.7453 9.08603 10.5608 9.03349L10.1394 8.92822L9.34926 12.0623L9.19126 10.0081C9.34926 9.95535 9.45471 9.79736 9.45471 9.63937V9.45492C9.45471 9.24421 9.27026 9.05995 9.05973 9.05995H8.69103C8.48031 9.05995 8.29605 9.24439 8.29605 9.45492V9.63937C8.29605 9.82382 8.40132 9.95535 8.55949 10.0081L8.42777 12.0623L7.63763 8.92822L7.2162 9.03349C7.03175 9.08621 6.82122 9.16521 6.66303 9.27048C6.29433 9.48119 5.9519 9.77092 5.71491 10.1133C5.47793 10.4558 5.29348 10.8245 5.21447 11.2457C5.1882 11.3774 5.16174 11.5354 5.13547 11.6672C5.1092 11.8516 5.16174 12.0621 5.29346 12.1938C6.24158 13.063 7.47941 13.5897 8.84901 13.5897C10.2186 13.5897 11.4827 13.063 12.4308 12.1938C12.5625 12.0621 12.6152 11.8779 12.5888 11.6672C12.6152 11.5354 12.5888 11.3774 12.5626 11.2457Z" fill="#E1478C"/>
</svg>
