<svg width="13" height="13" viewBox="0 0 13 13" fill="none" xmlns="http://www.w3.org/2000/svg">
<path d="M12.5996 7.5001C12.8566 7.23057 13 6.87255 13 6.50012C13 6.12769 12.8566 5.76967 12.5996 5.50014L12.3141 5.20025C12.1916 5.07196 12.1429 4.89018 12.185 4.71786L12.282 4.31673V4.31683C12.3703 3.95478 12.3154 3.57259 12.1291 3.2499C11.9428 2.92721 11.6392 2.68878 11.2816 2.5842L10.8857 2.46773C10.715 2.4182 10.5815 2.28493 10.5319 2.11437L10.4158 1.71842C10.3116 1.36029 10.0729 1.05625 9.74984 0.869837C9.42674 0.683416 9.04416 0.629012 8.68189 0.718025L8.28077 0.815017C8.10834 0.857401 7.92618 0.808488 7.79799 0.685485L7.49852 0.400415C7.22911 0.143424 6.87099 0 6.49867 0C6.12625 0 5.76813 0.143416 5.49871 0.400415L5.19882 0.68591C5.07022 0.807774 4.88868 0.856374 4.71644 0.815027L4.3181 0.718035C3.95595 0.629747 3.57358 0.684461 3.25068 0.870779C2.92779 1.0571 2.68904 1.36073 2.58418 1.71843L2.4677 2.11439C2.41817 2.28506 2.28491 2.41853 2.11436 2.46817L1.7184 2.58423C1.36049 2.68878 1.05667 2.92745 0.870236 3.25043C0.683922 3.57354 0.629312 3.95591 0.718013 4.31818L0.815003 4.71931C0.85697 4.89175 0.808164 5.07381 0.685474 5.2021L0.400408 5.50157C0.143421 5.77099 0 6.12912 0 6.50144C0 6.87387 0.143413 7.232 0.400408 7.50142L0.685898 7.80132C0.808381 7.9296 0.857084 8.11146 0.815013 8.2837L0.718023 8.68483C0.63015 9.0467 0.685174 9.42844 0.871385 9.75084C1.0577 10.0732 1.361 10.3115 1.71841 10.416L2.11436 10.5325C2.28503 10.582 2.4185 10.7153 2.46814 10.8858L2.58461 11.2823L2.58471 11.2822C2.68896 11.6402 2.9275 11.9441 3.2505 12.1305C3.5735 12.3169 3.95598 12.3712 4.31813 12.2822L4.71926 12.1852C4.89169 12.1433 5.07364 12.1921 5.20203 12.3147L5.5015 12.5998C5.77102 12.8567 6.12904 13 6.50136 13C6.87378 13 7.23179 12.8567 7.50131 12.5998L7.80121 12.3143C7.92939 12.1916 8.11134 12.143 8.28359 12.1852L8.68471 12.2822C9.04658 12.3699 9.4282 12.3149 9.75059 12.1286C10.073 11.9423 10.3112 11.6391 10.4159 11.2818L10.5323 10.8858C10.5819 10.7151 10.7151 10.5817 10.8857 10.532L11.2821 10.4156L11.282 10.4155C11.6398 10.3108 11.9435 10.0722 12.1297 9.74937C12.316 9.42647 12.3705 9.04409 12.282 8.68204L12.185 8.2809C12.143 8.10847 12.1918 7.92641 12.3145 7.79812L12.5996 7.5001ZM9.51761 5.21786L6.14781 8.45004C6.06128 8.53304 5.94616 8.57936 5.82627 8.57936C5.70648 8.57936 5.59125 8.53304 5.50483 8.45004L3.48263 6.51185C3.36295 6.39703 3.31362 6.22699 3.35331 6.06594C3.39289 5.9049 3.51548 5.77723 3.67474 5.73102C3.83412 5.6848 4.00591 5.72708 4.12561 5.8419L5.82659 7.47512L8.87434 4.55041C8.99527 4.44564 9.16159 4.41041 9.31465 4.45745C9.4676 4.5044 9.58563 4.62678 9.62688 4.78139C9.66823 4.936 9.62698 5.10097 9.51776 5.21796L9.51761 5.21786Z" fill="#659FF6"/>
</svg>
