<svg width="35" height="33" viewBox="0 0 35 33" fill="none" xmlns="http://www.w3.org/2000/svg">
<path d="M29.6568 4.89336C29.5739 5.02256 29.4909 5.12729 29.4005 5.21705L28.4838 6.133L28.628 6.44239C28.7436 6.68991 28.851 6.94899 28.9483 7.21283L29.0659 7.53242H30.3654C31.3867 7.53242 32.2177 8.36133 32.2177 9.37992V10.9786C32.2177 11.9945 31.3868 12.8207 30.3654 12.8207H29.0673L28.9503 13.1403C28.8578 13.3932 28.7518 13.6469 28.6273 13.9175L28.4852 14.2262L29.4066 15.1476C29.7554 15.4931 29.9479 15.9561 29.9479 16.4532C29.9479 16.9496 29.7541 17.4147 29.3998 17.7636L28.2696 18.8896C27.5808 19.5853 26.3602 19.5894 25.6605 18.8815L24.7391 17.9601L24.427 18.111C24.1768 18.2321 23.9279 18.3368 23.6647 18.43L23.3404 18.5449V19.845C23.3404 20.8664 22.5115 21.6981 21.4929 21.6981H19.899C18.8803 21.6981 18.0515 20.8672 18.0515 19.845L18.0528 18.5442L17.7298 18.4279C17.4653 18.3327 17.209 18.2259 16.9682 18.1104L16.6568 17.9601L15.7334 18.8842C15.3811 19.2364 14.9255 19.4234 14.4196 19.4275C13.9266 19.4262 13.4642 19.2324 13.1147 18.8788L11.9886 17.7575C11.6411 17.4107 11.4494 16.9469 11.4494 16.4519C11.4494 15.9568 11.6411 15.4924 11.9886 15.1449L12.9154 14.2188L12.7665 13.9073C12.7074 13.7842 12.6489 13.655 12.5904 13.5109C12.5428 13.4 12.4952 13.2777 12.451 13.1485L12.3381 12.8193H11.0291C10.0078 12.8193 9.17677 11.9931 9.17677 10.9772V9.37856C9.17677 8.35992 10.0077 7.53106 11.0291 7.53106H12.3375L12.4517 7.20602C12.5387 6.95918 12.6421 6.71098 12.7672 6.4485L12.9148 6.13774L11.9886 5.2109C11.8995 5.12251 11.8186 5.01914 11.7404 4.89606L11.5969 4.66895H7.15723V23.9186H27.8274C28.2306 23.9186 28.5584 24.2464 28.5584 24.6496V29.2512C28.5584 30.0107 28.8535 30.7234 29.3893 31.2592C29.9251 31.795 30.6385 32.0901 31.3973 32.0901C32.9627 32.0901 34.2364 30.8165 34.2364 29.2511L34.237 4.6694H29.8008L29.6568 4.89336Z" fill="#104651"/>
<path d="M27.6304 31.3287C27.5509 31.1852 27.4781 31.037 27.4121 30.8718L27.3917 30.814C27.3407 30.6834 27.2972 30.5508 27.2598 30.4175L27.2217 30.2652C27.1932 30.1483 27.1707 30.0306 27.1524 29.9096L27.1299 29.7607C27.1102 29.5941 27.098 29.4254 27.098 29.2554V25.385L0.0147705 25.3843V29.2547C0.0147705 30.0082 0.310564 30.7229 0.848451 31.2655C1.37682 31.8 2.08944 32.0944 2.85436 32.0944H27.2254L27.9686 32.0727L27.6599 31.3852L27.6304 31.3287ZM3.65452 29.2358C3.37503 29.5085 2.8902 29.5064 2.62092 29.2378C2.4822 29.0991 2.40332 28.9107 2.40332 28.7197C2.40332 28.5286 2.48288 28.3402 2.62092 28.2015C2.75352 28.0696 2.94528 28.0029 3.13635 28.0029C3.32812 28.0029 3.51919 28.0689 3.65178 28.2015C3.7871 28.3368 3.86463 28.5258 3.86463 28.7197C3.86531 28.9121 3.78847 29.0998 3.65452 29.2358Z" fill="#104651"/>
<path d="M28.6445 3.90695L26.9704 2.23144L25.9755 3.23375C25.4139 3.78727 24.553 3.93006 23.8403 3.58871C23.6003 3.47107 23.3718 3.37519 23.1508 3.29903C22.9747 3.23443 22.84 3.16711 22.6979 3.07055C22.6795 3.05831 22.653 3.03995 22.6109 3.00595C22.5721 2.97603 22.534 2.94475 22.4939 2.91007C22.4259 2.85159 22.3688 2.79243 22.3083 2.71627C22.0322 2.38648 21.8799 1.97168 21.8799 1.54872V0.125488H19.5162V1.54872C19.5162 2.32595 19.011 3.02772 18.2596 3.29491L18.1521 3.33503C18.1011 3.35339 18.0515 3.37243 17.9638 3.40847L17.8768 3.44383C17.7897 3.48055 17.6809 3.52679 17.5816 3.57575C17.2015 3.75458 16.816 3.81442 16.4324 3.74914C16.359 3.73826 16.2801 3.71922 16.1856 3.69134C16.1638 3.68522 16.1428 3.67979 16.121 3.67163C16.0605 3.64987 15.9592 3.61315 15.8334 3.53971C15.7694 3.50639 15.7096 3.46831 15.6164 3.39895C15.5484 3.34795 15.49 3.29695 15.4328 3.23983L14.4285 2.22868L12.7516 3.90622L13.7553 4.90989C14.3034 5.45796 14.4462 6.31001 14.1116 7.03087C13.9892 7.28518 13.8954 7.51026 13.8179 7.73399C13.5499 8.48878 12.8448 8.99538 12.0635 8.99538H10.6403V11.359H12.0635C12.8441 11.359 13.5479 11.8643 13.8118 12.6075C13.8573 12.7449 13.8995 12.853 13.9423 12.9529C13.9974 13.0883 14.0498 13.2012 14.1035 13.3127C14.4435 14.0423 14.3041 14.9011 13.7547 15.4498L12.7503 16.4542L14.4279 18.1236L15.4315 17.1206C15.9837 16.5677 16.8405 16.429 17.5565 16.7717C17.785 16.8833 18.0148 16.9798 18.2576 17.0655C19.0103 17.332 19.5162 18.0338 19.5162 18.8131V20.2363H21.8799V18.8131C21.8799 18.0345 22.3851 17.332 23.1345 17.0669C23.3718 16.9846 23.5989 16.8901 23.8254 16.7786C24.5489 16.4331 25.4098 16.5678 25.9639 17.1145L26.9703 18.1216L28.6451 16.4536L27.6408 15.4485C27.0886 14.897 26.9492 14.0416 27.296 13.3147C27.4069 13.0746 27.5041 12.8393 27.5898 12.6075C27.855 11.8608 28.5554 11.359 29.3334 11.359H30.7566V8.99535H29.3334C28.5575 8.99535 27.8557 8.49351 27.5872 7.74416C27.4988 7.5014 27.4002 7.2634 27.2921 7.03425C26.9493 6.31617 27.0901 5.46346 27.6416 4.91135L28.6445 3.90695ZM25.3288 10.1806C25.3288 12.734 23.2514 14.8114 20.698 14.8114C18.1446 14.8114 16.0671 12.734 16.0671 10.1806C16.0671 7.62719 18.1446 5.54973 20.698 5.54973C23.2514 5.54905 25.3288 7.62649 25.3288 10.1806Z" fill="#104651"/>
<path d="M20.6981 7.00977C18.9512 7.00977 17.53 8.43096 17.53 10.1785C17.53 11.9254 18.9512 13.3466 20.6981 13.3466C22.445 13.3466 23.8662 11.9254 23.8662 10.1785C23.8668 8.43094 22.445 7.00977 20.6981 7.00977Z" fill="#104651"/>
</svg>
