<svg width="15" height="10" viewBox="0 0 15 10" fill="none" xmlns="http://www.w3.org/2000/svg">
<path d="M7.5 6.75874C6.53023 6.75874 5.74126 5.96987 5.74126 4.99997C5.74126 4.03007 6.53023 3.2412 7.5 3.2412C8.46977 3.2412 9.25874 4.03019 9.25874 4.99997C9.25874 5.96976 8.46977 6.75874 7.5 6.75874ZM7.5 10C4.17856 10 0.901318 7.6177 0 5C0.901374 2.38241 4.17856 0 7.5 0C10.8214 0 14.0987 2.3823 15 5C14.0986 7.61759 10.8214 10 7.5 10ZM7.5 2.13747C5.92144 2.13747 4.63752 3.42161 4.63752 5C4.63752 6.57839 5.92155 7.86253 7.5 7.86253C9.07845 7.86253 10.3625 6.57828 10.3625 5C10.3625 3.42172 9.07845 2.13747 7.5 2.13747Z" fill="white"/>
</svg>
