<svg width="22" height="23" viewBox="0 0 22 23" fill="none" xmlns="http://www.w3.org/2000/svg">
<path d="M21.6004 17.9605C21.4404 17.8405 20.9604 17.4805 20.9204 17.1205C20.9204 16.7604 21.4004 16.4004 21.6004 16.2804C21.9204 16.0804 22.0804 15.6804 21.9604 15.3204C21.9604 15.3204 21.8004 14.8404 21.5604 14.4404C21.3604 14.0404 21.0404 13.6804 21.0004 13.6804C20.8004 13.4404 20.3204 13.3604 20.0004 13.5204C19.8804 13.6004 19.5603 13.7604 19.2403 13.7604C19.1203 13.7604 19.0403 13.7604 18.9603 13.6804C18.6403 13.4804 18.5603 12.8804 18.5603 12.6804C18.5603 12.2804 18.2803 11.9604 17.8803 11.9204H17.8403H16.0803C15.6803 11.9604 15.4003 12.3204 15.4003 12.6804C15.4003 12.8804 15.3203 13.4804 15.0003 13.6804C14.9203 13.7204 14.8403 13.7604 14.7203 13.7604C14.4003 13.7604 14.0403 13.6004 13.9603 13.5204C13.6403 13.3204 13.1603 13.4404 12.9603 13.7204C12.9603 13.7204 12.9603 13.7604 12.9203 13.7604L12.0803 15.2404C12.0803 15.2404 12.0803 15.2804 12.0403 15.2804C11.8803 15.6404 12.0403 16.0804 12.3603 16.2804C12.4803 16.3604 13.0403 16.7204 13.0403 17.1205C13.0403 17.4805 12.5603 17.8405 12.3603 17.9605C12.0403 18.1605 11.8803 18.5605 12.0003 18.9205C12.0003 18.9205 12.1603 19.4005 12.4003 19.8005C12.6403 20.1605 12.9203 20.5605 12.9603 20.5605C13.2003 20.8405 13.6803 20.9205 13.9603 20.7205C14.0803 20.6405 14.4403 20.4805 14.7203 20.4805C14.8403 20.4805 14.9203 20.5205 15.0003 20.5605C15.3203 20.7605 15.4003 21.3605 15.4003 21.5605C15.4003 21.9605 15.7203 22.2805 16.0803 22.3605H16.1203H17.8803C18.2803 22.3205 18.5603 21.9605 18.5603 21.5605C18.5603 21.4005 18.6403 20.7605 18.9603 20.5605C19.0403 20.5205 19.1203 20.4805 19.2403 20.4805C19.5603 20.4805 19.9204 20.6405 20.0004 20.7205C20.3204 20.9205 20.8004 20.8005 21.0004 20.5205L21.0404 20.4805L21.9204 19.0005C21.9204 19.0005 21.9204 18.9605 21.9604 18.9605C22.0804 18.5605 21.9204 18.1205 21.6004 17.9605ZM17.7203 18.4405C17.4803 18.5605 17.2403 18.6405 16.9603 18.6405C16.4403 18.6405 15.9203 18.3605 15.6403 17.8805C15.4403 17.5205 15.4003 17.1205 15.5203 16.7204C15.6403 16.3204 15.8803 16.0004 16.2403 15.8004C16.4803 15.6804 16.7203 15.6004 17.0003 15.6004C17.5603 15.6004 18.0403 15.8804 18.3203 16.3604C18.7203 17.0805 18.4403 18.0005 17.7203 18.4405Z" fill="#104651"/>
<path d="M5.76008 15.9202H1.36005C0.560043 14.4401 0.0800394 12.8001 0.0400391 11.1201H4.84008C4.84008 12.7601 5.16008 14.4001 5.76008 15.9202Z" fill="#104651"/>
<path d="M4.80004 10.3201H0C0.0800006 8.64004 0.520004 7.00003 1.32001 5.52002H5.76004C5.16004 7.04003 4.84004 8.64004 4.80004 10.3201Z" fill="#104651"/>
<path d="M6.11988 4.72004H1.83984C3.59986 2.08002 6.43965 0.360003 9.5999 0C8.11989 1.32001 6.91988 2.92002 6.11988 4.72004Z" fill="#104651"/>
<path d="M9.31967 21.1602C9.43967 21.2403 9.51967 21.3603 9.63968 21.4403C6.43965 21.0802 3.59986 19.3602 1.83984 16.7202H6.11988C6.19988 16.9202 6.27988 17.0802 6.35988 17.2402L6.47988 17.4802C6.55988 17.6402 6.67988 17.8402 6.75988 18.0002C6.79988 18.0802 6.87988 18.2002 6.91988 18.2802C6.99988 18.4402 7.11988 18.6002 7.23989 18.7602C7.27989 18.8402 7.35989 18.9202 7.43989 19.0402C7.55989 19.2002 7.67989 19.3602 7.79989 19.5202C7.83989 19.6002 7.91989 19.6802 7.95989 19.7202C8.31989 20.1602 8.6799 20.6002 9.1199 21.0002C9.1599 21.0402 9.2399 21.1202 9.3199 21.1602H9.31967Z" fill="#104651"/>
<path d="M10.4 0.360107V4.72014H7C7.84001 3.04013 9.00002 1.56012 10.4 0.360107Z" fill="#104651"/>
<path d="M6.64011 5.52002H10.4001V10.3201H5.6001C5.6401 8.64004 6.0001 7.04003 6.64011 5.52002Z" fill="#104651"/>
<path d="M5.6001 11.1201H10.4001V15.9202H6.64011C6.0001 14.4001 5.6401 12.8001 5.6001 11.1201Z" fill="#104651"/>
<path d="M7.00049 16.7202H10.4005V21.0802H10.3605L10.2005 20.9202C10.0405 20.8002 9.92051 20.6402 9.76051 20.5202L8.9605 19.7202C8.8405 19.6002 8.7605 19.4802 8.6405 19.3202C8.5605 19.2402 8.5205 19.1602 8.4405 19.0402C8.3205 18.9202 8.2405 18.7602 8.1605 18.6402C8.0805 18.5602 8.0405 18.4402 7.9605 18.3602C7.8805 18.2402 7.76049 18.0802 7.68049 17.9202C7.64049 17.8402 7.56049 17.7202 7.52049 17.6402C7.44049 17.4802 7.32049 17.3202 7.24049 17.1602L7.12049 16.9202C7.08049 16.8402 7.04049 16.8002 7.00049 16.7202Z" fill="#104651"/>
<path d="M14.5997 4.72014H11.1997V0.360107L11.3997 0.560109C11.5597 0.68011 11.6797 0.840111 11.8397 0.960112L12.0397 1.16011C12.1997 1.28011 12.3197 1.40012 12.3997 1.52012L12.6397 1.76012C12.7597 1.88012 12.8397 2.00012 12.9597 2.16012C13.0397 2.24012 13.0797 2.32012 13.1597 2.44012C13.2797 2.56012 13.3597 2.72013 13.4397 2.84013C13.5197 2.92013 13.5597 3.04013 13.6397 3.12013C13.7197 3.28013 13.8397 3.40013 13.9197 3.56013C13.9597 3.64013 14.0397 3.76013 14.0797 3.84013C14.1597 4.00014 14.2797 4.16014 14.3597 4.32014L14.4797 4.56014C14.5197 4.60014 14.5597 4.64014 14.5997 4.72014Z" fill="#104651"/>
<path d="M16.0002 10.3201H11.2002V5.52002H14.9602C15.6002 7.04003 15.9602 8.64004 16.0002 10.3201Z" fill="#104651"/>
<path d="M12.32 0.280002C12.2 0.200002 12.12 0.0800006 12 0C15.16 0.360003 18 2.08002 19.7601 4.72004H15.48C15.4 4.52004 15.32 4.36003 15.24 4.20003L15.12 3.96003C15.04 3.80003 14.92 3.60003 14.84 3.44003C14.8 3.36003 14.72 3.24003 14.68 3.16002C14.6 3.00002 14.48 2.84002 14.36 2.68002C14.32 2.60002 14.24 2.52002 14.16 2.44002C14.04 2.28002 13.92 2.12002 13.8 1.96002C13.76 1.88001 13.68 1.80001 13.64 1.76001C13.28 1.32001 12.92 0.880007 12.48 0.480004C12.44 0.400003 12.36 0.320002 12.32 0.280002Z" fill="#104651"/>
<path d="M15.8403 5.52002H20.2804C21.0804 7.00003 21.5604 8.64004 21.6004 10.3201H16.8003C16.7603 8.64004 16.4403 7.04003 15.8403 5.52002Z" fill="#104651"/>
</svg>
